<svg xmlns="http://www.w3.org/2000/svg" xmlns:xlink="http://www.w3.org/1999/xlink" width="240" viewBox="0 0 240 75" height="75" version="1.0"><defs><g id="b"><path d="M 7.972656 0 L 12.21875 0 L 12.21875 -17.617188 L 20.4375 -17.617188 L 20.4375 -21.222656 L -0.273438 -21.222656 L -0.273438 -17.617188 L 7.972656 -17.617188 Z M 7.972656 0"/></g><g id="c"><path d="M 11.734375 0.304688 C 18.253906 0.304688 22.921875 -4.273438 22.921875 -10.703125 C 22.921875 -17.101562 18.253906 -21.648438 11.734375 -21.648438 C 5.277344 -21.648438 0.546875 -17.101562 0.546875 -10.703125 C 0.546875 -4.273438 5.277344 0.304688 11.734375 0.304688 Z M 11.734375 -3.304688 C 7.640625 -3.304688 4.789062 -6.457031 4.789062 -10.703125 C 4.789062 -14.949219 7.640625 -18.070312 11.734375 -18.070312 C 15.859375 -18.070312 18.707031 -14.949219 18.707031 -10.703125 C 18.707031 -6.457031 15.859375 -3.304688 11.734375 -3.304688 Z M 11.734375 -3.304688"/></g><g id="d"><path d="M 12.402344 0.332031 C 17.828125 0.332031 23.257812 -3.546875 23.257812 -11.308594 L 23.257812 -21.222656 L 19.042969 -21.222656 L 19.042969 -11.308594 C 19.011719 -5.914062 15.675781 -3.214844 12.371094 -3.214844 C 9.066406 -3.214844 5.699219 -5.914062 5.699219 -11.308594 L 5.699219 -21.222656 L 1.484375 -21.222656 L 1.484375 -11.308594 C 1.484375 -3.546875 6.945312 0.332031 12.402344 0.332031 Z M 12.402344 0.332031"/></g><g id="e"><path d="M 1.515625 0 L 5.730469 0 L 5.730469 -7.730469 L 9.640625 -7.730469 L 16.34375 0 L 21.101562 0 L 21.101562 -0.183594 L 14.402344 -7.851562 C 16.070312 -7.945312 17.3125 -8.367188 18.375 -9.1875 C 19.949219 -10.460938 20.859375 -12.492188 20.859375 -14.371094 C 20.859375 -16.25 20.011719 -18.253906 18.527344 -19.464844 C 16.796875 -20.832031 14.339844 -21.222656 12.492188 -21.222656 L 1.515625 -21.222656 Z M 5.730469 -11.1875 L 5.730469 -17.648438 L 12.492188 -17.648438 C 14.796875 -17.648438 16.644531 -16.828125 16.644531 -14.402344 C 16.644531 -12.160156 15.25 -11.1875 12.796875 -11.1875 Z M 5.730469 -11.1875"/></g><g id="f"><path d="M 11.097656 0.515625 C 12.429688 0.515625 13.613281 0.425781 14.585938 0.242188 C 18.222656 -0.425781 21.558594 -2.667969 21.558594 -6.367188 C 21.558594 -11.703125 15.613281 -12.460938 9.761719 -12.523438 C 7.15625 -12.644531 4.761719 -12.917969 4.761719 -15.039062 C 4.761719 -18.011719 9.367188 -18.3125 10.855469 -18.3125 C 12.976562 -18.3125 16.496094 -17.707031 16.738281 -14.949219 L 20.921875 -15.371094 C 20.617188 -20.738281 15.34375 -21.679688 10.945312 -21.679688 C 6.609375 -21.679688 0.425781 -20.527344 0.425781 -14.949219 C 0.425781 -9.824219 5.730469 -9.308594 9.703125 -9.125 L 11.128906 -9.066406 C 14.007812 -8.945312 17.464844 -8.730469 17.222656 -5.914062 C 17.011719 -3.457031 12.675781 -3.03125 11.035156 -3.03125 C 8.339844 -3.03125 4.640625 -3.730469 4.335938 -6.972656 L 0.152344 -6.457031 C 0.699219 -0.757812 6.519531 0.515625 11.097656 0.515625 Z M 11.097656 0.515625"/></g><g id="g"><path d="M 1.515625 0 L 12.824219 0 C 16.859375 0 20.859375 -1.820312 20.859375 -6.550781 C 20.859375 -8.460938 19.617188 -10.792969 17.28125 -11.402344 C 18.796875 -12.1875 19.648438 -13.828125 19.648438 -15.128906 C 19.648438 -19.34375 16.644531 -21.222656 12.492188 -21.222656 L 1.515625 -21.222656 Z M 5.609375 -12.765625 L 5.609375 -17.738281 L 12.523438 -17.738281 C 14.070312 -17.738281 15.613281 -17.101562 15.613281 -15.191406 C 15.613281 -13.371094 14.339844 -12.796875 12.734375 -12.765625 Z M 5.609375 -3.488281 L 5.609375 -9.367188 L 12.824219 -9.367188 C 14.765625 -9.367188 16.738281 -8.703125 16.738281 -6.457031 C 16.738281 -4.214844 14.886719 -3.515625 12.824219 -3.488281 Z M 5.609375 -3.488281"/></g><g id="h"><path d="M 1.484375 0 L 18.433594 0 L 18.433594 -3.636719 L 5.761719 -3.636719 L 5.761719 -21.222656 L 1.484375 -21.222656 Z M 1.484375 0"/></g><g id="j"><path d="M 1.515625 0 L 5.730469 0 L 5.730469 -11.644531 L 5.578125 -14.828125 L 12.675781 -5.609375 L 15.007812 -5.609375 L 22.132812 -14.917969 L 21.984375 -11.792969 L 21.984375 0 L 26.195312 0 L 26.195312 -21.222656 L 22.195312 -21.222656 L 13.886719 -10.339844 L 5.609375 -21.222656 L 1.515625 -21.222656 Z M 1.515625 0"/></g><clipPath id="m"><path d="M 0.878906 0.402344 L 33.339844 0.402344 L 33.339844 23.007812 L 0.878906 23.007812 Z M 0.878906 0.402344"/></clipPath><clipPath id="l"><path d="M0 0H34V24H0z"/></clipPath><clipPath id="p"><path d="M 0.746094 0.457031 L 33.203125 0.457031 L 33.203125 23.0625 L 0.746094 23.0625 Z M 0.746094 0.457031"/></clipPath><clipPath id="o"><path d="M0 0H34V24H0z"/></clipPath><mask id="k"><g filter="url(#a)"><path fill-opacity=".698" d="M-24 -7.5H264V82.5H-24z"/></g></mask><mask id="n"><g filter="url(#a)"><path fill-opacity=".698" d="M-24 -7.5H264V82.5H-24z"/></g></mask><filter x="0%" y="0%" width="100%" xmlns:xlink="http://www.w3.org/1999/xlink" xlink:type="simple" xlink:actuate="onLoad" height="100%" id="a" xlink:show="other"><feColorMatrix values="0 0 0 0 1 0 0 0 0 1 0 0 0 0 1 0 0 0 1 0" color-interpolation-filters="sRGB"/></filter></defs><g fill="#2F455C"><use x="2.482" y="45.836" xmlns:xlink="http://www.w3.org/1999/xlink" xlink:href="#b" xlink:type="simple" xlink:actuate="onLoad" xlink:show="embed"/></g><g fill="#2F455C"><use x="23.428" y="45.836" xmlns:xlink="http://www.w3.org/1999/xlink" xlink:href="#c" xlink:type="simple" xlink:actuate="onLoad" xlink:show="embed"/></g><g fill="#2F455C"><use x="47.769" y="45.836" xmlns:xlink="http://www.w3.org/1999/xlink" xlink:href="#d" xlink:type="simple" xlink:actuate="onLoad" xlink:show="embed"/></g><g fill="#2F455C"><use x="73.444" y="45.836" xmlns:xlink="http://www.w3.org/1999/xlink" xlink:href="#e" xlink:type="simple" xlink:actuate="onLoad" xlink:show="embed"/></g><g fill="#2F455C"><use x="95.361" y="45.836" xmlns:xlink="http://www.w3.org/1999/xlink" xlink:href="#f" xlink:type="simple" xlink:actuate="onLoad" xlink:show="embed"/></g><g fill="#038AAB"><use x="117.974" y="45.836" xmlns:xlink="http://www.w3.org/1999/xlink" xlink:href="#g" xlink:type="simple" xlink:actuate="onLoad" xlink:show="embed"/></g><g fill="#038AAB"><use x="140.072" y="45.836" xmlns:xlink="http://www.w3.org/1999/xlink" xlink:href="#h" xlink:type="simple" xlink:actuate="onLoad" xlink:show="embed"/></g><g fill="#038AAB"><use x="159.408" y="45.836" xmlns:xlink="http://www.w3.org/1999/xlink" xlink:href="#i" xlink:type="simple" xlink:actuate="onLoad" xlink:show="embed"/></g><g fill="#038AAB"><use x="167.684" y="45.836" xmlns:xlink="http://www.w3.org/1999/xlink" xlink:href="#i" xlink:type="simple" xlink:actuate="onLoad" xlink:show="embed"/></g><g fill="#038AAB"><use x="175.959" y="45.836" xmlns:xlink="http://www.w3.org/1999/xlink" xlink:href="#i" xlink:type="simple" xlink:actuate="onLoad" xlink:show="embed"/></g><g fill="#038AAB"><use x="184.235" y="45.836" xmlns:xlink="http://www.w3.org/1999/xlink" xlink:href="#i" xlink:type="simple" xlink:actuate="onLoad" xlink:show="embed"/></g><g fill="#038AAB"><use x="192.51" y="45.836" xmlns:xlink="http://www.w3.org/1999/xlink" xlink:href="#i" xlink:type="simple" xlink:actuate="onLoad" xlink:show="embed"/></g><g fill="#038AAB"><use x="200.786" y="45.836" xmlns:xlink="http://www.w3.org/1999/xlink" xlink:href="#i" xlink:type="simple" xlink:actuate="onLoad" xlink:show="embed"/></g><g fill="#038AAB"><use x="209.058" y="45.836" xmlns:xlink="http://www.w3.org/1999/xlink" xlink:href="#j" xlink:type="simple" xlink:actuate="onLoad" xlink:show="embed"/></g><g mask="url(#k)"><g><g clip-path="url(#l)" transform="translate(159 23)"><g clip-path="url(#m)"><path fill="#038AAB" d="M 0.878906 11.707031 C 0.878906 17.945312 5.96875 23.007812 12.242188 23.007812 C 20.761719 23.007812 33.339844 11.707031 33.339844 11.707031 C 33.339844 11.707031 20.761719 0.402344 12.242188 0.402344 C 5.96875 0.402344 0.878906 5.464844 0.878906 11.707031 Z M 16.296875 11.707031 C 16.296875 13.933594 14.480469 15.742188 12.242188 15.742188 C 10 15.742188 8.183594 13.933594 8.183594 11.707031 C 8.183594 9.476562 10 7.667969 12.242188 7.667969 C 14.480469 7.667969 16.296875 9.476562 16.296875 11.707031 Z M 16.296875 11.707031"/></g></g></g></g><g mask="url(#n)"><g><g clip-path="url(#o)" transform="translate(175 23)"><g clip-path="url(#p)"><path fill="#038AAB" d="M 33.203125 11.761719 C 33.203125 5.519531 28.117188 0.457031 21.84375 0.457031 C 13.324219 0.457031 0.746094 11.761719 0.746094 11.761719 C 0.746094 11.761719 13.324219 23.0625 21.84375 23.0625 C 28.117188 23.0625 33.203125 18 33.203125 11.761719 Z M 17.785156 11.761719 C 17.785156 9.53125 19.605469 7.722656 21.84375 7.722656 C 24.082031 7.722656 25.902344 9.53125 25.902344 11.761719 C 25.902344 13.988281 24.082031 15.796875 21.84375 15.796875 C 19.605469 15.796875 17.785156 13.988281 17.785156 11.761719 Z M 17.785156 11.761719"/></g></g></g></g></svg>