<svg xmlns="http://www.w3.org/2000/svg" viewBox="0 0 750 500"><defs><style>.cls-1{isolation:isolate;}.cls-2{fill:#fff;}.cls-3{fill:#ddd;}.cls-4{fill:#606060;}.cls-5{fill:#eccaad;}.cls-14,.cls-29,.cls-6,.cls-66{fill:none;}.cls-18,.cls-6{stroke:#fff;}.cls-18,.cls-29,.cls-6{stroke-linecap:round;stroke-linejoin:round;}.cls-6{stroke-dasharray:6.05 6.05;}.cls-7{fill:#482322;}.cls-10,.cls-8{fill:#aa9c99;}.cls-24,.cls-8,.cls-9{mix-blend-mode:multiply;}.cls-8,.cls-9{opacity:0.55;}.cls-11{fill:#a4a29f;}.cls-12{fill:#a5c9c9;}.cls-13{fill:#67a09f;}.cls-14{stroke:#2d2d2d;stroke-width:1.17px;}.cls-14,.cls-44,.cls-57,.cls-66{stroke-miterlimit:10;}.cls-15{fill:#2d2d2d;}.cls-16{fill:#526b4a;}.cls-17{fill:#e6c83a;}.cls-18{fill:#c84583;stroke-width:0.92px;}.cls-19{fill:#ffc49d;}.cls-20{fill:#9a5646;}.cls-21{fill:#d8a998;}.cls-22{fill:#33292a;}.cls-23{fill:#f8f5ec;}.cls-24{fill:#ff7e71;opacity:0.35;}.cls-25{fill:#603830;}.cls-26{fill:#287c78;}.cls-27{fill:#f6debf;}.cls-28{fill:#e2b17d;}.cls-29{stroke:#b2aaab;stroke-width:1.19px;}.cls-30{fill:#515151;}.cls-31{fill:#e8996d;}.cls-32{fill:#7f4438;}.cls-33{fill:#b2aaab;}.cls-34{fill:#aa845b;}.cls-35{fill:#fff2e3;}.cls-36{fill:#b7a99e;}.cls-37{fill:#472322;}.cls-38{fill:#e7745d;}.cls-39{fill:#211818;}.cls-40{fill:#ffe6cf;}.cls-41{fill:#58443b;}.cls-42{fill:#3a312c;}.cls-43,.cls-44{fill:#202222;}.cls-44{stroke:#202222;stroke-width:0.57px;}.cls-45{fill:#e0bfa6;}.cls-46{fill:#845252;}.cls-47{fill:#8e7565;}.cls-48{fill:#8c8c8c;}.cls-49{fill:#db9037;}.cls-50{fill:#dfa181;}.cls-51{fill:#efc52e;}.cls-52{fill:#b55e50;}.cls-53{fill:#1d6b67;}.cls-54{fill:#d17d61;}.cls-55{opacity:0.41;}.cls-56{fill:#70492b;}.cls-57,.cls-66{stroke:#000;}.cls-57{stroke-width:0.39px;}.cls-58{fill:#461a19;}.cls-59{fill:#001728;}.cls-60{fill:#00a4b8;}.cls-61{fill:#f5824b;}.cls-62{fill:#56362d;}.cls-63{fill:#009593;}.cls-64{fill:#036b66;}.cls-65{fill:#90cac9;}.cls-67{fill:#727272;}</style></defs><g class="cls-1"><g id="BACKGROUND"><rect class="cls-2" width="750" height="500"/></g><g id="OBJECTS"><path class="cls-3" d="M472.75,441.15c8.22,7.7-40.27,20.31-82.24,16s-118.66-1.23-122.09-14.28,95.07-13.51,119.91-13.51S456.47,425.92,472.75,441.15Z"/><path class="cls-3" d="M42.43,446.6c-.59,12.81,42.08,25.07,86,19.7s124-1.52,127.61-17.63S156.63,432,130.67,432,43.25,429,42.43,446.6Z"/><path class="cls-3" d="M695,445.27c8.47,9.51-41.49,25.07-84.75,19.7S488,463.45,484.42,447.33s98-16.66,123.57-16.66S678.2,426.47,695,445.27Z"/><path class="cls-4" d="M628.14,338.89a47.77,47.77,0,0,0,1.15-5c.32-1.81,1-5,0-6.15-.84-1-8.41-1.48-9.59-2,1-2.15-3.13-5.22-1.53-6.29.6-.4.95-2.35,1.57-2.31,1,.06,15.13,1.45,16.4,5.51.51,1.63-.39,8-.8,9.87-.49,2.16-1,4.31-1.61,6.44"/><path class="cls-4" d="M601.8,333.15a49.5,49.5,0,0,1,1.33-5c.56-1.73,1.3-3.26,2.66-3.68,1.85-.58,4.8-.27,6.71.12,6.62,1.34,7.26.88,10.58,1.69a3.25,3.25,0,0,0,1.42,0c.16-.12-.62-.46-.59-.66a19.27,19.27,0,0,0,.44-6.71,1,1,0,0,0-.18-.48c-.12-.12-.14-.67-.29-.71-4.36-1.22-9-1-13.38-2-2.76-.6-7-.47-9.23,1.67-1.18,1.12-2.25,4.36-2.74,6.16-.57,2.13-1.46,5.22-2,7.38"/><path class="cls-5" d="M555.77,438.63a23,23,0,0,0,5.79,1.22c15.45,1.71,30.73,4,46.13,6,8.2,1,16.43,1.85,24.71,2.36,6,.38,14.45.35,16.31-10.7,4.35-25.89,9.83-51.85,13.61-77.78.78-5.31.66-11.06-1.56-14.81s-6.19-4.76-9.87-5.4c-10.62-1.84-21.38-2.82-32.15-3.8-10.93-1-21-5.23-32-6.22-7-.63-21.34.11-23.92,15.45-2.79,16.56-17.6,79.17-11.84,89.6A8.89,8.89,0,0,0,555.77,438.63Z"/><path class="cls-6" d="M578.26,417.5a13.65,13.65,0,0,0,3.51.74c9.37,1,18.65,2.46,28,3.64,5,.63,10,1.12,15,1.44,3.64.22,8.77.21,9.9-6.5,2.64-15.7,6-31.45,8.25-47.18.48-3.22.41-6.71-.94-9s-3.76-2.89-6-3.28c-6.44-1.12-13-1.71-19.5-2.3s-12.76-3.17-19.39-3.78c-4.22-.38-12.94.07-14.51,9.37-1.69,10.05-10.67,48-7.18,54.35A5.38,5.38,0,0,0,578.26,417.5Z"/><path class="cls-7" d="M551,434.55c-1.73-3.14-1.59-11-.49-20.89a18.8,18.8,0,0,1,3.64,1.09,15,15,0,0,1,5.78,4.12c4,4.71,5.35,13.35,3.54,21.21l-1.93-.23a23,23,0,0,1-5.79-1.22A8.89,8.89,0,0,1,551,434.55Z"/><path class="cls-7" d="M580.69,341.3a24.21,24.21,0,0,1-4,6,16.66,16.66,0,0,1-6.81,4.17,24.08,24.08,0,0,1-8.5,1.33c.63-3.18,1.15-5.87,1.49-7.87,2.33-13.88,14.32-15.81,21.74-15.58A45.76,45.76,0,0,1,580.69,341.3Z"/><path class="cls-7" d="M636.77,432.38a24.69,24.69,0,0,1,11.36-11.66,19.92,19.92,0,0,1,3.77-1.32c-1.1,6-2.18,12.07-3.19,18.11-1.85,11-10.25,11.08-16.25,10.71.27-1.8.58-3.59,1-5.37A46.07,46.07,0,0,1,636.77,432.38Z"/><path class="cls-7" d="M647.42,339.18l0-.19c1.14.18,2.29.33,3.44.53,3.68.64,7.6,1.58,9.87,5.4s2.34,9.5,1.56,14.81c-.29,2-.62,4.07-.93,6.1a14.57,14.57,0,0,1-6.28-1.93c-4.52-2.68-8-8.53-8.31-15.77A54.33,54.33,0,0,1,647.42,339.18Z"/><path class="cls-8" d="M582.67,329.36c-7.37,1.11-12.79,7.26-13.65,12.37-2.79,16.56-17.6,79.17-11.84,89.6a8.89,8.89,0,0,0,4.75,4.08,22.89,22.89,0,0,0,5.79,1.22c15.45,1.71,31.82,3.32,47.21,5.27,8.21,1,20.77,2.81,31.48,1.68h0c-3.41,4.95-9.43,4.92-14,4.63-8.28-.51-16.51-1.33-24.71-2.36-15.4-2-30.68-4.29-46.13-6a23,23,0,0,1-5.79-1.22,8.89,8.89,0,0,1-4.75-4.08c-5.76-10.43,9.05-73,11.84-89.6C565,332.22,575.26,329.55,582.67,329.36Z"/><g class="cls-9"><path class="cls-10" d="M657.86,345.9c-7.44-1.34-15.07-1-22.57-2-7.85-1.06-15.63-2.61-23.49-3.68-7.44-1-14.9-1.92-22.35-2.89-3.69-.48-10.22-2.8-11.81,2.16-.41,1.28,1.63,2.19,2.22.93,1-2.25,3.32-1.47,5.31-1.16,3.38.53,6.8.89,10.2,1.31,7.16.89,14.32,1.75,21.45,2.82,13.56,2,27.18,4.83,40.95,3.2.33,0,.49-.57.09-.65Z"/></g><ellipse class="cls-4" cx="97.87" cy="448.79" rx="8.48" ry="9.34"/><path class="cls-11" d="M104,448.71c0,3.31-1.89,6-4.23,6s-4.22-2.68-4.22-6,1.89-6,4.22-6S104,445.39,104,448.71Z"/><path class="cls-4" d="M67,443.21c-1,4.59-5.2,7.62-9.37,6.75s-6.74-5.29-5.73-9.88,5.2-7.62,9.37-6.76S68,438.61,67,443.21Z"/><path class="cls-11" d="M64.48,442.6c-.64,2.95-2.76,5-4.72,4.61s-3-3.13-2.39-6.08,2.76-5,4.73-4.61S65.13,439.65,64.48,442.6Z"/><path class="cls-4" d="M117.94,254.4c-4.2-2.94-20.17-10.66-23.91-3.34-.8,1.57-.84,3.6-1.12,5.31l-1.11,6.9q-1.15,7.28-2.27,14.54c-2.59,16.92-5,33.87-7.54,50.8-.55,3.71-1.11,7.42-1.62,11.14-.42,3,4.48,3,4.89,0,3.5-25.46,6.89-50.92,10.77-76.32.35-2.29.7-4.59,1.06-6.88.28-1.75,0-3.88,2-4.33,2.2-.49,5.06.54,7.13,1.17,3.12,1,7.24,4.44,10.39,5.25,1.35.35,3.18-2.86,2.14-3.59Z"/><path class="cls-4" d="M111.89,255.83c1.37,2.19,4.22,3,6.51,4.08,1.19.57,3.16,1.21,4.1,2.19,1.11,1.16.64,3.27.48,4.81-1,9.07-1.88,18.15-2.9,27.22-1.19,10.56-2.51,21.1-3.74,31.66-.57,4.89-1.13,9.78-1.63,14.68-.23,2.34-.46,4.68-.66,7-.16,1.8.15,4.4-1.14,5.86a2.13,2.13,0,0,0,1,3.55c4.15,1.15,5.21-3.14,5.48-6.19.33-3.88.66-7.76,1.06-11.63,1-9.49,2.14-19,3.27-28.45,1.09-9.14,2.19-18.28,3.09-27.44.38-3.93.58-7.9,1.11-11.81.46-3.44,1.5-7.67,0-11-1.28-2.76-4.81-4-7.45-5.21-2.28-1-5-2.44-7.49-1.76a1.64,1.64,0,0,0-1,2.4Z"/><path class="cls-12" d="M137.55,341c2.5,8.44-7.15,99.36-16,104.81S54.17,439.71,47,434.36,58.66,330.83,68,328.45,136,335.86,137.55,341Z"/><path class="cls-13" d="M137.55,341c-.54-1.85-8.4-4.29-18.69-6.55h0c2.5,8.44-7.15,99.36-16,104.82-6.11,3.77-36.09-.63-56.32-5.47a1.87,1.87,0,0,0,.44.51c7.18,5.35,65.74,16.95,74.57,11.49S140.05,349.48,137.55,341Z"/><path class="cls-14" d="M129.25,337.09c.63,12.93-2.45,39.1-2.45,39.1"/><path class="cls-15" d="M69,342a315,315,0,0,1,40.26,8.09.46.46,0,0,0,.25-.88A213,213,0,0,0,69,341.71c-.21,0-.2.29,0,.32Z"/><path class="cls-15" d="M109.31,349.94a22.17,22.17,0,0,0-.47,2.43,4,4,0,0,0-.08,1.41c.14.69.92,1.3,1.6.86s.6-1.78.49-2.47-.48-2.15-1.34-2.48a.17.17,0,0,0-.21.16,3.56,3.56,0,0,0,.5,1.15,4.61,4.61,0,0,1,.42,2.22,3.31,3.31,0,0,1-.07.55c-.57,0-.82-.15-.77-.51a3.64,3.64,0,0,1,.11-1c.09-.76.16-1.52.18-2.29a.18.18,0,0,0-.36-.05Z"/><path class="cls-16" d="M100.71,406.48a.57.57,0,0,1-.18,0c-4.49-1.71-9.55-3.94-9.6-4a.49.49,0,0,1-.21-.72l8.35-12.85a.49.49,0,0,1,.41-.22l.17,0c.06,0,6.29,2.22,9.41,3a.5.5,0,0,1,.33.29.52.52,0,0,1,0,.44c-.06.09-5.43,9.37-8.25,13.78A.49.49,0,0,1,100.71,406.48Z"/><path class="cls-2" d="M99.48,389.19s6.28,2.21,9.46,3c0,0-5.39,9.31-8.23,13.76-4.53-1.72-9.58-3.95-9.58-3.95l8.35-12.85m0-1a1,1,0,0,0-.82.45l-8.35,12.86a1,1,0,0,0-.12.81,1,1,0,0,0,.54.62c.06,0,5.12,2.26,9.63,4a1,1,0,0,0,.35.06,1,1,0,0,0,.83-.45c2.82-4.41,8.2-13.7,8.25-13.8a1,1,0,0,0,.06-.87,1,1,0,0,0-.66-.57c-3.11-.81-9.32-3-9.38-3a1,1,0,0,0-.33-.06Z"/><path class="cls-17" d="M77.75,388.17a.34.34,0,0,1-.14,0L62,383.59a.5.5,0,0,1-.34-.35.49.49,0,0,1,.14-.47l10.33-9.94a.51.51,0,0,1,.34-.14h.12A.52.52,0,0,1,73,373l5.25,14.5a.52.52,0,0,1-.1.51A.51.51,0,0,1,77.75,388.17Z"/><path class="cls-2" d="M72.49,373.18l5.26,14.5-15.59-4.56,10.33-9.94m0-1a1,1,0,0,0-.68.27l-10.33,9.94a1,1,0,0,0,.41,1.66l15.58,4.56a1.35,1.35,0,0,0,.28,0,1,1,0,0,0,.92-1.32l-5.25-14.5a1,1,0,0,0-.7-.63.9.9,0,0,0-.23,0Z"/><path class="cls-18" d="M64.47,406.69c-.21,3.68,2.92,6.78,6.55,7.47a7.4,7.4,0,0,0,8.5-6.36,7.76,7.76,0,0,0-7.16-8.16,7.86,7.86,0,0,0-7.83,6.5A5.14,5.14,0,0,0,64.47,406.69Z"/><path d="M159.41,107.68s-7.29,8.94-8.81,14.77c-1.23,4.72-.54,12.91,17.36,1.93S159.41,107.68,159.41,107.68Z"/><path class="cls-19" d="M214.44,438.43l-17.29-4.13-8.24-7.91c2.29-4.3,1.16-14.56,1.25-15.11h0c.65-.43,14.22-9.28,14.22-3.67v0a155.55,155.55,0,0,0,1.23,18.79l6.39,4.76Z"/><polygon class="cls-19" points="209.19 321.16 208.39 326.7 205.2 391.38 204.4 407.6 204.4 407.62 190.18 411.27 190.16 411.28 189.57 394.47 186.98 320.36 209.19 321.16"/><path class="cls-20" d="M214.44,438.43l-17.29-4.13-9.28-3.64c2.3-4.3,2.2-18.83,2.29-19.38l-.59-16.81a10.75,10.75,0,0,1,1.06-.59c4.49-2.15,9.35.13,14.37.12l-.6,13.6v0a155.55,155.55,0,0,0,1.23,18.79l6.39,4.76Z"/><path class="cls-21" d="M184.61,440.4s-1.22,1-1.93,4.2a2.43,2.43,0,0,0,2.16,2.95c3.86.34,11.23.79,16.07-.16,6.81-1.35,7.71.89,16.31.8s17-.54,17.64-6.09L198.67,440Z"/><path class="cls-22" d="M184.27,442.21c-1.46-.18-.44-4-.24-4.8.61-2.39,1.06-5.32,2.78-7.2a5.66,5.66,0,0,1,4.64-1.91c2.41.25,4.23,2.22,5.92,4,1.34,1.37,3,2.9,5,3.13s2.76-2.19,2.72-3.93a18.61,18.61,0,0,1,0-3.73c.37-2.05,3.74-4.5,5.85-3.53a3.33,3.33,0,0,1,1.1.91c1.42,1.63,2.31,3.68,3.76,5.27,2.45,2.69,6.15,3.77,9.66,4.73l4.09,1.13a9.76,9.76,0,0,1,2.83,1.11c1.55,1,2.82,2.92,2.5,4.75C234.86,442.1,220.41,446.55,184.27,442.21Z"/><path class="cls-19" d="M174.73,434.32c-2,3.76-6.82.74-10,0l-8.24-7.91c2.3-4.3,1.17-14.56,1.27-15.12.66-.43,14.23-9.28,14.23-3.66a151.4,151.4,0,0,0,.91,16.21c.37,3.37,3.44,6,2.22,9.58A6.05,6.05,0,0,1,174.73,434.32Z"/><polygon class="cls-19" points="176.87 315.01 175.98 326.7 172.79 391.38 172 407.6 172 407.62 157.77 411.27 157.75 411.28 157.17 394.47 153.09 314.41 176.87 315.01"/><path class="cls-20" d="M175.73,435.18c-.59,1.18-1.82,1.6-3.74.92-2.33-.82-5-.9-7.25-1.8l-9.27-3.64c2.29-4.3,2.2-18.83,2.28-19.38l-.58-16.81a9.55,9.55,0,0,1,1.05-.59c4.49-2.15,9.51-.95,14.53-1,0,0-.75,14.68-.75,14.7,0,4.67.25,9.35.69,14a12.35,12.35,0,0,0,.7,4.18c1,2.12,2.26,3.37,2.63,5.92A6,6,0,0,1,175.73,435.18Z"/><path d="M213.08,260.17c.49,1,.12,3.81.22,5.57.43,7.05.73,13.9.77,21,0,2.87-.14,5.75-.3,8.62L212,327.77c-9.31-1-18.8,1.75-28,.22.42-5.58-.87-11.42-.52-17,.11-1.87.16-3.75.15-5.62,0-1.53-.07-3.05-.14-4.57,0-.79-.07-1.57-.11-2.35l0-.63a2.29,2.29,0,0,0,0-.59c-.15-.32-.33.13-.35.33-.08,1.28-.17,2.55-.27,3.83l-.33,3.8c-.1,1.24-.21,2.48-.31,3.72-.12,1.55-1.18,18.36-1.29,18.37-11,.92-22.34,1.31-33.15-.9-.42-5,.09-9.91-.37-14.85A206,206,0,0,1,148.53,262a2.66,2.66,0,0,1,.32-1.08c.52-.78,1.64-.8,2.58-.74,11.2.64,22.52-1.52,33.61.13a58.46,58.46,0,0,0,8.61,1.11c3.14,0,6.22-.79,9.36-1,2.47-.13,5.26-1.18,7.7-.52C212,260.26,212.77,259.55,213.08,260.17Z"/><path class="cls-19" d="M205.63,149.23c.13,0,.19.19.09.27a.42.42,0,0,1-.38,0c-3.05-.63-6.24-1.34-8.57-3.39a12.27,12.27,0,0,1-3.61-6.72,36.15,36.15,0,0,1-.5-7.72c-.75-1.28-2.18-1.6-3.6-2-2.07-.59-4.14-.92-6.2-1.52-1.11-.32-5.47-2.09-6.06-.72a2.85,2.85,0,0,0-.13,1.16,44.28,44.28,0,0,1-.89,9.68c-.51,2.51-.35,5.31-2.47,7.16a8.22,8.22,0,0,1-2.82,1.49,22.87,22.87,0,0,1-7.1,1.22c-.21,6.09,3.82,12.07,9.08,15.14s11.68,3.68,17.7,2.78c4.27-.64,8.57-2.1,11.71-5.06S207.05,153.31,205.63,149.23Z"/><path class="cls-20" d="M206.12,150a25,25,0,0,1,5.84,4.9,41,41,0,0,1,5,9c1.36,3,2.9,6.79,1.15,9.95-1.6,2.88-4.92,4.65-4.82,8.45.09,3.59,1.42,7.39,1.83,11,1,9,0,18.23.31,27.25.39,11.5-.21,23,.84,34.46a6.8,6.8,0,0,1-1,4.74,8,8,0,0,1-3.28,2.2,36.58,36.58,0,0,1-22.48,2c-3.78-.87-7.24-3.8-11.1-4.18-5.77-.57-11.65,2.81-17.41,3.51-3.25.39-8.17,1-11.3-.23s-2.23-6.05-2.31-8.78a127.72,127.72,0,0,1,1-23.86c1-6.06,2.65-12,3.47-18.08S154,199.74,147.57,197a55.9,55.9,0,0,1-8.3-4.42,2.59,2.59,0,0,1-1.43-3.08,90.6,90.6,0,0,1,7.93-29.43,32.12,32.12,0,0,1,4-6.87,26.23,26.23,0,0,1,11.37-7.67,52.49,52.49,0,0,1,8.56-2.21c1.44-.27,2.91-.61,4.36-.78.85-.09.76-.19,1.18.4s.58,1.51,1,2.15a12.16,12.16,0,0,0,10.21,5.42,11.19,11.19,0,0,0,6.39-1.73,4.67,4.67,0,0,0,1.92-2.5c.44-1.54.1-2.34-.7-4,3.16,1.86,6.5,3.8,9.46,5.95C204.38,148.82,205.26,149.4,206.12,150Z"/><path class="cls-13" d="M174.22,109s1,.81,1.8,3.69c1.38-5,2-15.08,2.34-17.5,5.07.52,17,4.36,19.11,2.94,5.32,1.21,11.21.79,13.16-4.4a17,17,0,0,0-.42-11.63A7.34,7.34,0,0,0,206,77.66c-1.34-.41-2.81-.24-3.44,1.15a2.73,2.73,0,0,0-.19.57s3.4.44,2.29,2.25c-.61,1-4-.81-3-3.35a2.9,2.9,0,0,0-.26,3.53c-1.15.55-3.47-1.18-5.29-2.15s-5.59-1.55-9.78-.07c-1.77-2.53-13.8-4.41-18.66,5.11-1.05,1.74-6.14.16-8.58,8.33s-2.17,29.19,12.8,31.61c4.23.41,7.82-2.89,7.82-2.89l-3.57-4.64Z"/><path class="cls-13" d="M208.56,96.73c-3.23,4-14,4.38-21.17.19-3.21-1.74-8.1-2.63-8.95,2.07-.29,1.79,0,15.92-5.36,13.73s-4.63-11.24-4.63-11.24,1.73-7.11,1.88-7.88,8.59-6.6,8.59-6.6l9-1.6,7.17-.08L207.7,96.55S208.71,96.54,208.56,96.73Z"/><path class="cls-19" d="M206.19,115.41c-.12,1.25-.29,2.48-.52,3.69-.19,1-.43,2-.71,3,0,0,0,.06,0,.09-2,6.7-7.22,12.92-14.14,13.93a16,16,0,0,1-12.62-3.84,17.22,17.22,0,0,1-3-3.85q-1.26-2.09-2.31-4.29c-.65-1.38-.45-2-2.06-2.38a10.17,10.17,0,0,1-6.09-4.5,8.42,8.42,0,0,1-1.58-4.56,4.47,4.47,0,0,1,2.28-4,3.11,3.11,0,0,1,4.15,1.37,23.89,23.89,0,0,1,7.56-17.26c4.81-4.3,11.9-6.14,18-4.14,5.3,1.73,10.15,6.8,10.73,12.5A73.31,73.31,0,0,1,206.19,115.41Z"/><path class="cls-23" d="M191.38,130.73c-2-.24-4.54-3.13-3.42-5.09a1,1,0,0,1,.44-.45,1.31,1.31,0,0,1,.76,0c1,.16,2,.33,3,.45,2.68.32,4.35.24,4.21,1.38S194.05,131,191.38,130.73Z"/><path class="cls-24" d="M184.78,116.7c-.07,1.14-2,2-4.24,1.81s-4-1.16-4-2.3,2-1.94,4.23-1.8S184.84,115.57,184.78,116.7Z"/><path class="cls-24" d="M198.52,120.08c-.06,1.14,1.72,2.17,4,2.31a7.68,7.68,0,0,0,2.43-.24s0-.06,0-.09c.28-1,.52-2,.71-3a6.63,6.63,0,0,0-2.92-.81C200.49,118.14,198.59,119,198.52,120.08Z"/><path class="cls-25" d="M194.46,109.88a16.79,16.79,0,0,0,.17,2.25c.11.75.29,1.48.46,2.22a38.36,38.36,0,0,0,1.37,4.3l.08.2-.2.08c-.54.24-1.09.47-1.61.76-.26.15-.52.3-.76.47a1.2,1.2,0,0,0-.53.68,1.12,1.12,0,0,1,.42-.8,4.52,4.52,0,0,1,.72-.59,12,12,0,0,1,1.59-.92l-.12.29a23,23,0,0,1-1.39-4.38A12.51,12.51,0,0,1,194.46,109.88Z"/><path class="cls-13" d="M204.13,96.71c-2.43,3.91-11.66,4.7-18.38,1.75-3-1.2-7.41-1.48-7.67,2.75-.07,1.61,1.62,14-3.29,12.66s-8.47-9-8.47-9,4-6.83,4.06-7.52,6.88-6.71,6.88-6.71L185,88.25l11.05-3.44,9.52,6.56S204.24,96.53,204.13,96.71Z"/><path class="cls-26" d="M181,96.34c3.16.83,5.75,2.86,8.81,3.92a14,14,0,0,0,8.58,0c3.75-1.1,8.63-4.82,5.73-9.13a.19.19,0,0,0-.33.19c3.28,6.29-6,9.39-10.61,9.14s-7.89-3.35-12.13-4.33a.09.09,0,0,0,0,.17Z"/><path class="cls-26" d="M199.71,78.17a8.92,8.92,0,0,1,9.74,5.62c1.37,3.75.17,10.61-5,10.21-.18,0-.23.29,0,.32,4.9.78,6.54-5.34,5.85-9.14a9.14,9.14,0,0,0-10.59-7.29c-.16,0-.13.3,0,.28Z"/><path class="cls-26" d="M203.46,79.93c3.92,2.19,5.33,6.23,4.33,10.51a.1.1,0,0,0,.19,0,9,9,0,0,0-4.33-10.88c-.21-.11-.4.2-.19.32Z"/><path class="cls-26" d="M183.3,94.53c4,1.94,8.45,3.16,12.87,2,2.74-.69,6.89-2.71,6.09-6.14,0-.15-.28-.12-.27,0,.45,4.21-5.4,5.93-8.64,6.11a21.22,21.22,0,0,1-9.9-2.31c-.18-.09-.33.18-.15.26Z"/><path class="cls-26" d="M175.46,100.7c-1.1,4.19,2,9.11-1.53,12.78-.07.08,0,.23.12.15,4-3,.77-9,1.74-12.84.06-.21-.28-.31-.33-.09Z"/><path class="cls-26" d="M173.3,103.36c.38,2.81.69,5.66-.81,8.21,0,.07.07.13.11.07,1.67-2.54,1.34-5.47.91-8.34,0-.14-.23-.08-.21.06Z"/><path class="cls-26" d="M159.4,108.87a44.63,44.63,0,0,0,1.65,5,9.31,9.31,0,0,0,2.16,3.79.12.12,0,0,0,.17-.18c-1.92-2.27-2.79-5.92-3.57-8.74a.21.21,0,0,0-.41.11Z"/><path d="M199.51,108.18a3,3,0,0,1,2.67-.61,21.08,21.08,0,0,1,2.17,1.25c.4.17,1-.22.67-.67-1.34-1.94-4.45-2.63-6.16-.81-.41.42.13,1.2.65.84Z"/><path d="M188.12,107.07c-1.7-2.13-6.58-1.86-8.28.13-.3.36,0,1.07.51.87a11.52,11.52,0,0,1,3.64-1.18c1.4-.06,2.46.54,3.77.8a.37.37,0,0,0,.36-.62Z"/><path d="M169.65,110s2.8.31,7.22,8.84a5.79,5.79,0,0,1-1.88.43s-2.46-5.33-3.54-7C171,111.57,169.65,110,169.65,110Z"/><path d="M176.43,127l-5.61-5.3-3.45-1.6s7.36,8,9.13,9.59A17.09,17.09,0,0,1,176.43,127Z"/><path d="M206,118.33c-.14.54-.27,1.08-.42,1.62-.33,1.25-.7,2.49-1.14,3.71-2.46,7-7.73,12.43-14.42,13.35-5.42.36-11.46-3-14.61-8.11-.14-.21-.26-.41-.38-.62l0,0c-.31-.53-.6-1.09-.88-1.63-.34-.69-.67-1.37-1-2.06-.2-.42-.89-1.5-.84-2v0a4.51,4.51,0,0,1,.19-.73l1.82-4,.14-.06c.19-.1.56-.26,1.09-.47C179.37,115.79,192.85,112.4,206,118.33Z"/><path class="cls-27" d="M130.92,237.5a5.47,5.47,0,0,1-.12-1c-.06-2.71,2-5.21,4-7.26,2.42-2.53,4.89-5.1,8-6.69,5.77-2.94,12.68-2,19.06-.89,1.48.25,3,.52,4.4.9a18.48,18.48,0,0,1,4.71,1.85,17.78,17.78,0,0,1,7.1,8.71,39.7,39.7,0,0,1,2.42,11.12,155.85,155.85,0,0,1,.35,22,2.81,2.81,0,0,1-1.47,2.85l-4.26,3a14.13,14.13,0,0,1-3.54,2.05,7.56,7.56,0,0,1-1.48.34,21.38,21.38,0,0,1-3.3.12L138,274.24a6.64,6.64,0,0,1-3.16-.57c-1.93-1.05-2.33-3.59-2.52-5.78q-.63-7.25-1.25-14.5a85.74,85.74,0,0,1-.38-16.33,4.81,4.81,0,0,1,.07-.53c.29-2.05,1.08-4.31,3.06-4.78"/><path class="cls-28" d="M180.83,266.31a2.81,2.81,0,0,1-1.47,2.85l-4.26,3a14.13,14.13,0,0,1-3.54,2.05,7.56,7.56,0,0,1-1.48.34c1-13.87,1.7-27.84,0-41.62a28.15,28.15,0,0,0-1.26-5.91c-.54-1.5-2-3-2.54-4.46a18.48,18.48,0,0,1,4.71,1.85,17.78,17.78,0,0,1,7.1,8.71,39.7,39.7,0,0,1,2.42,11.12A155.85,155.85,0,0,1,180.83,266.31Z"/><path class="cls-29" d="M166.61,238.22c-.13,0,0-.23.11-.15s.06.24,0,.35a6.46,6.46,0,0,1-5.27,3.65,3.42,3.42,0,0,1-2.7-.81,4.58,4.58,0,0,1-.91-3.3c0-1.71.16-3.69,1.56-4.67.3,1.19,1.23,1.38,2.3,2C163.45,236.23,164.87,237.25,166.61,238.22Z"/><path d="M166.66,238.81c8.2-12.46,13.8-26.44,21.56-39.17,1.79-2.94,3.68-5.8,5.51-8.7,6.89-10.95,13.38-23.12,19.23-34.65a11.7,11.7,0,0,0-2.71-5.06,6.86,6.86,0,0,0-5.63-2.34l-3.15,6c-8.09,15.33-19.81,28.28-27.42,44-5.49,11.36-9.41,23.54-16.18,34.19C161.5,234.56,163.45,236.53,166.66,238.81Z"/><path class="cls-30" d="M181.79,184.19c4,2.64,7.92,5.33,12,7.81.7.43,1.27-.78.44-1.06l-.4-.14a.35.35,0,0,0-.42.43l.11.42,1-.56a72.61,72.61,0,0,0-12.2-7.69.46.46,0,0,0-.47.79Z"/><path class="cls-12" d="M253.17,169l-9-4.47-19.91-1.11-16.38-3.19s-8.19,48.34-9.72,54.52c5.66,3.8,16,6.58,16,6.58l19.7-1.54,9.53,2.78s4.69-29.8,5.36-33.27S253.17,169,253.17,169Z"/><path class="cls-2" d="M243.57,164.75a253.25,253.25,0,0,0-10.15,55.06c0,.53.81.54.83,0a202.34,202.34,0,0,1,3.6-29.53q1.29-6.66,3.12-13.19c1.12-4,3.05-8.12,2.67-12.34a0,0,0,0,0-.07,0Z"/><path class="cls-2" d="M223.47,161.89c-2.88,9.86-4.18,20.38-5.77,30.5-1.5,9.6-3.06,19.26-3.71,29,0,.49.68.46.74,0,1.34-10.24,2.25-20.51,3.88-30.72,1.53-9.58,4-19,5.35-28.61,0-.32-.4-.46-.49-.14Z"/><path class="cls-30" d="M185.12,178.69c3.77,2.52,8.92,3.5,13.21,4.8a.65.65,0,0,0,.35-1.26c-4.32-1.44-9-2.39-13.14-4.26a.42.42,0,0,0-.42.72Z"/><path class="cls-19" d="M240,197.82A20.89,20.89,0,0,0,244,200.7c1.69.86,3.19,1.27,4.73,0,3.58-3,5.14-7,5.64-11.52.28-2.59,0-4-1.62-6a22.78,22.78,0,0,0-5.9-4.89,11.24,11.24,0,0,0-4.72-1.84c-.94-.08-2.15.31-2.17,1.25a2,2,0,0,0,.87,1.41l3.67,3.32a14.21,14.21,0,0,0-5.94-1.62,2.85,2.85,0,0,0-1.3.17,1.1,1.1,0,0,0-.69,1,1.64,1.64,0,0,0,.66,1l2.82,2.55c-1,0-2-.31-3-.22s-2.06.79-2,1.79a2.75,2.75,0,0,0,1.32,1.9c1.15.92,2.34,1.81,3.44,2.77-1.18-.38-4.11-1.6-4.31.5S238.68,196.65,240,197.82Z"/><path class="cls-31" d="M239.37,191.64a2.11,2.11,0,0,0,1.28,1.2,19,19,0,0,1,2,1.15c.86.56,2.38,1.78,3.48,1.65.12,0,.23-.18.11-.28a26.54,26.54,0,0,0-3.05-1.8c-1.19-.75-2.45-1.32-3.63-2.07a.14.14,0,0,0-.2.15Z"/><path class="cls-31" d="M241,186c.93.83,2,1.51,3,2.27a18.4,18.4,0,0,0,3.3,2.42c.12.06.29-.06.2-.2a10.87,10.87,0,0,0-2.62-2.39,23.18,23.18,0,0,0-3.58-2.46c-.22-.11-.48.18-.28.36Z"/><path class="cls-31" d="M244.07,182.22a13,13,0,0,0,2.92,2.66c1,.85,2.06,1.66,3.13,2.44.1.08.25-.07.17-.17a16.66,16.66,0,0,0-2.89-2.67,27.18,27.18,0,0,0-3.11-2.47c-.14-.08-.31.08-.22.21Z"/><path class="cls-19" d="M224.24,186.92a3.41,3.41,0,0,1-.12,1.52c-.3,1-1,1.5-1.48,2.34a8,8,0,0,0-.34,2,6.25,6.25,0,0,1-1.54,2.83c-.3.31-1,.67-1.19,1-.07.14.06.6,0,.79a2.83,2.83,0,0,1-.4.95,15.47,15.47,0,0,1-5.06,4.86A31.2,31.2,0,0,1,211,205a11.85,11.85,0,0,1-2.83.7,26.67,26.67,0,0,1-6.91.46c-2.09,0-4.44-.1-6.27,1.06-3.58,2.27-6.84,5.12-10.47,7.38l-19,11.87A83,83,0,0,1,153,233.32c-2.05.82-4.34,1.49-6.43.79a7.1,7.1,0,0,1-4-4,18.83,18.83,0,0,1-1.2-5.71,123.81,123.81,0,0,1,0-23.42c.15-1.64,0-4.51.29-6.07,0-.29-.05-.86,0-1l.51.58.08,0,.13.06.22.1,1.34.62h0l2.85,1.41c3.59,1.76,9,3.72,12.62,5.48,0,.39-.38,8.44,1.5,7.33,2.86-1.71,6.06-2.24,9.12-3.44,4-1.58,7.8-3.69,11.65-5.62s8.15-3.08,11.41-6a18.07,18.07,0,0,0,3.41-4.82c1.25-2.24,2.58-4.42,3.89-6.62a14,14,0,0,1,3.72-4.72,1.82,1.82,0,0,1,.95-.4,1.4,1.4,0,0,1,1.27,1.26,4.09,4.09,0,0,1-.35,1.9l-1.35,3.84c-.11.32-.21.71,0,1a.88.88,0,0,0,.61.22c5.62.56,10.83-2.57,16-4.86a3.36,3.36,0,0,1,1.44-.38,2.07,2.07,0,0,1,1.82,1.84c.14,1.09-.95,2-.79,2.85C223.7,186,224.16,186.42,224.24,186.92Z"/><path class="cls-31" d="M223.56,184.76c-2.41.89-4.7,2.21-7.1,3.16-2.22.88-4.56,1.57-6.7,2.61-.24.11-.07.49.18.42a78.31,78.31,0,0,0,7.67-2.82c2-.8,4.54-1.55,6.14-3,.14-.13,0-.4-.19-.33Z"/><path class="cls-31" d="M222.36,190.76c-1.92.68-3.69,1.74-5.57,2.55a47.58,47.58,0,0,1-7.27,2.21.19.19,0,0,0,0,.38c4.27,0,9.51-2.31,13-4.73.2-.13.09-.51-.17-.41Z"/><path class="cls-31" d="M219.36,197.18c-3.41,2-7.81,4-11.86,4.11a.23.23,0,0,0,0,.46c2.33.21,4.84-.86,7-1.53,1.84-.57,3.85-1.23,5-2.84.1-.12-.08-.27-.2-.2Z"/><path class="cls-32" d="M160.33,201.3c.66-.6.67-3.41.86-4.37.3-1.56.62-3.12,1-4.67.65-3,1.45-5.88,2-8.85a.29.29,0,0,0-.55-.15,71.38,71.38,0,0,0-2.95,11.07c-.38,1.87-.73,3.75-1,5.64-.1.65-.32,1.27.06,1.84a.41.41,0,0,0,.55.14l.2-.12a.27.27,0,0,0,.11-.29l0-.19a.13.13,0,0,0-.22,0Z"/><path class="cls-21" d="M134.39,449.77a4,4,0,0,0-1.34,3.81c.62,2.21,7.69,6.4,15.23,6.31s12.56-7.29,16.07-9.59,10.46-3.26,12.24-5.61,4-6.24,1.43-10l-23.75,10.69Z"/><path class="cls-22" d="M174.65,426.61a4.46,4.46,0,0,0-1.31-.13,1.38,1.38,0,0,0-.82.26c-1.5,1.28-1.37,3.44-2.56,4.86a2.34,2.34,0,0,1-1.94.87,2.84,2.84,0,0,1-2.11-1.8c-1.25-2.78.58-5.73-1.58-8.13a7.24,7.24,0,0,0-3.68-2.12,6.13,6.13,0,0,0-3.6.06c-2.17.8-2.4,2.72-2.72,4.73-.58,3.69-2.15,6.73-3.89,10-1.37,2.58-3.75,4.28-6,6.12A60.37,60.37,0,0,1,138,446.1a12.23,12.23,0,0,0-3.47,2.64,3.3,3.3,0,0,0-.19,4s9.63,6.65,17.47,3.57,8.32-9,13.89-11.11c2-.75,4-1.83,6-2.45a11.59,11.59,0,0,0,5.22-2.65,5,5,0,0,0,1.29-1.87,7,7,0,0,0,.23-2.63l-.1-2.19c-.08-1.9-.22-4-1.45-5.43A4.47,4.47,0,0,0,174.65,426.61Z"/><path class="cls-33" d="M151.36,323.17a32.15,32.15,0,0,1,5.64.38,50.44,50.44,0,0,0,8.33.7c2.85.05,5.73-.16,8.56-.36a56,56,0,0,1,7-.05,1.05,1.05,0,0,1,.65.18,1.14,1.14,0,0,1,.28,1,37.76,37.76,0,0,1-.5,4.86,1.15,1.15,0,0,1-1,.93,96.55,96.55,0,0,1-33.9-.78,2.41,2.41,0,0,1-1.11-.44c-.64-.57-.47-1.59-.25-2.42.31-1.17-.24-3.74.91-4.21C146.94,322.53,150.27,323.17,151.36,323.17Z"/><path class="cls-33" d="M188.23,323.54a124.88,124.88,0,0,1,13,0c4,.28,7.71-.37,11.76-.25a.87.87,0,0,1,.56.16,1.31,1.31,0,0,1,.26.95,44.32,44.32,0,0,1-.21,4.61,1.5,1.5,0,0,1-1.17,1.31,68.15,68.15,0,0,1-28,.16,1.84,1.84,0,0,1-1-.41,2.82,2.82,0,0,1-.3-2.41c.22-1.18.26-3.71,1.2-4.22C185.08,323,187.32,323.57,188.23,323.54Z"/><path d="M167.62,77.22a1.72,1.72,0,1,1-1.9-1.55A1.73,1.73,0,0,1,167.62,77.22Z"/><path d="M165.88,77.76c-5.81,4.81-15.83,17.64-7.09,32.83,0,0,35-25.3,41-28.93C196.26,76.86,182.81,68,165.88,77.76Zm14.67,14.81a5.55,5.55,0,0,1,1.9-8.34c4.06-2.43,7.48,1.49,7.48,1.49Z"/><path class="cls-34" d="M131.57,237.4c1.56,7.89,8.9,12.85,16.5,13.83a24,24,0,0,0,12.36-1.38c4.11-1.78,6.41-5.36,8.41-9.2.31-.61-.61-1.15-.92-.54-1.76,3.39-3.72,6.72-7.27,8.48a22.24,22.24,0,0,1-11.73,1.74c-7.79-.72-14.66-5.35-16.79-13.08a.29.29,0,0,0-.56.15Z"/><path class="cls-34" d="M133.63,237.13c.84.73,1.67.57,2.76.55,2.11-.05,4.21-.15,6.32-.19s4.21,0,6.31,0c1.94,0,4,.34,5.9-.11a.27.27,0,0,0,0-.51c-3.22-1-7.39-.45-10.76-.41s-7,.66-10.41.39a.17.17,0,0,0-.12.29Z"/><path class="cls-34" d="M147.87,248.13a4.49,4.49,0,0,0-1,3.28,23.88,23.88,0,0,0,.24,3.59c.19,1.31.78,2.89,2.1,3s2.1-1.08,2.46-2.22c.76-2.43.22-5.05-.32-7.54a.89.89,0,0,0-.23-.5.87.87,0,0,0-.47-.15c-1-.1-2.24-.11-2.79.75"/><path class="cls-33" d="M169.88,278.51c-1.55,4-3.47,7.54-7.39,9.61-3.05,1.61-6.49,2.09-9.83,2.79-.62.13-.5,1.21.15,1.13,8.13-1.05,16.08-4.42,17.93-13.29a.45.45,0,0,0-.86-.24Z"/><path class="cls-33" d="M210.44,266.75a8.12,8.12,0,0,0,.18,4,.17.17,0,0,0,.29,0,8,8,0,0,0,.18-4c0-.32-.61-.32-.65,0Z"/><path class="cls-33" d="M210.49,273c-.32.93-.71,2.23-.19,3.15a.19.19,0,0,0,.33,0,3.51,3.51,0,0,0,.25-1.28,10.81,10.81,0,0,1,.27-1.69.34.34,0,0,0-.66-.18Z"/><path class="cls-33" d="M210.33,279.63a11,11,0,0,0,.17,2.15.28.28,0,0,0,.54,0,11,11,0,0,0,.17-2.15.44.44,0,0,0-.88,0Z"/><path class="cls-33" d="M210.5,285a9.47,9.47,0,0,0,.13,3.6.15.15,0,0,0,.28,0A9.9,9.9,0,0,0,211,285a.27.27,0,0,0-.54,0Z"/><path class="cls-33" d="M210.17,290.33a5.81,5.81,0,0,0,.16,2.42.15.15,0,0,0,.28,0,5.81,5.81,0,0,0,.16-2.42.3.3,0,0,0-.6,0Z"/><path class="cls-33" d="M209.82,295.68a9.38,9.38,0,0,0,.15,3.62.21.21,0,0,0,.4,0,9.38,9.38,0,0,0,.16-3.62.36.36,0,0,0-.71,0Z"/><path class="cls-33" d="M209.85,302.22a7.32,7.32,0,0,0,.18,2.72.15.15,0,0,0,.29,0,7.54,7.54,0,0,0,.17-2.72.32.32,0,0,0-.64,0Z"/><path class="cls-33" d="M209.74,308.05a7,7,0,0,0,0,3.73.18.18,0,0,0,.36,0,17.59,17.59,0,0,1,.41-3.47.39.39,0,0,0-.75-.21Z"/><path class="cls-33" d="M209.58,315c-.05.54-.09,1.08-.09,1.63a12.84,12.84,0,0,0,.17,1.64.22.22,0,0,0,.43,0,12.84,12.84,0,0,0,.17-1.64c0-.55,0-1.08-.09-1.63a.3.3,0,0,0-.59,0Z"/><path class="cls-33" d="M210.15,321.46a4.79,4.79,0,0,0,.14,1.92.19.19,0,0,0,.36,0,4.79,4.79,0,0,0,.14-1.92c0-.32-.6-.32-.64,0Z"/><path class="cls-33" d="M149.26,275.32a5,5,0,0,0,.11,2.21.17.17,0,0,0,.33,0,5.16,5.16,0,0,0,.1-2.21.28.28,0,0,0-.54,0Z"/><path class="cls-33" d="M149.2,281.34a5.27,5.27,0,0,0-.14,2.2.19.19,0,0,0,.35,0,6.9,6.9,0,0,0,.35-2.17c0-.32-.49-.39-.56-.07Z"/><path class="cls-33" d="M149,288a4.84,4.84,0,0,0,.11,1.52.12.12,0,0,0,.24,0,4.56,4.56,0,0,0,.12-1.52.24.24,0,0,0-.47,0Z"/><path class="cls-33" d="M149.19,293.6a6.68,6.68,0,0,0,.12,2.14.22.22,0,0,0,.42,0,6.4,6.4,0,0,0,.11-2.14.33.33,0,0,0-.65,0Z"/><path class="cls-33" d="M149.47,300.14a17.78,17.78,0,0,0,.2,3,.15.15,0,0,0,.29,0,17.78,17.78,0,0,0,.21-3,.35.35,0,0,0-.7,0Z"/><path class="cls-33" d="M150,306.38c0,.89.16,1.79.26,2.68a.18.18,0,0,0,.36,0c.07-.89-.05-1.79-.06-2.68a.28.28,0,0,0-.56,0Z"/><path class="cls-33" d="M149.78,312.64a15.37,15.37,0,0,0,.49,3,.18.18,0,0,0,.35,0,14,14,0,0,0-.28-3c0-.35-.6-.36-.56,0Z"/><path class="cls-33" d="M150.36,318.87a9.78,9.78,0,0,0,.21,3,.15.15,0,0,0,.28,0,10.13,10.13,0,0,0,.21-3,.35.35,0,0,0-.7,0Z"/><ellipse cx="185.71" cy="112.37" rx="1.54" ry="2.38"/><ellipse class="cls-2" cx="186.27" cy="113.1" rx="0.69" ry="0.81"/><ellipse cx="200.77" cy="113.51" rx="1.57" ry="2.43"/><ellipse class="cls-2" cx="201.38" cy="114.28" rx="0.7" ry="0.82"/><path class="cls-32" d="M173.08,146.63c0,5.25,7.4,7.42,11.56,7.55,5.12.16,11.43-2.35,14-7.08a.42.42,0,0,0-.66-.5c-3.44,3.29-6.61,6-11.6,6.36-4.51.35-11.51-1.33-12.71-6.4a.28.28,0,0,0-.55.07Z"/><path class="cls-35" d="M168.8,114.17a1.05,1.05,0,0,0-1.39-.78.33.33,0,0,0-.24.24,5,5,0,0,0,.09,2.68.34.34,0,0,0,.42.24,1.81,1.81,0,0,0,.09-3.58.37.37,0,0,0-.44.25,2.48,2.48,0,0,0,.72,2.57.35.35,0,0,0,.55-.07,1.68,1.68,0,0,0-.6-2.42.36.36,0,0,0-.48.12,2,2,0,0,0,0,2.63.36.36,0,0,0,.61,0,1.85,1.85,0,0,0-.62-2.84.36.36,0,0,0-.43.06,2,2,0,0,0,.72,3.28.37.37,0,0,0,.48-.13,2.19,2.19,0,0,0-.72-3.11.36.36,0,0,0-.49.13c-1.29,3,2.68,4,3.81,6.11,2.36,4.4-.89,9.15-2.4,13.19-3,8-.45,16.55,1.08,24.61a32.44,32.44,0,0,1,.85,7.4c-.11,2.46-1,4.36-1.91,6.58a25.07,25.07,0,0,0-1.52,12.4c.74,8,2.57,16.56-2.48,23.67-.34.47.44.92.77.45,4.25-6,3.94-13.58,3-20.49-.61-4.71-1.16-9.56.41-14.15.71-2.09,1.86-4,2.32-6.17a17.64,17.64,0,0,0,.06-5.8c-1.14-9.05-5.05-18.37-2.07-27.46,1.19-3.65,3.56-7,3.45-11a8.08,8.08,0,0,0-.89-3.64c-.3-.56-3.63-4.06-4.07-3.45h.61l.13-1.29c.14.3.65.08.53-.23Z"/><path class="cls-35" d="M165.71,207.49c3.49-6.32,6.77-13.39,7.45-20.66.41-4.31.19-8.78,2.5-12.63,2.07-3.45,5.49-5.8,8.31-8.58,5.77-5.69,9-13.72,12.65-20.8,3.78-7.27,8.48-15,9.19-23.36a.35.35,0,0,0-.69-.09c-1.5,9-5.88,16.77-10,24.76-3.86,7.46-7.24,15.08-13.56,20.82-2.51,2.28-5.19,4.53-6.8,7.57s-1.81,6.46-2,9.8c-.49,8.22-3.54,15.74-7.4,22.94-.13.25.24.47.38.23Z"/><path class="cls-33" d="M184.37,268.21c-1,6.56-.85,13.4-1.12,20a.4.4,0,0,0,.41.4c3.42-.18,4.49-5.3,4.61-8,.25-5.35.73-10.66,1.44-16l-.77-.11c-.06.73-.17,1.44-.2,2.17,0,.38.62.48.67.09.11-.75.25-1.5.31-2.26,0-.43-.7-.54-.76-.1q-.63,4.57-1,9.18c-.3,3.33.16,7.57-1.11,10.65-.42,1-2.79,4.77-2.66,1.92.08-2,.18-4,.25-6a111.63,111.63,0,0,0,.23-12c0-.14-.24-.2-.26,0Z"/><path class="cls-36" d="M153.89,439.7c-3.41-1.09-9.79-3.76-10.33-7.75q-.94-2.68,3.14-2.14a7.19,7.19,0,0,1,1.74,1.46,16.75,16.75,0,0,1,1.93,2.51,25.58,25.58,0,0,1,2.84,5.74.35.35,0,0,0,.67-.19,13.45,13.45,0,0,1,.55-6.42c.3-.86,1.52-4.44,3.51-2.58a4.63,4.63,0,0,1,.82,2,6.93,6.93,0,0,1-4,7.69c-.42.18,0,.81.37.62,3.91-1.75,5.89-7.3,3.21-10.93-1.31-1.77-2.54-1-3.53.62a13.75,13.75,0,0,0-1.63,9.15l.67-.19c-.91-2.57-6.39-14.34-10.56-9.85-1.71,1.83-.23,4.37,1.24,5.76a23,23,0,0,0,9.19,5c.33.1.46-.4.14-.51Z"/><path class="cls-36" d="M212.82,434.08c-.16-2-.25-4-.24-6,0-1.52-.39-5,.43-6.35q3.38-.82,3.37,1.49a4.51,4.51,0,0,1,.1,1.51,9.94,9.94,0,0,1-1,3.65,28,28,0,0,1-3.13,4.87l.53.23a9.49,9.49,0,0,1,2.39-3.71,8.41,8.41,0,0,1,1.63-1.23,3.2,3.2,0,0,1,1.41-.51c1.8-.94,2.64.13,2.51,3.19-.59.88-2.4,1.61-3.35,2.05a20.45,20.45,0,0,1-4.72,1.44c-.47.09-.27.8.2.71,2.26-.43,12-3.42,8.85-7.27s-8.44,2.38-9.48,5.17c-.13.34.35.47.53.23,1.8-2.39,3.72-5,4.17-8,.26-1.72.11-4.66-1.86-5.45-4.77-1.92-3,12.17-2.86,14,0,.35.59.36.56,0Z"/><path class="cls-32" d="M175.44,153.87a8.89,8.89,0,0,0,8,2,.34.34,0,0,0-.09-.66,25.29,25.29,0,0,1-3.89-.42,17.67,17.67,0,0,1-3.64-1.47c-.31-.15-.67.25-.38.5Z"/><path class="cls-32" d="M205.31,238.84c-3.5,6.77-9.84,9.61-17.05,10.6a.27.27,0,0,0,0,.52c7.4,1.25,14.77-4.3,17.65-10.77.18-.4-.39-.76-.6-.35Z"/><path class="cls-32" d="M163.7,409.14c2.13-1.08,5-4.07,4.38-6.7a.24.24,0,0,0-.43-.05c-.65,1-.91,2.15-1.54,3.14a9.73,9.73,0,0,1-2.9,2.78.48.48,0,0,0,.49.83Z"/><path class="cls-32" d="M193.49,422.49c.07,2.15,2.88,3.8,4.62,2.35.24-.2,0-.53-.28-.48a2.84,2.84,0,0,1-3.48-2,.44.44,0,0,0-.86.11Z"/><path class="cls-32" d="M137.13,190.19a2,2,0,0,0,.07,1.24,2.25,2.25,0,0,0,.72.72l3.79,2.72a31.82,31.82,0,0,0,4.49,2.85,31.6,31.6,0,0,0,4.83,1.74c2.9.86,5.81,2,8.7,2.85a60.07,60.07,0,0,1,1.23-7.75,8,8,0,0,1-3.88-1.81c-1.74-1.2-4-1.38-5.85-2.29-3.24-1.55-6.47-3.11-9.72-4.65l-3-1.39S137.3,189,137.13,190.19Z"/><path class="cls-34" d="M141,222.89c-8.94,3.18-11.61,15-11.51,23.26.08,5.9,1.08,11.78,1.86,17.62.37,2.75.13,9.19,3.9,9.82.35.06.62-.43.26-.62-2.42-1.27-2.49-4-2.81-6.42-.29-2.16-.57-4.33-.85-6.49a115.89,115.89,0,0,1-1.34-13.91A31.13,31.13,0,0,1,133,232.54c1.86-4,4.62-6.64,8.13-9.19.21-.15.1-.56-.19-.46Z"/><path class="cls-34" d="M169.08,233.71c-.08,3.36.67,6.86.93,10.22s.4,6.84.43,10.27a159.92,159.92,0,0,1-1.17,20.52c-.07.58.84.57.91,0a158.76,158.76,0,0,0,1.18-21q-.06-5.15-.45-10.27c-.25-3.19-.31-6.73-1.26-9.81a.29.29,0,0,0-.57.08Z"/><path class="cls-34" d="M135.88,273.65c.58,1,1.52.89,2.64,1,2.57.15,5.16.13,7.74.19,5.16.1,10.32.24,15.49.34a.51.51,0,0,0,0-1c-4.2-.09-8.39-.14-12.59-.22l-5.8-.11c-1.7,0-5.74.63-7-.48a.29.29,0,0,0-.45.35Z"/><path class="cls-31" d="M194.34,356.34c-1.46,2.7,2.44,3,4.19,2.9,2.14-.08,5.47-.67,5.87-3.24a.31.31,0,0,0-.52-.3,8.07,8.07,0,0,1-3.52,2c-.51.11-6,.73-5.31-1.07.16-.41-.5-.68-.71-.3Z"/><path class="cls-31" d="M160.23,357.93c1.55,2.61,6.9,2.67,7.38-.84a.25.25,0,0,0-.41-.24,6.3,6.3,0,0,1-2.62,1.73,4,4,0,0,1-3.61-1.22.47.47,0,0,0-.74.57Z"/><path class="cls-33" d="M217.93,105.54a38.71,38.71,0,0,0,5.28-2.41.31.31,0,0,0-.24-.57,38.1,38.1,0,0,0-5.43,2.33c-.44.2-.06.85.39.65Z"/><path class="cls-33" d="M219.08,109.56a29.21,29.21,0,0,1,3.92-.51.29.29,0,0,0,.08-.57,7,7,0,0,0-4.18.41c-.41.16-.26.79.18.67Z"/><path class="cls-33" d="M255.91,180.48a2.62,2.62,0,0,1,1.85,2c.19.85,0,1.74.22,2.57a.22.22,0,0,0,.4.06c.85-1.72,0-5.35-2.39-5.23a.3.3,0,0,0-.08.59Z"/><path class="cls-33" d="M258.88,180.1a5.47,5.47,0,0,1,1.21,5.36.17.17,0,0,0,.32.13,4.6,4.6,0,0,0-1.06-6,.33.33,0,0,0-.47.47Z"/><path class="cls-37" d="M396.91,212.25c2.86-4.45,6.56-8.38,7.75-13.66s.65-10.74.28-16c-.66-9.29,1-19.41-.58-28.45-1.39-8-4.59-16.44-10.79-22-8-7.14-17.35-4.7-27.13-3.87-10.43.88-21-.62-31.37.79-8.42,1.15-15.81,8.16-20,15.25-3.27,5.5-5,11.73-6.06,18-1,6-.07,11.45-.09,17.49-.05,14.76.74,29.61,3.91,44.07,1.29,5.91,3.29,12.18,8.21,15.7,4.26,3,9.83,3.36,15.06,3.43q11.1.12,22.18-.66c5.2-.37,10.55-.94,15.13-3.41s7.91-6.48,11.18-10.44A170.58,170.58,0,0,0,396.91,212.25Z"/><path class="cls-22" d="M317.12,443.76a3.42,3.42,0,0,0-.74,3.42c.76,1.84,7.3,4.69,13.78,3.8s10-7.63,12.81-10,8.65-3.93,9.94-6.15,2.79-5.8.16-8.74l-19.3,11.77Z"/><path class="cls-19" d="M350.05,421.68s-3.73-16.4-2.56-23-12.33-.67-12.33-.67,3.32,16.63,0,24.19c-3.7,8.39.46,14,4.38,12.48S350.05,421.68,350.05,421.68Z"/><path class="cls-38" d="M349.35,418.89a4.2,4.2,0,0,1-1,1.95c-2.08,2.81-4.25,5.7-7.28,7.44a24.73,24.73,0,0,0,2.28-4.43,5.08,5.08,0,0,0,.53-2.58,3.65,3.65,0,0,0-2.42-2.73,8.36,8.36,0,0,0-3.79-.29,26,26,0,0,1-3.82.32,3.21,3.21,0,0,0-1.45.12,2.37,2.37,0,0,0-1.11,1.67,8.43,8.43,0,0,0-.16,3.39,3.8,3.8,0,0,1,.06.75,2.91,2.91,0,0,1-.19.7l-1.65,4.29c-.9,2.37-2.77,4.08-4.52,5.92a52.6,52.6,0,0,1-5,4.8,10.32,10.32,0,0,0-2.7,2.65,2.85,2.85,0,0,0,.27,3.5s9,4.68,15.42,1.19,6.2-8.65,10.77-11.06,9.49-5.2,9.55-8.5S349.35,418.89,349.35,418.89Z"/><path class="cls-22" d="M414.77,446.7a3.47,3.47,0,0,1,1.08,3.39c-.59,1.93-6.92,5.45-13.55,5.19s-10.89-6.72-13.93-8.82-9.13-3.12-10.65-5.24-3.39-5.58-1-8.81l20.66,10Z"/><path class="cls-19" d="M379.31,427.64s1-19.4-.82-26,14,0,14,0-2.18,17.71,1.93,25c4.56,8.11.91,14.21-3.2,13S379.31,427.64,379.31,427.64Z"/><path class="cls-38" d="M379.74,424.75a4.41,4.41,0,0,0,1.18,1.88c2.39,2.63,4.86,5.34,8.1,6.8a25.4,25.4,0,0,1-2.75-4.26,5.21,5.21,0,0,1-.78-2.55,3.7,3.7,0,0,1,2.18-3,8.31,8.31,0,0,1,3.8-.66,26.57,26.57,0,0,0,3.89-.06,3.18,3.18,0,0,1,1.47,0,2.4,2.4,0,0,1,1.29,1.58,8.81,8.81,0,0,1,.5,3.41,2.76,2.76,0,0,0,0,.76,2.51,2.51,0,0,0,.26.69l2.09,4.17c1.15,2.3,3.2,3.85,5.15,5.53a53.65,53.65,0,0,0,5.52,4.36,11,11,0,0,1,3,2.41,2.89,2.89,0,0,1,.07,3.56s-8.63,5.62-15.46,2.73-7.12-8.13-12-10.11-10.1-4.32-10.49-7.64S379.74,424.75,379.74,424.75Z"/><path class="cls-19" d="M340,151.43a4.59,4.59,0,0,0,.54,1c1.92,2.74,5.53,3.6,6.82,6.81s3,5.68,6.51,6.82,7.5.6,11.18-.25a71,71,0,0,0,10-3.11c2.57-1,6.09-2,7.87-4.31,1.09-1.38,1.67-3.73,2.38-5.34a7,7,0,0,0,.85-3.16,7.12,7.12,0,0,0-1.57-3.51,13.14,13.14,0,0,0-3.61-3.95c-1.57-1-3.47-1.24-5.24-1.78-4.78-1.48-4.43-4.93-4.45-9.24,0-.31.11-6,.13-6l-17.72-1.65a59.63,59.63,0,0,1,.05,8,36.91,36.91,0,0,1-.25,3.74l-.13-.19c-.1.64-.21,1.27-.33,1.86a2.45,2.45,0,0,1-.51.79,6.82,6.82,0,0,1-2.57,1.42L345.68,141a9.52,9.52,0,0,0-3.63,2,8.46,8.46,0,0,0-1.84,3.66A7.67,7.67,0,0,0,340,151.43Z"/><path class="cls-13" d="M392.54,216.31c-5.8-3.53-13-3.5-19.8-3.37l-27.24.54c-5.73.11-11.59.25-16.92,2.34-7.07,41.37,4.86,84.12-1.33,125.63-1.65,11.05-4.57,21.86-7.48,32.65l-6.24,23.14a109.29,109.29,0,0,0,33.27,6.05c4.07.1,8.49-.14,11.64-2.73a90.22,90.22,0,0,1-1.9-13.9c-2.36-40.71,1.53-81.29,5.36-121.89.76,12.9,3,25.55,2.51,38.52-1.2,32.65,6.7,65.38,2.92,97.83,7.9,1.86,15.9,3.73,24,3.59s16.49-2.51,22.36-8.13c-11.59-11.45-10.9-30.29-11.21-46.58s-2.14-30.79-2-47.08c.1-10.56-1-21.09-2.06-31.59C396.61,253.43,394.38,234.22,392.54,216.31Z"/><path class="cls-38" d="M344.46,152.58a1.45,1.45,0,0,0-1-.22c-.39.11-.6.52-.75.89a46.06,46.06,0,0,0-3.34,12.46,92.88,92.88,0,0,0-.11,16.17l1.65,31.85a2.61,2.61,0,0,0,.59,1.86,2.4,2.4,0,0,0,1.22.52c5.86,1.16,10.9.83,16.88.89,6.44.06,14.06.87,20-1.55a2.69,2.69,0,0,0,1.27-.87,3.26,3.26,0,0,0,.24-2.23c-1.25-10.6,2.47-21.26,1.72-31.91a76.92,76.92,0,0,0-2.65-13.65c-.69-2.66-1-8.38-3.4-10.13s-6.87.15-9.47.34A44.65,44.65,0,0,1,344.46,152.58Z"/><path class="cls-39" d="M376.83,221.21c-5.13-.07-10.25-.07-15.38,0-2.75.06-5.51.15-8.26.29-2.06.11-4.47,0-6.43.72a.25.25,0,0,0,.07.49c2.15.26,4.52-.2,6.68-.31,2.77-.14,5.53-.22,8.3-.3,5-.13,10-.21,15-.35a.29.29,0,0,0,0-.58Z"/><path class="cls-40" d="M394.45,206.06c.12,3.84.21,7.68.5,11.5a366.56,366.56,0,0,1,1.2,36.92c0,2-19.9.36-20-2.64-.84-16.61-1.7-33.29-5-49.59-.65-3.22-1.4-6.43-1.73-9.69-.36-3.6-.21-7.22-.32-10.83a133.68,133.68,0,0,0-2.9-21.42c-1.08-5.52-2.24-11.13-1.66-16.72a17.28,17.28,0,0,0,11.61-3.45c2.83.67,6.23,1.93,9.06,2.6a29.64,29.64,0,0,1,6.54,2.07c3.16,1.57,5.2,4.27,7.22,7.05s4.94,5.49,6.27,8.81c.76,1.9,1.06,4,1.75,5.89s1.9,4,2.81,5.95c.78,1.7,2.12,4.82.91,6.44s-4,2.8-5.83,3.38c-2.44.79-5,1.14-7.45,2a6.07,6.07,0,0,0-3,1.73c-.58.85-.52,2.27-.58,3.3a49.27,49.27,0,0,0,.17,6.87C394.22,199.5,394.35,202.78,394.45,206.06Z"/><path class="cls-40" d="M307.68,182.75c.18.18.35.36.52.55,1.76,1.85,3.46,3.76,5.23,5.6,2.17,2.26,5.29,4.71,8.1,3.33a375.08,375.08,0,0,1,1.41,60.51,61.83,61.83,0,0,0,24.68-1.09c4.81-23.05.33-47,2.48-70.47.27-2.92.64-5.82,1-8.72,1.11-8.65,5-19.41,5.63-28.21-3.43-1.24-7.89-.94-9.75-4.37-9.92,2.74-20.24,6.15-27.13,13.78-4.1,4.54-6.65,10.22-9,15.85-.71,1.71-1.42,3.46-2,5.23A21.73,21.73,0,0,0,307.68,182.75Z"/><path class="cls-19" d="M395.51,256.73a32.81,32.81,0,0,0-1.23,3.49,17.47,17.47,0,0,0-.66,3.37,2.28,2.28,0,0,0,.12,1.13.86.86,0,0,0,.92.53,1.09,1.09,0,0,0,.42-.23c2.34-1.79,3.18-5,3.23-7.91a2.78,2.78,0,0,0-.26-1.46C397.08,254,395.89,255.81,395.51,256.73Z"/><path d="M335.15,432.83c.17-1.9,1.9-16-2.86-14-2,.79-2.12,3.74-1.87,5.45.46,3,2.38,5.65,4.17,8,.18.24.67.11.54-.23-1-2.79-6.29-9.06-9.48-5.17s6.6,6.84,8.85,7.27c.47.09.67-.62.2-.71a21.83,21.83,0,0,1-4-1.14c-.92-.37-3.7-1.41-4.09-2.35l1.41-3.52,2.2.66a7.51,7.51,0,0,1,1.68,1.16,9.79,9.79,0,0,1,2.65,4l.53-.23a29.8,29.8,0,0,1-3-4.5,10.73,10.73,0,0,1-1.22-4v-.77q-.26-3,3.48-2.23c.82,1.35.41,4.38.43,5.88,0,2.17-.07,4.33-.24,6.49,0,.36.53.35.56,0Z"/><path d="M397.59,436.81c.87-1.31,9.62-14,3.91-13.65-2.11.14-3.44,2.42-4,4.21-.91,2.81-.51,5.9-.1,8.76,0,.28.52.27.56,0,.42-2.91-1.1-11-5.78-9.13s2.39,9.13,4.21,10.65c.37.3.9-.22.53-.53-1.88-1.57-4.58-3.95-5.13-6.45-.57-.73-.39-1.39.56-2,.33-1.4,1-1.66,1.92-.77a4.49,4.49,0,0,1,2.21,2.17,9.52,9.52,0,0,1,.92,5.89h.56a28.64,28.64,0,0,1-.38-5.39c.07-1.67.51-4.85,2.14-5.88q4.05.18,2.72,2.26c-.21.52-.45,1-.7,1.53-.4.84-.83,1.66-1.27,2.48q-1.54,2.85-3.35,5.55c-.2.31.29.59.49.29Z"/><path d="M379.64,120.54a2.29,2.29,0,0,0,.75-.83,3.22,3.22,0,0,0,.14-1.12c.19-3.82,5-5.78,5.81-9.51a20,20,0,0,0,.05-3.79c0-1,.35-2.47.32-3.1a4.27,4.27,0,0,1,.18-1.42c.62-2.26,1-4.66,0-6.72a15.42,15.42,0,0,1-.89-1.77c-.57-1.75.45-3.62.39-5.46-.1-2.82-2.61-4.81-4.88-6.38l-4.05-2.81a11.66,11.66,0,0,0-3.2-1.76c-1.66-.5-3.44-.22-5.17-.32-2-.12-4-.77-5.95-1.09a8.08,8.08,0,0,0-5.84.9,17.51,17.51,0,0,1-2.58,1.93,10.26,10.26,0,0,1-3.28.4,8.5,8.5,0,0,0-7,5.24c-.78,1.94-.86,4.17-1.91,6-.5.86-1.2,1.58-1.77,2.38A10,10,0,0,0,339,96.81c0,2,.55,4.08.15,6.07-.48,2.32-2.28,4.51-1.64,6.79a8.6,8.6,0,0,0,1.71,2.73c1.74,2.33,2.71,5.17,4,7.8s3,5.24,5.66,6.39a14.44,14.44,0,0,0,5.66.85c3.82.06,7.7.1,11.36-1,2.48-.76,4.77-2.06,7.24-2.83,1-.32,2.4-.24,3.36-.63A15.47,15.47,0,0,0,379.64,120.54Z"/><path class="cls-19" d="M380,108.24s-2.63,16.11-7.18,20.84-12.26,7.75-21.19-1.36-5.43-35.06-5.43-35.06l20.42-5.54,6.9,3.44,5.6,3.5A40.85,40.85,0,0,1,380,108.24Z"/><path class="cls-19" d="M385.91,111.73c.56,3.21-2.8,8.58-5.3,9s-4.82-1.86-3.69-5.59c.95-3.11,1-6.17,3.52-6.6S385.35,108.51,385.91,111.73Z"/><path class="cls-19" d="M339.58,111.73c-.56,3.21,2.8,8.58,5.3,9s4.82-1.86,3.68-5.59c-.95-3.11-1-6.17-3.52-6.6S340.14,108.51,339.58,111.73Z"/><path d="M346.25,128.33c.95-2.32-.52-4.89-.5-7.39,0-1.44.52-2.88.22-4.28-.24-1.14-1-2.11-1.23-3.25-.55-2.47,1.35-4.8,1.7-7.31a15.32,15.32,0,0,1,.35-2.88c.67-2,2.89-2.87,4.9-3.36s4.24-.89,5.57-2.48,1.39-3.92,2.87-5.3c2-1.88,6.05-1.21,7.54-3.53-1.09,1.9.57,4.25,2.42,5.44s4.13,2,5.13,4,.42,4.65,1.85,6.38a38,38,0,0,1,2.92,3.89c.83,1.41.52,2.11.16,3.71a15.87,15.87,0,0,0,0,6.79,14.33,14.33,0,0,1,.59,3.48,21,21,0,0,1-1.09,4.21,9.6,9.6,0,0,0,.47,6,13.57,13.57,0,0,1,2.57-9.88,10.89,10.89,0,0,0,1.95-3c.84-2.73-1.5-5.36-2.05-8.16s.77-5.7,1.08-8.59A12.63,12.63,0,0,0,377.85,91a6.58,6.58,0,0,1-2.18-1.67c-.5-.72-.62-1.67-1.23-2.3-1.35-1.37-3.69-.16-5.59-.48a15.75,15.75,0,0,1-3-1.26,9.62,9.62,0,0,0-6.35.17,59,59,0,0,1-6.16,2,14.65,14.65,0,0,0-6.06,3.3,7.88,7.88,0,0,0-3,5.53,18.46,18.46,0,0,1,0,2.88,33.85,33.85,0,0,1-1.28,3.23c-.86,2.86,1.09,5.82,1,8.8a26.65,26.65,0,0,1-.8,4.13,5,5,0,0,0,.64,4,10,10,0,0,1,1.35,1.57,5.11,5.11,0,0,1,.09,2.64A8.27,8.27,0,0,0,346.25,128.33Z"/><path class="cls-41" d="M369.15,86.3c3.66-.43,5.39,2.7,7.42,5,1.83,2.12,4.26,3.83,5.55,6.37,1.68,3.3,0,5.6-.44,8.85a12.33,12.33,0,0,0,.91,5.55.16.16,0,0,0,.3-.09,15.18,15.18,0,0,1-.93-4.75c.08-1.9,1.05-3.51,1.32-5.35a8.08,8.08,0,0,0-2.08-6.07c-2-2.5-4.34-4.81-6.42-7.23-1.53-1.78-3.27-3-5.66-2.59-.15,0-.12.28,0,.26Z"/><path class="cls-41" d="M366.89,85.51c-3.88-2.36-8.07-.51-11.79,1.24s-9.45,2.6-11.05,6.92c-.94,2.53.71,5-.58,7.53a5,5,0,0,0-.38,4.74,8,8,0,0,1,.23,5.34,9.84,9.84,0,0,0-.36,3.37c.22,2.55,1.39,5,2.27,7.38,0,.09.19,0,.15,0-.86-2.38-2.1-4.77-2.28-7.34-.15-2.12,1-3.89,1-5.94,0-2.56-1.92-4-.72-6.75.65-1.47,1.16-2.29,1-4-.28-3.1-.33-5.23,2.42-7.2,1.84-1.31,4.1-1.86,6.16-2.71,4.37-1.82,9.08-5.25,13.83-2.47.06,0,.12-.06.06-.1Z"/><path class="cls-41" d="M346.1,103.08c2.26,4.19-2.8,7.86-1.37,12,1.55,4.46,1.37,8.59,1.38,13.25,0,.16.26.21.28,0,.55-4,.54-8.63-.9-12.43-.9-2.36-.59-3.93.4-6.15a9.18,9.18,0,0,0,.73-2.37,6.86,6.86,0,0,0-.37-4.43c-.05-.11-.21,0-.15.09Z"/><path class="cls-42" d="M367.31,88.83a4.7,4.7,0,0,0,.34,5.24,11,11,0,0,0,3,2.18c2.29,1.4,4.22,3.09,4.62,5.92,0,.08.15.06.14,0a7.12,7.12,0,0,0-2.71-4.71c-2.83-2.34-7.78-3.73-5.32-8.54,0-.08-.07-.14-.11-.07Z"/><path class="cls-42" d="M367.06,89.19c-1,1.9-3.37,2-5,3.2a7.38,7.38,0,0,0-2.25,2.74c-1.31,2.68-1.91,5.25-5.15,6.22a6.79,6.79,0,0,1-7.24-2.6c-.07-.09-.24,0-.17.13A6.82,6.82,0,0,0,357.51,100c2.09-2,2.09-5.06,4.18-7,1.65-1.54,4.45-1.58,5.46-3.75,0-.06-.06-.12-.09-.06Z"/><path class="cls-42" d="M366.64,89.45c-3.41,1.28-5.6,1.65-7.46,5-1,1.81-1.86,3.83-3.7,5a7,7,0,0,1-7.34-.32c-.07,0-.17.07-.09.12a6.65,6.65,0,0,0,8.13,0c1.44-1.12,2.21-2.83,3.05-4.38A9,9,0,0,1,362,91.34c1.38-.9,3.15-1.16,4.67-1.77.07,0,0-.15,0-.12Z"/><path class="cls-41" d="M367.52,88.66c-.38,2.47,1.12,4.14,3,5.5,2.35,1.67,4.41,2.68,4.88,5.85.18,1.18,0,2.4.5,3.53s1.48,1.54,2.49,2.25c2.69,1.92,2.89,4.84,1.74,7.73a7.38,7.38,0,0,0-.81,3.26c.11,1.87,1.22,3.58,1.59,5.4,0,.15.27.09.24-.07-.39-2.34-1.91-4.46-1.34-6.93.3-1.31,1.17-2.42,1.37-3.77a6.12,6.12,0,0,0-2.1-5.5,25.56,25.56,0,0,1-2.26-1.53c-1-1-.92-2.31-1.05-3.58a6.78,6.78,0,0,0-1.07-3.67c-2.13-3-7.66-3.75-7-8.4,0-.16-.22-.23-.24-.07Z"/><path class="cls-41" d="M380.2,122.12c-.08,2.43-3.92,6.16-.83,8.36.08.06.19-.08.11-.15-2.67-2.3.58-5.63.85-8.21,0-.08-.13-.09-.13,0Z"/><path class="cls-41" d="M368.31,88.2c1.43,3.8,6.2,4.3,8.08,7.85,1.79,3.39.07,7.79,3.94,10a.08.08,0,0,0,.08-.13c-3.72-2.68-1.82-7.46-4.35-10.92-2.08-2.86-6.23-3.43-7.66-6.8,0-.06-.12,0-.09,0Z"/><path class="cls-41" d="M367.13,87.55c-2.57,2.51-6.62,1.48-9.36,3.81-2,1.7-2.21,5.45-4.68,6.23-3.12,1-6.8,1.42-7,5.44,0,.14.22.17.24,0,.48-2.84,2.32-4,4.94-4.69,1-.27,2.47-.35,3.28-1.09a4.8,4.8,0,0,0,.89-1.57c.94-2,1.68-3.76,3.67-4.91,2.63-1.53,5.93-.85,8.18-3.13a.08.08,0,1,0-.12-.12Z"/><path class="cls-25" d="M363.56,107.54a30,30,0,0,0,.15,3.56,9.41,9.41,0,0,0,.33,1.71,2.44,2.44,0,0,0,.8,1.35l.31.16a4.78,4.78,0,0,1,.48.19,2.07,2.07,0,0,1,.74.7,2.37,2.37,0,0,1,.27,1.92,2.43,2.43,0,0,1-1.2,1.46,2.87,2.87,0,0,1-1.8.19,2.91,2.91,0,0,0,1.66-.44,2.05,2.05,0,0,0,.91-1.32,2,2,0,0,0-.29-1.51,1.58,1.58,0,0,0-.56-.5,3.84,3.84,0,0,0-.36-.14,5.4,5.4,0,0,1-.49-.23,2.87,2.87,0,0,1-1-1.68,7.53,7.53,0,0,1-.25-1.82A15.45,15.45,0,0,1,363.56,107.54Z"/><path class="cls-43" d="M357.88,110.12a2.29,2.29,0,1,1-2.78-1.66A2.3,2.3,0,0,1,357.88,110.12Z"/><path class="cls-43" d="M373.44,111.2a2.21,2.21,0,1,1-2.41-2A2.21,2.21,0,0,1,373.44,111.2Z"/><path class="cls-44" d="M374.69,106.19c-1.34-1.9-6.22-3.48-7.45-.62-.1.23.14.45.34.27a3.82,3.82,0,0,1,3.63-1,9.37,9.37,0,0,1,3.33,1.54c.09.06.21-.06.15-.14Z"/><path class="cls-44" d="M350.23,106.93c1-2.09,5.59-4.41,7.26-1.78a.22.22,0,0,1-.3.32,3.82,3.82,0,0,0-3.75-.47,9.38,9.38,0,0,0-3,2c-.08.07-.22,0-.17-.12Z"/><path class="cls-2" d="M357.11,110.15a.77.77,0,1,1-.92-.59A.76.76,0,0,1,357.11,110.15Z"/><path class="cls-2" d="M372.81,110.78a.77.77,0,1,1-.92-.59A.76.76,0,0,1,372.81,110.78Z"/><path class="cls-2" d="M359.33,122.93a39.41,39.41,0,0,0,6.15,0c.91-.06,1.52.68,1.14,1.41-1.16,2.24-1.3,4.62-3.91,4.75s-5-3.35-4.84-5.1A1.31,1.31,0,0,1,359.33,122.93Z"/><path class="cls-13" d="M345.71,108.56s2.27,1,3.31,9.31a1.85,1.85,0,0,1-1.12-.18c-.19-1.25-.29-2.56-.54-3.8a15.77,15.77,0,0,0-.62-2.31,7.37,7.37,0,0,0-1.32-2.25Z"/><path class="cls-13" d="M379.86,108.06s-2.87,2.49-3.92,10.79a1.24,1.24,0,0,0,1-.25,56.54,56.54,0,0,1,1.65-6.66c.09-.39,1.64-3.17,1.64-3.17Z"/><path class="cls-13" d="M350,127.34s-.23-.21-.27-.25-.21-.22-.31-.34c-.25-.29-.48-.6-.71-.91-.55-.76-1.06-1.55-1.56-2.35-.37-.6-.73-1.2-1.09-1.8-.1-.17-.23-.33-.33-.5a1.21,1.21,0,0,1-.18-.28c0-.12.1-.09.2-.12a.7.7,0,0,0,.46-.46l.1.13c.21.3.43.59.65.89l1.46,2,1,1.33c.08.12.38.4.39.55S349.79,125.28,350,127.34Z"/><path class="cls-13" d="M378.72,120.54a1.76,1.76,0,0,0,.59.18c-1.37,2.23-4.08,6.47-5.34,7.33a5,5,0,0,1,1.13-3.2l.55-.79,1.2-1.69,1.15-1.62a1.68,1.68,0,0,1,.27-.37.08.08,0,0,1,.1,0l.06,0Z"/><path class="cls-13" d="M379.33,120.72h0Z"/><path class="cls-13" d="M346.17,121.11c-.05.41.61,1.35.79,1.72.29.59.6,1.18.92,1.75a30.28,30.28,0,0,0,2.14,3.36,21,21,0,0,0,4.64,4.72,12.43,12.43,0,0,0,6.82,2.17,14.65,14.65,0,0,0,7.49-1.64,13.55,13.55,0,0,0,4.88-4.36,31.52,31.52,0,0,0,1.87-3q.51-.9,1-1.83c.16-.31.31-.63.46-1s.48-.77.45-1c-.09-1-.24-2.46-.41-4.71-15.17-8-29.4-.44-29.4-.44l-1.47,3.55A3.64,3.64,0,0,0,346.17,121.11Z"/><path class="cls-37" d="M391.9,189.41a121.36,121.36,0,0,0,.82,12.65c1,7.14,3.21,14.23,2.48,21.4-5.24-2.26-8.19-8-10.1-13.51-5.82-16.84-5.77-35-4.31-52.65.37-4.44.89-10.43,1.58-14.82.71-4.56,3.83-2.33,7.31-1,2.08.82,3.15,1.1,3.05,3.47-.17,4.22-.78,8.41-1,12.63C391.26,168.21,391.58,178.82,391.9,189.41Z"/><path class="cls-37" d="M343.07,159.47l.06,21.45a75.07,75.07,0,0,1-.34,9c-.68,5.69-2.67,11.14-4.79,16.46a69.6,69.6,0,0,1-16.08,24.48,4.15,4.15,0,0,1-2,1.26,2.9,2.9,0,0,1-2.91-1.64,8.5,8.5,0,0,1-.74-3.46,2.58,2.58,0,0,1,.31-1.8,2.74,2.74,0,0,1,1-.68c4.77-2.32,7.07-6.48,8.55-11.54,2-6.71,5-13.12,5.59-20.07,1.23-14.72.09-29.55-1.91-44.15-.19-1.4-1.18-4.64-.26-5.7a8.12,8.12,0,0,1,2-1.66,30,30,0,0,1,7.42-1.84c2.43-.35,2.67,2.46,3,4.6A111.64,111.64,0,0,1,343.07,159.47Z"/><path class="cls-39" d="M363.12,219.15a1.76,1.76,0,0,1,1.05.76,1,1,0,0,1-.78,1.55c-2.15.06-1.71-2.58-.83-3.68l-.39.11a2.7,2.7,0,0,1,2,2.43c0,.59-.46,1.84-1.17,1.05-.53-.59-.11-1.52.13-2.15l-.4.3a.7.7,0,0,1,.72.65l.18-.46-.37-.18c.07-.49-.67-.72-.77-.21a1,1,0,0,0,1.56,1.09.4.4,0,0,0,.18-.46,1.54,1.54,0,0,0-1.5-1.25.42.42,0,0,0-.39.3c-.38,1-.72,2.3.26,3.1a1.34,1.34,0,0,0,2-.22c1.28-1.76-.37-4.24-2.16-4.76a.39.39,0,0,0-.38.11,3.54,3.54,0,0,0-.78,3.63,2.4,2.4,0,0,0,2.59,1.34,1.67,1.67,0,0,0,1.25-2.06,2.18,2.18,0,0,0-.74-1.16c-.48-.38-.71-.26-1.24-.15a.16.16,0,0,0,0,.32Z"/><path class="cls-39" d="M363.57,221.33c4.44,8.8,1.39,18.86,4.06,28.08,1.57,5.42,4.45,10.36,6,15.78,1.5,5.26.31,11.8,3.57,16.45.2.29.8.26.6-.18-2.43-5.23-1.79-10.91-3.35-16.36s-4.57-10.58-6.12-16.15c-1.36-4.9-1-10-1.26-15.07-.2-4.18-.42-9.3-3-12.79-.21-.28-.64-.12-.46.24Z"/><path class="cls-39" d="M362.54,219.51c1.19,3.77.65,8.3.1,12.15-.66,4.59-2.22,8.87-3.67,13.27a67.85,67.85,0,0,0-3,15.47c-.5,5.73-1.31,11.87-1,17.62,0,.36.6.49.67.09,1-5.62.75-11.56,1.22-17.25a73,73,0,0,1,3.7-17.78,60,60,0,0,0,3.06-12.28c.44-3.68.92-7.93-.53-11.46-.14-.35-.71-.22-.59.17Z"/><path class="cls-39" d="M327.82,269.44c3.95,2.05,9.84-1.48,13.21,1.71,2.13,2,2.34,6,2.81,8.7.64,3.58,1.14,7.19,1.5,10.8a131.07,131.07,0,0,1,.64,19.41c-.16,3.28-.78,6.67-3.94,8.36-3.56,1.89-8.1,2-12,1.32-.59-.1-.85.79-.25.91,5.42,1.07,14,.62,16.31-5.47,1.13-3,.94-6.52.94-9.68q0-6.24-.51-12.46-.48-5.81-1.43-11.56c-.52-3.17-.76-7-2.49-9.82-3.08-5-10-1.2-14.53-2.89-.39-.14-.65.48-.28.67Z"/><path class="cls-39" d="M339.18,272.48c.15,3.09-.08,6.59-1.54,9.38-1.57,3-5,6.08-8.37,3.48a.39.39,0,0,0-.55.55c2.28,2.91,6.22,1,8.16-1.21a15.2,15.2,0,0,0,3-12.3.37.37,0,0,0-.72.1Z"/><path class="cls-39" d="M332.31,276a18.81,18.81,0,0,0,.2,2l.52-.52a2,2,0,0,1-.54-.27c-.1-.07-.06,0-.05,0,.14.16-.1-.37,0-.09a.28.28,0,0,0,.5.07c.48-.65-.66-1-1.1-.61a.78.78,0,0,0-.11,1,1.76,1.76,0,0,0,1.11.7.43.43,0,0,0,.52-.53,17,17,0,0,0-.41-1.85c-.09-.33-.63-.28-.61.08Z"/><path class="cls-39" d="M403.68,388.45a31.67,31.67,0,0,1-14.6,3.4c-5.25-.15-9.76-1.87-14.39-4.18a.32.32,0,0,0-.32.55c8,6.09,21.24,6.12,29.65.82a.34.34,0,0,0-.34-.59Z"/><path class="cls-39" d="M355.5,388.67c-6.14-.67-11.95,1.92-18.07,1.8a28.88,28.88,0,0,1-8.3-1.4c-3-1-5.49-2.71-8.33-4a.26.26,0,0,0-.31.4c3.53,3.74,10,5.41,14.9,5.86,6.87.62,13.31-2.51,20.11-2,.43,0,.42-.62,0-.67Z"/><path class="cls-19" d="M407.36,250.43a27,27,0,0,0,1.62,4.73,32.88,32.88,0,0,1,1.91,5.56,5.08,5.08,0,0,1,.17,2.35,2,2,0,0,1-1.58,1.58c-.37,0-.78-.07-1.08.14s-.35.63-.44,1a2.78,2.78,0,0,1-3.9,1.63c-1.25,1.52-3.94,1.82-5.76,1.42-2.56-.56-1.85-2.37-1.16-4.44a11,11,0,0,0,.26-4.13c-.31-4.67-1.26-8.94-1.65-13.75-.42-5.14-.76-10.27-1-15.42q-.84-15.42-.86-30.88c0-3.92-1.86-14.15,1.45-15.26,1.24-.42,2.51-.78,3.77-1.14s5.73-2.2,6.57-1.33c.57.59.59,2.55.7,3.31a72.09,72.09,0,0,1,.53,9.17c.13,9.28.27,18.82.11,28.2C406.82,232.09,405.22,241.65,407.36,250.43Z"/><path class="cls-45" d="M392.24,180.34a.18.18,0,0,0,0,.06l.82,7.87c2.32-.76,4.65-1.62,7-2.31a23.82,23.82,0,0,0,9.32-4.59c.78-.56,2.33-1.25,2.88-2s.22-2.25-.06-3.24a17.1,17.1,0,0,0-1-2.61c-1.15-2.4-3.51-.3-5.23.52L399.85,177c-1.91.91-4.12,1.09-5.86,2.29a19,19,0,0,1-1.74,1.12Z"/><path class="cls-45" d="M307.06,187.5c.18.18.35.36.52.55.49.27,1,.55,1.46.84a23.56,23.56,0,0,0,9.68,3.77c.93.2,2.49.88,3.42.76,1.08-.13,1.81-1.35,2.35-2.24a16.51,16.51,0,0,0,1.26-2.48c1-2.47-2.15-2.8-3.92-3.51l-6.29-2.52c-2-.79-3.58-2.3-5.64-2.77-.56-.13-1.11-.25-1.64-.41A21.73,21.73,0,0,0,307.06,187.5Z"/><path class="cls-19" d="M305.74,196.25a6.15,6.15,0,0,0,1.44,2.4,6.4,6.4,0,0,0,2.42,1.58c4,1.27,8.49-.46,12.41,1a15,15,0,0,0,3.37,1.23c1.19.14,2.62-.54,2.71-1.74a1.65,1.65,0,1,0,1.84-2.7h.7a2,2,0,0,0,1.4-3.42l0,0c1,.61,2.4-.61,2.33-1.82a4.15,4.15,0,0,0-2-2.88c.94.45,2-.71,1.86-1.74a4.2,4.2,0,0,0-2.14-2.57,20.15,20.15,0,0,0-3.52-1.88,3.58,3.58,0,0,0-1.53-.36c-1.76.08-2.83,2.22-3.07,3.78a6.28,6.28,0,0,1-1.44,3.26c-4.4,5-10.91-5.15-13.89-6.58C302.2,180.66,304.87,192.77,305.74,196.25Z"/><path class="cls-46" d="M400.51,151.55a36,36,0,0,0-9.3-14.85c-2-1.95-4-3.51-6.87-4-3.44-.61-7-1-10.49-1.31-.48,0-.6.77-.12.84,2.9.47,5.82.76,8.73,1.14a13.79,13.79,0,0,1,8.5,4.16,37,37,0,0,1,9.15,14.14c.1.24.49.14.4-.11Z"/><path class="cls-46" d="M352.5,131c-4.57.08-9.22.52-13.78.92-3.38.3-6.85.82-9.73,2.73-5.08,3.37-7.29,9.77-7.17,15.65a.46.46,0,0,0,.92,0c0-6,2.22-12.64,7.9-15.58,3.29-1.7,7.11-1.86,10.73-2.13s7.45-.43,11.13-.91c.43-.05.46-.69,0-.68Z"/><path class="cls-46" d="M318.73,201.45a111.6,111.6,0,0,0-1,18.36c.13,4.87,1.14,10,4.84,13.44a.39.39,0,0,0,.55-.56c-4-4.1-4.68-9.62-4.66-15.13s.53-10.71.6-16.06c0-.21-.35-.27-.38-.05Z"/><path class="cls-46" d="M316.88,143.67c-1.46,4.07-1.44,9.09-1.06,13.33,0,.37.6.39.58,0-.2-4.54.46-8.79.73-13.3,0-.15-.21-.16-.25,0Z"/><path class="cls-46" d="M314.44,201.63a62,62,0,0,0-1.08,13.4,76.18,76.18,0,0,0,.94,13.41c.05.32.59.25.56-.07-.41-4.46-.86-8.86-.85-13.34s.63-8.88.86-13.34a.22.22,0,0,0-.43-.06Z"/><path class="cls-31" d="M333,189.32a10.2,10.2,0,0,0-2.62-1,5.12,5.12,0,0,0-2.48-.2.22.22,0,0,0-.06.4,7.28,7.28,0,0,0,2.29.72c.88.21,1.74.44,2.63.6.32.06.56-.38.24-.55Z"/><path class="cls-31" d="M332.92,194.81a5.16,5.16,0,0,0-4.77-2.12c-.38.08-.29.56,0,.68.76.3,1.59.38,2.35.72s1.28.85,2,1.16a.33.33,0,0,0,.44-.44Z"/><path class="cls-31" d="M331.09,198.25c-1.25-.75-3-1.84-4.48-1.78a.32.32,0,0,0-.16.59,9.58,9.58,0,0,0,1.95.82,22.52,22.52,0,0,1,2.3,1,.39.39,0,0,0,.39-.67Z"/><path class="cls-31" d="M328.81,201.05a2.12,2.12,0,0,0-1.8-.73.37.37,0,0,0-.17.62,6.78,6.78,0,0,0,1.47.75.41.41,0,0,0,.5-.64Z"/><path class="cls-31" d="M408.44,265.39c.72-.27.68-1.43.62-2.06s-.29-1.62-1-1.86c-.11,0-.19,0-.2.15a13.21,13.21,0,0,0,.36,1.92c0,.57-.34,1.21-.07,1.72a.27.27,0,0,0,.3.13Z"/><path class="cls-31" d="M404.82,267.32c.66-1.35,1.35-3.87.14-5.11a.2.2,0,0,0-.32.09,12.36,12.36,0,0,0,.1,2,6.11,6.11,0,0,1-.59,2.62c-.21.44.45.83.67.39Z"/><path class="cls-31" d="M400.24,269.12c1.18-1.24,2-3.81.95-5.34a.16.16,0,0,0-.29,0c-.11.8,0,1.61-.16,2.41a7.49,7.49,0,0,1-1.05,2.47.35.35,0,0,0,.55.42Z"/><path class="cls-47" d="M378,143.58a21.89,21.89,0,0,0-2,1.67,14.15,14.15,0,0,1-2.12,1.18,25.27,25.27,0,0,1-5.13,1.39c-.26.06-.17.41.06.44a10.79,10.79,0,0,0,6.33-1.49c1.1-.59,3.52-1.86,3.54-3.31a.32.32,0,0,0-.23-.31l-.28-.09a.22.22,0,0,0-.22.05l-.18.19a.18.18,0,0,0,.21.28Z"/><path class="cls-47" d="M354.52,145.78a17.77,17.77,0,0,1-5.25-.16,24.66,24.66,0,0,1-4.9-2c-.25-.11-.53.19-.31.4a11.91,11.91,0,0,0,10.55,2.4c.37-.1.31-.71-.09-.69Z"/><path class="cls-47" d="M353.37,152.38c-6.92,14.52-7.25,30.93-6.45,46.63.43,8.5.51,17,.13,25.5-.39,8.68-1.58,17.22-2.38,25.86,0,.34.54.42.6.08,1.59-8,2.1-16.35,2.51-24.47q.63-12.48.05-25c-.39-8.19-1-16.3-.05-24.48,1-8.35,3.4-16,6.07-23.93.09-.27-.35-.47-.48-.2Z"/><path class="cls-47" d="M342.36,227.85c-1.66,2-5.2,1.29-7.52,1.23-2.51-.07-5-.16-7.54-.28a.47.47,0,0,0-.47.46c.44,5.53-2,11.44.11,16.79,1.89,4.75,6.39,6.06,11,4.36s5.85-5.93,6.46-10.44c.21-1.55.38-3.1.49-4.65a23.43,23.43,0,0,0,.25-4.64c-.14-.94-.29-1.09-1.36-1.09a.29.29,0,0,0-.08.56c1.32.38.27,6,.17,7-.28,2.89-.5,6.3-2,8.89a9.09,9.09,0,0,1-8.57,4.22c-3.91-.34-5.92-4.18-6.24-7.73a40.94,40.94,0,0,1,.55-8c.13-1.19-.14-2.9.23-4,.45-1.28,1.94-.74,3.23-.7a67.64,67.64,0,0,0,8.54.12c1.41-.13,2.56-.49,3.23-1.79.16-.29-.24-.66-.48-.37Z"/><path class="cls-47" d="M335.75,234.39a2.88,2.88,0,0,1,1.49,1.67c.19.74-.13,1.81-1.05,1.82a1,1,0,0,1-.85-.41c-.21-.37.22-1.28.68-.88.15.14,0,.67,0,.85a1.43,1.43,0,0,1-.76.87l.59.16a1.37,1.37,0,0,1,.1-1.81l-.67-.09,0,.57c-.15.24.14.47.37.37a1,1,0,0,0,.4-1.37.42.42,0,0,0-.67-.08,2.2,2.2,0,0,0-.23,2.85.45.45,0,0,0,.59.15,2.34,2.34,0,0,0,1.19-1.61,1.87,1.87,0,0,0-.43-1.73c-1.19-.8-2.43,1.16-1.83,2.17a1.89,1.89,0,0,0,3.19-.16c.92-1.6-.28-3.23-1.71-3.93-.39-.18-.73.37-.35.59Z"/><path class="cls-47" d="M328.1,183.35a1.3,1.3,0,0,0,.73.87.32.32,0,0,0,.47-.19c.49-2.77,1.09-5.56,1.47-8.35,0-.28-.39-.3-.46-.07a33.57,33.57,0,0,0-1,4.41q-.18,1-.33,1.92c0-.07-.31,2.07-.61,1.34-.06-.13-.29-.08-.24.07Z"/><path class="cls-47" d="M372,165.65a.9.9,0,0,1,.74-.21l-.4-.3a.73.73,0,0,1-.13.83l.49-.06a.81.81,0,0,1-.46-.9c.06-.52-.75-.52-.82,0a1.57,1.57,0,0,0,.87,1.6.41.41,0,0,0,.49-.06,1.49,1.49,0,0,0,.35-1.62.43.43,0,0,0-.39-.31,1.76,1.76,0,0,0-1.15.5c-.27.26.1.76.41.53Z"/><path class="cls-47" d="M371.83,181.4a.6.6,0,0,1,.61.79l.59-.07a.46.46,0,0,1,.15-.77l-.44-.17a2.63,2.63,0,0,1,.32,1.13l.5-.38a1.41,1.41,0,0,1-.59-.4.21.21,0,0,0-.34.09.92.92,0,0,0,.72,1.07.4.4,0,0,0,.5-.38,3.75,3.75,0,0,0-.44-1.53.4.4,0,0,0-.44-.17,1.22,1.22,0,0,0-.47,2,.38.38,0,0,0,.59-.08,1.32,1.32,0,0,0-1.26-1.87c-.44,0-.45.72,0,.7Z"/><path class="cls-47" d="M374.74,202a.72.72,0,0,1,.26,1.09h.62a3.55,3.55,0,0,1-.33-2.83l-.66.09a3.38,3.38,0,0,1,.34,1,.18.18,0,0,0,.32,0,1.27,1.27,0,0,0,0-1.42.36.36,0,0,0-.65.09,4.2,4.2,0,0,0,.4,3.39.36.36,0,0,0,.62,0,1.44,1.44,0,0,0-.7-2.12c-.41-.17-.58.49-.18.66Z"/><path class="cls-47" d="M377.69,220.53a1.62,1.62,0,0,1,.95,1.72l.73-.1a6.2,6.2,0,0,1-.16-2.23h-.76a3.92,3.92,0,0,0,.1,1.49c.08.19.41.32.52.07a3.9,3.9,0,0,0,.14-1.56c0-.5-.7-.47-.76,0a6.44,6.44,0,0,0,.21,2.43.37.37,0,0,0,.72-.1,2.33,2.33,0,0,0-1.34-2.32c-.4-.18-.75.4-.35.6Z"/><path class="cls-47" d="M379.31,236.32l.93.41-.18-.23a2.07,2.07,0,0,1,0,1l.6-.24a1.19,1.19,0,0,1-.46-.58.74.74,0,0,1-.05-.29c-.27.05-.34.09-.21.1l-.22-.17v-.14L380,236h0a.28.28,0,0,0-.23.41l0,0a.3.3,0,0,0,.26.15c.31,0,.39-.29.42-.53a.39.39,0,0,0-.29-.39c-.5-.12-.79.33-.77.78a2,2,0,0,0,.91,1.47.41.41,0,0,0,.6-.24,2.19,2.19,0,0,0-.05-1.43c-.18-.34-.86-.45-1.2-.57s-.64.48-.27.64Z"/><path d="M344.29,138.74a8,8,0,0,0,1.08-2.4c.19-1.23-.45-2.42-.66-3.64a6.9,6.9,0,0,1,1.14-4.71c.41-.67,1.51-2.39,2.25-2.71a10.17,10.17,0,0,0,.74,1c.12,2-.82,4,0,6,.41,1,1.22,1.89,1.57,2.95.45,1.35.08,2.82.06,4.25a8.67,8.67,0,0,0,1.3,4.65c.84,1.35,2.08,2.51,2.44,4.06.27,1.17,0,2.44.34,3.6.17.59.49,1.13.66,1.72a3.51,3.51,0,0,1-2.25,4.14,3.43,3.43,0,0,1-4.14-2.21c-.39-1.29,0-2.77-.53-4a7.62,7.62,0,0,0-2.08-2.16A9,9,0,0,1,344.29,138.74Z"/><path class="cls-41" d="M347.93,126.31c1.38,2.42-1.23,4.79-.26,7.17.35.87,1.26,1.41,1.62,2.24,1,2.21-.5,3.36-1.16,5.22a3.79,3.79,0,0,0,.44,3.45,12.05,12.05,0,0,0,2.19,2.15,9.17,9.17,0,0,1,1.58,1.71c1,1.52,2.37,5-.55,6.05-.09,0-.06.17,0,.14,1.84-.62,2.15-2.39,1.67-4.12-1.06-3.78-6.9-5.51-5-9.92.93-2.12,2-3.11.49-5.23-.43-.61-.74-.67-1.14-1.46-.93-1.86.14-3.1.47-4.69a3.5,3.5,0,0,0-.37-2.74s-.07,0-.05,0Z"/><path class="cls-41" d="M347.78,127.29c.35,2.43-.52,3.31-1.18,5.3a3.32,3.32,0,0,0-.11,2c.48,1.73,1.85,2.25,1.29,4.6-.29,1.22-1.41,2.06-1.7,3.27a3.87,3.87,0,0,0,1.21,3.48c.91,1,2.12,1.66,3.06,2.62,1.34,1.37,3.56,6.16.36,7.13a.09.09,0,0,0,.05.17c1.66-.42,1.86-2.28,1.63-3.78-.51-3.29-3.32-4.18-5.15-6.56-2.11-2.71.12-3.86.72-6.28a4,4,0,0,0-.14-2.33c-.22-.64-.69-1.15-.93-1.78-.86-2.21.16-2.88.71-4.44a6.6,6.6,0,0,0,.26-3.44c0-.06-.08,0-.08,0Z"/><path class="cls-41" d="M349.6,135.25c1.07,2.09.36,3.76.07,5.88a3.55,3.55,0,0,0,.19,1.85c.89,2.41,3.48,3.48,3.68,6.31,0,.1.16.1.16,0-.09-2.65-2.4-3.5-3.34-5.72-.81-1.94,0-3.33.12-5.17a5.85,5.85,0,0,0-.79-3.21c0-.06-.13,0-.09.06Z"/><path d="M399.54,264.88c2-.65,3.91-1.55,5.93-2.17,1.06-.32,2.67-.86,3.68-.13a4.19,4.19,0,0,1,1.12,2.25c.53,1.89.89,3.83,1.33,5.74l5.73,24.86c3.24,14,6.51,28,9.71,42,.64,2.81,1.26,5.62,1.92,8.42.71,3,5.38,1.74,4.66-1.29C427.33,318,421,291.37,414.48,264.81c-.68-2.75-1.94-5.53-5-6.18-3.92-.84-8.32,1.94-11.1,4.31a1.17,1.17,0,0,0,1.14,1.94Z"/><path class="cls-19" d="M397.08,251.11c-2.68,3.67-2.68,9.83-1.38,14.19a6.44,6.44,0,0,0,1.82,3.09,3.45,3.45,0,0,0,3.39.74,2.88,2.88,0,0,1,.56-.2c.89-.12,1.37,1,2.08,1.53a2.49,2.49,0,0,0,3-.24,5.48,5.48,0,0,0,1.57-2.79,2,2,0,0,0,2.62-.75,3.84,3.84,0,0,0,.34-1.33c.73-5.79-1.76-11.91-6.91-13.49-1-.31-2.8-2-3.69-1.43"/><rect class="cls-4" x="430.04" y="444.45" width="9.06" height="11.26" rx="3.41" transform="translate(-74.55 86.46) rotate(-10.47)"/><rect class="cls-48" x="434.55" y="445.58" width="3.69" height="8.23" rx="1.6" transform="translate(-74.48 86.83) rotate(-10.47)"/><rect class="cls-4" x="459.84" y="436.63" width="9.06" height="11.26" rx="3.41" transform="matrix(0.98, -0.18, 0.18, 0.98, -72.63, 91.74)"/><rect class="cls-48" x="464.35" y="437.75" width="3.69" height="8.23" rx="1.6" transform="translate(-72.56 92.12) rotate(-10.47)"/><path d="M402.85,263.74c-1.7-1.48-4.21-1.13-6.09-.05-2.57,1.47-3.09,4.42-2.9,7.14.24,3.32,1.17,6.54,1.68,9.82s1,6.78,1.67,10.17c2.9,15.81,6.68,31.45,9.73,47.23.78,4,1.51,8,2.13,12,.49,3.2,1.85,8.73,6.3,6.41a2.18,2.18,0,0,0,.44-3.39c-1.67-1.92-1.54-5.2-1.95-7.62-.52-3.09-1.09-6.18-1.69-9.25-1.3-6.67-2.73-13.3-4.15-19.94-1.47-6.81-2.94-13.62-4.3-20.45-1.17-5.9-2-11.87-3.16-17.76-.55-2.74-2-6.17-1.49-9,.29-1.72,2.66-1.79,3.78-3a1.67,1.67,0,0,0,0-2.34Z"/><path class="cls-49" d="M400.47,343.38a6.8,6.8,0,0,1,4.16-2.47c6.26-1.64,12.68-2.54,19-3.78,10.31-2,22.89-4.68,29.63,5.43,13.25,19.87,20,63.85,21.29,74.23,3.29,26.22-4.29,22.92-20.27,28.07-8.48,2.73-17.89,4.77-26.9,4.55-8.35-.21-12.6-6-14.14-13.66-2.82-14-4.29-28.29-6.5-42.39q-2.07-13.22-4.12-26.44C401.77,361.33,397.08,348.36,400.47,343.38Z"/><path class="cls-50" d="M398.67,261.74a6.64,6.64,0,0,1,3.89,2.09,6.49,6.49,0,0,1,1.18,1.91,16.59,16.59,0,0,0,.59,1.85.19.19,0,0,0,.34,0c.43-1.4-.72-3.2-1.65-4.16a6.25,6.25,0,0,0-4.31-1.91c-.15,0-.19.24,0,.27Z"/><path class="cls-51" d="M453.28,342.56c-6.74-10.11-19.32-7.41-29.63-5.43-3.31.65-6.65,1.21-10,1.82,3,9.6,5.95,19.22,8.13,29,2.82,12.69,4.41,25.62,7.46,38.26,1,3.94.79,23.19,9.43,29.09s32-1.14,36.1-2.37c1.55-3.5.34-11.62-.23-16.18C473.27,406.41,466.53,362.43,453.28,342.56Z"/><path d="M425.09,336.76a42.08,42.08,0,0,0,1,5.78c1,4.72,2,9.43,3,14.14,2.37,11,4.78,22,7.46,32.92.71,2.87,1.51,5.95,2.36,8.65.22.69,1.32.4,1.1-.31-.72-2.29-1-4.87-1.48-7.22-1.07-4.9-2.18-9.79-3.3-14.68-2.46-10.7-4.8-21.44-7.44-32.1a53.54,53.54,0,0,0-2-7.28c-.14-.35-.75-.35-.73.1Z"/><path d="M438.86,397.8c-.14,1.32.65,8.28,3.09,7.21,1.18-.52.88-2.46.55-3.39a17.69,17.69,0,0,0-2.57-4.69c-.22-.28-.65,0-.57.33a16.59,16.59,0,0,0,1,2.48c.17.39,1.45,3.86,1.08,3.82.1,0-.4-.95-.51-1.21a14.39,14.39,0,0,1-.57-1.55c-.31-1-.44-2.07-.65-3.11-.11-.53-.83-.35-.87.11Z"/><path d="M441.75,336.31a31.23,31.23,0,0,0,1.08,6.48c1,4.78,2,9.54,3.08,14.3s2.15,9.76,3.32,14.61a42.72,42.72,0,0,0,2.09,7.37c.27.62,1.15.15,1-.44-1.39-7.47-3.15-14.85-4.84-22.25-1.07-4.67-2.15-9.33-3.29-14a31.54,31.54,0,0,0-1.79-6.28c-.17-.34-.68-.16-.69.19Z"/><path d="M451.27,378.46a7.12,7.12,0,0,0,.49,3.62c.26.69.77,2.07,1.77,1.72s.86-1.85.58-2.63a10.39,10.39,0,0,0-1.9-3.27c-.25-.27-.62,0-.57.33a8.73,8.73,0,0,0,.74,1.93c.23.54.95,1.91.48,2.48l.49-.2c.18.11.16,0-.06-.26l-.15-.3a8.7,8.7,0,0,1-.5-1.28c-.22-.7-.31-1.43-.51-2.14-.11-.4-.78-.45-.86,0Z"/><path class="cls-39" d="M363.72,222.51c-.92,7.58-.92,15.37-1.23,23s-.53,15.33-.7,23a.45.45,0,0,0,.9,0q.24-11.5.69-23c.3-7.64,1.06-15.35,1-23,0-.44-.62-.41-.67,0Z"/><path class="cls-39" d="M353.91,383c-.4-10.27-1.2-20.48-1.19-30.76,0-5.05.11-10.11.3-15.15.21-5.2.76-10.42.75-15.62,0-.19-.3-.24-.33,0-1.61,9.87-1.45,20.33-1.4,30.32.06,10.37.2,21,1.56,31.25,0,.18.31.2.31,0Z"/><path class="cls-39" d="M392.58,324.65c.32,1.74-6.8,1.31-7.82,1.19a43.66,43.66,0,0,1-6.66-1.61.32.32,0,0,0-.25.59,18.6,18.6,0,0,0,10.74,2.2c1.43-.1,5.34-.15,4.53-2.52a.28.28,0,0,0-.54.15Z"/><path class="cls-39" d="M346.37,328c-1.16-.1-2.33.17-3.5.14a32.11,32.11,0,0,1-3.92-.53c-.35-.05-.66.46-.27.63,2.16,1,5.67,1.35,7.82.25.25-.13.11-.47-.13-.49Z"/><path class="cls-52" d="M362.85,185.55c-1.45,0-2.88.12-4.33.08a17.33,17.33,0,0,0-3.74,0,.15.15,0,0,0,0,.26c2.28,1.14,5.78.82,8.19.31a.31.31,0,0,0-.08-.61Z"/><path class="cls-52" d="M366.37,197.63a26.88,26.88,0,0,1-5.2,9.33,32.21,32.21,0,0,1-8.05,6,.32.32,0,0,0,.25.58c6.67-2.11,12.22-9.05,13.61-15.79a.32.32,0,0,0-.61-.17Z"/><path class="cls-33" d="M447.82,332a2.35,2.35,0,0,1,3.24-.47c1.11.81,1.37,2.28,1.5,3.56,0,.21.34.29.39.06a4.06,4.06,0,0,0-1.82-4.63,2.77,2.77,0,0,0-3.84,1.17.31.31,0,0,0,.53.31Z"/><path class="cls-33" d="M452.26,328.92a5.23,5.23,0,0,1,3.78,5.71c0,.21.27.21.33.05,1.09-2.82-1.14-5.87-3.94-6.41-.42-.08-.6.55-.17.65Z"/><path class="cls-33" d="M413.25,253.3a4.76,4.76,0,0,1,2,1.08c.49.44.78,1.08,1.29,1.46.13.1.3,0,.31-.18,0-.73-.7-1.49-1.22-1.92a4.82,4.82,0,0,0-2.25-1c-.37-.07-.54.48-.16.58Z"/><path class="cls-33" d="M415.21,251.49a7.28,7.28,0,0,1,3.91,4.23.19.19,0,0,0,.37-.05,5.1,5.1,0,0,0-4-4.75c-.32-.06-.59.41-.24.57Z"/><path class="cls-33" d="M318.92,119.22a13.92,13.92,0,0,0,4.81.26c.22,0,.18-.35,0-.41a13.91,13.91,0,0,0-4.72-.47c-.34,0-.45.55-.09.62Z"/><path class="cls-33" d="M317.59,113.1a16.05,16.05,0,0,0,5.4,1.51.24.24,0,0,0,.12-.44,15.81,15.81,0,0,0-5.43-1.42.19.19,0,0,0-.09.35Z"/><path class="cls-33" d="M393.57,110.47a19.23,19.23,0,0,1,3.59-3.62c.15-.12,0-.37-.18-.32a7.08,7.08,0,0,0-4,3.58.36.36,0,0,0,.63.36Z"/><path class="cls-33" d="M394.87,113.34c2.14-1.2,4.35-2.14,6.54-3.24a.17.17,0,0,0-.09-.31,13.33,13.33,0,0,0-6.86,3c-.31.25.09.72.41.53Z"/><path class="cls-19" d="M510,127.8a17.31,17.31,0,0,0,3.78.66,4.27,4.27,0,0,0,2-.25,4.72,4.72,0,0,0,2-2.5,82.72,82.72,0,0,0,3.17-7.89c1.49-4.39-7.37-6.48-9.24-3.65C510,116.77,505.69,126.52,510,127.8Z"/><path class="cls-53" d="M541.73,76.66c-6.55,7.46-9.93,17.2-12.17,26.75-2.37,10.11.2,20.2,5.76,28.83a.16.16,0,0,0,.28-.17c-5.35-9.22-8-18.9-5.36-29.46,2.29-9.17,5.4-18.52,11.65-25.79.09-.11-.06-.27-.16-.16Z"/><path class="cls-53" d="M536.39,86.07c-2.92,6.69-5.66,13.88-4.58,21.31,1,6.69,5.34,12.12,10.67,16,.13.09.3-.12.17-.23-5.21-4.22-9.59-9.43-10.45-16.31-.9-7.2,1.72-14.15,4.43-20.68.06-.13-.18-.24-.24-.1Z"/><path class="cls-13" d="M581.58,171.21a53.4,53.4,0,0,1-30.23-12.73,59.66,59.66,0,0,1-17.94-27.59,49.68,49.68,0,0,1-2.35-13.41,63.79,63.79,0,0,1,1-11.86,146,146,0,0,1,3.71-16.93c1-3.66,2.24-7.35,4.46-10.44a13.76,13.76,0,0,1,9.91-5.61c1.87-1.7,4.61-2,7.13-1.92A27.77,27.77,0,0,1,580,84.92c5.32,9.8,4.17,21.74,6.9,32.55A46.11,46.11,0,0,0,598.16,138c2,2,4.11,3.94,5.48,6.4,2.81,5,1.67,11.65-2.06,16s-9.63,6.48-15.35,6.41a5.25,5.25,0,0,1-2.15,1.64,15,15,0,0,0-1.82.84,2.31,2.31,0,0,0-1.17,1.56C581,171.47,580.91,171.16,581.58,171.21Z"/><path class="cls-53" d="M564,113.78c-1.83,13.2,9.3,23.27,17.75,31.7.11.11.28-.06.18-.18-8-9.21-19.21-17.83-17.71-31.49,0-.12-.2-.15-.22,0Z"/><path class="cls-53" d="M563.24,116.43c-2,10.33,4.11,19.87,10.83,27.15a.13.13,0,1,0,.18-.18c-6.36-7.77-12.33-16.31-10.81-26.91,0-.13-.18-.19-.2-.06Z"/><path class="cls-19" d="M546.23,137.32a10.38,10.38,0,0,0,1.64-4.69,56.87,56.87,0,0,0,.94-10.33c0-.17-.13-.42-.28-.32,2.06-.38,4.23-.55,6.29-.92a11.58,11.58,0,0,0,3.33-1c1.62-.84,3.43-3.82,4.43-5.36-.16,1.52-.82,4.61-1,6.13a25,25,0,0,0,.44,10,15.12,15.12,0,0,0,5.43,8.24c-4.27,3.94-10.29,5.26-16.08,4.73a7.57,7.57,0,0,1-3.12-.78C546.17,141.9,544.8,139.17,546.23,137.32Z"/><path class="cls-19" d="M537.48,98.79C540,86.38,551.91,80.53,561,83.42S574.55,98,570.9,109.48c-2.85,9-9.47,18.66-23.32,16.89C540.1,125.41,535.16,110.17,537.48,98.79Z"/><path class="cls-19" d="M577.46,108.93c.44,3.2-3.08,8.39-5.58,8.72s-4.69-2-3.43-5.66c1-3,1.23-6.07,3.73-6.41S577,105.73,577.46,108.93Z"/><path class="cls-54" d="M570.9,109.42a3.69,3.69,0,0,1,1.22-1.38,1.6,1.6,0,0,1,1.77,0,2.24,2.24,0,0,1,.75,2.17,7.81,7.81,0,0,1-1.55,3.64c-.66.67-3.25,1.37-3.67,0C569.06,112.6,570.3,110.44,570.9,109.42Z"/><g class="cls-55"><path class="cls-56" d="M550.7,100.94a11,11,0,0,1-.15,3.28,6.92,6.92,0,0,1-.51,1.62,2.77,2.77,0,0,1-1.27,1.44,5.73,5.73,0,0,1-.56.14l-.28,0a1.11,1.11,0,0,0-.48.28,1.56,1.56,0,0,0-.48,1.1,1.76,1.76,0,0,0,.45,1.24,2.88,2.88,0,0,0,1.31.76,2.46,2.46,0,0,1-1.64-.38,2.22,2.22,0,0,1-.93-1.57,2.36,2.36,0,0,1,.59-1.84,2.25,2.25,0,0,1,.88-.56l.5-.1.22-.06a2,2,0,0,0,.82-.94,9.24,9.24,0,0,0,.6-1.39C550.12,103,550.39,102,550.7,100.94Z"/></g><path class="cls-43" d="M556.07,104.13a2.06,2.06,0,1,0,2.74-1A2.07,2.07,0,0,0,556.07,104.13Z"/><path class="cls-43" d="M542.53,101A2,2,0,1,0,545,99.62,2,2,0,0,0,542.53,101Z"/><path class="cls-57" d="M540.66,96.94c1.38-1.56,5.9-2.49,6.72.19a.2.2,0,0,1-.34.21A3.42,3.42,0,0,0,543.9,96a8.46,8.46,0,0,0-3.12,1,.1.1,0,0,1-.12-.14Z"/><path class="cls-57" d="M562,103.12c-.21-2.07-3.35-5.46-5.57-3.76a.2.2,0,0,0,.15.36,3.44,3.44,0,0,1,3.31.78,8.38,8.38,0,0,1,1.93,2.67c0,.08.19,0,.18,0Z"/><path class="cls-2" d="M556.75,104.29a.69.69,0,1,0,.91-.37A.69.69,0,0,0,556.75,104.29Z"/><path class="cls-2" d="M543.16,100.7a.69.69,0,1,0,.91-.36A.69.69,0,0,0,543.16,100.7Z"/><path class="cls-2" d="M553.71,115.61a41.84,41.84,0,0,1-6.23-1.36c-.91-.27-1.69.35-1.47,1.17.68,2.53,2,4.14,4.57,4.85s4.16-1.46,4.38-3.27A1.37,1.37,0,0,0,553.71,115.61Z"/><path class="cls-13" d="M570.48,105.5s-6.18-5.66-11.37-7.6S550.66,95,550.66,95a15.09,15.09,0,0,1,0-6.06s-1.39,3.74-2,5.72c0,0-6.17-.67-8.79,1.22l7-16.93,15.56,1.88L572.63,88l3.76,8.65Z"/><path class="cls-53" d="M551.79,84.7c-.26,3.36-.25,7.49,1.37,10.55.08.14.52-.13.43-.29-1.75-3-1.77-7-1.51-10.44,0-.34-.27,0-.29.18Z"/><path class="cls-53" d="M552.6,86.11A28.4,28.4,0,0,0,560.46,99c.12.12.48-.27.35-.38a25.93,25.93,0,0,1-7.88-12.86c0-.15-.38.21-.33.38Z"/><path class="cls-53" d="M553.56,85.07a34.12,34.12,0,0,0,7.81,7.64c4,2.91,8.77,6.33,8,12.06,0,.21.42,0,.42-.21a11.44,11.44,0,0,0-4-9c-4-3.76-8.51-6.2-11.78-10.76-.1-.15-.54.13-.44.26Z"/><path class="cls-53" d="M578.34,82.45a60.28,60.28,0,0,1,6.33,12.45c2,5.43,1.88,11.36,2.49,17.06,1.26,11.78,8.5,22.39,15.53,31.62.09.12.28,0,.2-.11a165.54,165.54,0,0,1-10.24-16,43.91,43.91,0,0,1-3.94-8.56,52.52,52.52,0,0,1-1.63-10.73c-.42-4.92-.69-9.71-2.55-14.32a59,59,0,0,0-6.09-11.52c0-.06-.15,0-.1.06Z"/><path class="cls-53" d="M571,75.78c7,5,12,12.64,15.6,20.35,3.85,8.39,4.54,17.49,7.18,26.23,1,3.2,2.14,6.51,4.29,9.12s5.21,5.07,7.13,8.1c2.43,3.82,2.57,9.06,1.12,13.25-1.64,4.74-5.8,10.4-11.33,10.21a.15.15,0,0,0,0,.29c6.32.36,10.95-6.78,12.17-12.24a17,17,0,0,0-.67-9.65,18.59,18.59,0,0,0-4.2-5.84c-2.22-2.38-4.62-4.6-6-7.57a56.33,56.33,0,0,1-4-13c-1.55-7.46-3.14-14.66-6.64-21.49s-8.21-13.5-14.53-18c-.11-.08-.22.11-.11.19Z"/><path class="cls-58" d="M566.11,444.94s1.07.92,1.7,3.7a2.13,2.13,0,0,1-1.9,2.59c-3.39.3-9.87.69-14.13-.14-6-1.19-6.77.78-14.33.7s-15-.47-15.51-5.35l31.81-1.89Z"/><path class="cls-58" d="M593.45,456.85a3.47,3.47,0,0,0,.24,3.54c1.26,1.57,8.42,2.52,14.48-.16s7.64-10.23,9.68-13.3,7.33-6.25,8-8.77,1.1-6.42-2.29-8.55L608,446.46Z"/><path class="cls-59" d="M561.23,419.35c.08.47-.91,9.5,1.1,13.28l-7.24,7-15.2,3.62,2.13-6.38,5.62-4.19s3-9.16,1.07-16.52C547.46,411.2,561.23,419.35,561.23,419.35Z"/><path class="cls-59" d="M619.35,426.15s-5.51-6.3-6.22-13.07S602.82,417,602.82,417A23,23,0,0,1,605,430.81c-1.25,9.2,4.37,13.52,7.76,10.92S619.35,426.15,619.35,426.15Z"/><path class="cls-60" d="M566.41,446.53c1.44-.17.08-4.32-.7-6.37L562.23,431c-2.08,2-4.36,4.24-7,5.41a22.51,22.51,0,0,1-4.11,1.28c-1.87.44-3.2.72-5.1,1a13.89,13.89,0,0,1,1.44-1.43,3.3,3.3,0,0,0,1.3-2,3.4,3.4,0,0,0-1.14-2.64,8.41,8.41,0,0,0-2.08-1.58,2.4,2.4,0,0,0-3.54.45c-1.25,1.43-2,3.23-3.31,4.63-2.15,2.36-5.4,3.31-8.48,4.16l-3.6,1a8.38,8.38,0,0,0-2.49,1,4.53,4.53,0,0,0-2.2,4.18S534.65,450.35,566.41,446.53Z"/><path class="cls-60" d="M617.89,423.62a4.38,4.38,0,0,1-.41,2.18c-1.24,3.32-2.55,6.74-5,9.28a24.63,24.63,0,0,0,1-5,5.06,5.06,0,0,0-.21-2.65,3.69,3.69,0,0,0-3.12-2,8.54,8.54,0,0,0-3.77.78,26.55,26.55,0,0,1-3.63,1.38,3.21,3.21,0,0,0-1.37.52,2.39,2.39,0,0,0-.62,1.94,8.61,8.61,0,0,0,.79,3.35,3.16,3.16,0,0,1,.27.7,2.63,2.63,0,0,1,0,.74c-.14,1.55-.27,3.09-.4,4.64-.23,2.56-1.56,4.75-2.75,7a54.48,54.48,0,0,1-3.52,6.07,10.47,10.47,0,0,0-1.89,3.34,2.87,2.87,0,0,0,1.24,3.33s10.07,2,15.34-3.15,3.63-10.16,7.4-13.78,7.8-7.71,6.93-10.94S617.89,423.62,617.89,423.62Z"/><path class="cls-61" d="M532.05,404.73c-1.24,1.19-1.41,3.08-1.51,4.8-.16,2.7-.06,5-.22,7.71,7.13,1.58,14.3,3.16,21.59,3.52s14.88-.2,21.44-3.41c.55-4.54-2.49-8.55-2.65-13.13-.56-15.78-1.14-32.3-1.7-48.08a221.71,221.71,0,0,0,16.45,46.07c1.18,2.44,2.36,5.4,2.15,8.1-.19.11-.2-.36,0-.34s.32.29.37.5c.64,2.95,1,6.64,1.6,9.58,7.94,2.47,16.74-.24,23.55-5,4.49-3.15,7.82-7.61,10.79-12.23-7.15-23.1-21.36-44.15-22.86-68.28-1.89-30.21-3.89-61-14.72-89.22-2.18-5.69-7-9.95-7.91-16a56.54,56.54,0,0,1-.37-14.41.54.54,0,0,0-.12-.5c-.13-.11-.4.08-.28.21a207.28,207.28,0,0,0-24-3.29c-5-.31-10.23-.42-15,1.24-.22,3.45-.52,7-.73,10.49-.12,1.88-.27,3.86-1.34,5.41-7.27,10.59-6.88,25.13-7.44,38-.24,5.54-.12,11.08,0,16.61C530,323.55,531.2,364.25,532.05,404.73Z"/><path class="cls-62" d="M568.85,406.13a55.41,55.41,0,0,1-18.11,2.79c-6.35-.18-11.91-2-17.94-3.65a.19.19,0,0,0-.15.34c5.14,2.93,11.83,3.88,17.66,4.05A45.81,45.81,0,0,0,569,406.47c.2-.08.13-.41-.1-.34Z"/><path class="cls-62" d="M588.78,410.6c2.31.75,4.53.14,6.8-.49a62,62,0,0,0,8.27-2.94c4.42-1.94,10.21-4.46,12.38-9.11a.18.18,0,0,0-.32-.18c-2.75,4-7.3,6.27-11.63,8.24a62.24,62.24,0,0,1-7.15,2.72c-2.57.79-5.48,1.89-8.16,1.07-.44-.13-.62.55-.19.69Z"/><path d="M576.35,226.06a88.43,88.43,0,0,0-38.15-2l.21.77,1-.42a.29.29,0,0,0-.15-.55l-1.1.2c-.51.09-.28.84.21.77a95.68,95.68,0,0,1,37.79,1.77.28.28,0,0,0,.15-.54Z"/><path d="M553,217.29c-1.67.68-3,2.24-2.53,4.14a3,3,0,0,0,4.13,1.89.19.19,0,0,0,0-.35c-1.3-.35-2.9.11-3.45-1.56s.64-3,2-3.57c.34-.14.19-.69-.15-.55Z"/><path d="M554.74,220.08c.39.1.37.67.11.91a.85.85,0,0,1-1.07-.07.73.73,0,0,1,.06-1c.23-.21.55-.17.72-.43a.2.2,0,0,0,0-.22l0-.05a.3.3,0,0,0-.28-.16,1.36,1.36,0,0,0-.19,2.68,1.22,1.22,0,0,0,1.44-.74,1,1,0,0,0-.63-1.35c-.31-.07-.45.4-.13.48Z"/><path d="M550.46,224.34c-1.61,6.46-1.64,13.55-1.77,20.17s-.5,13.71.45,20.31c.05.34.54.22.56-.08.58-6.65-.19-13.54-.11-20.23s.95-13.4,1.24-20.12a.19.19,0,0,0-.37,0Z"/><path d="M547.45,224.48c-.25,5.61-1.33,11-2.1,16.51-.47,3.34.27,6.37,3.64,7.7.26.1.48-.29.28-.47-2.08-1.79-3.29-3-3.15-5.93.11-2.07.66-4.14,1-6.18a92.42,92.42,0,0,0,1-11.63.3.3,0,0,0-.59,0Z"/><path d="M551.14,265.18a103.69,103.69,0,0,1,10.76-2.08c.22,0,.17-.4,0-.39a47.39,47.39,0,0,0-10.91,1.74.38.38,0,0,0,.2.73Z"/><path d="M549,266.2a17,17,0,0,0-9.14-8.19c-.26-.1-.44.33-.19.45a19.75,19.75,0,0,1,9,7.94c.12.22.45,0,.34-.2Z"/><path d="M549.62,264.49a24.63,24.63,0,0,0-5.59-8.12.19.19,0,0,0-.27.27,33.87,33.87,0,0,1,5.32,8.17c.16.37.71.05.54-.32Z"/><path d="M550.35,266.19a38,38,0,0,1,12.18,6.86c.2.17.48-.11.29-.29a30.74,30.74,0,0,0-12.35-7c-.29-.09-.4.34-.12.44Z"/><path d="M571.6,227.38c1.1,6.17,5.54,13.07,11.88,14.9a.24.24,0,0,0,.18-.43c-2.7-1.66-5.26-3.18-7.31-5.68a19.38,19.38,0,0,1-4.05-9c-.08-.46-.78-.26-.7.19Z"/><path d="M540.45,225a43.19,43.19,0,0,1-2.37,10.18,17.83,17.83,0,0,1-6.54,7.86c-.21.15-.09.56.19.46,7.14-2.58,8.48-12,9.34-18.42,0-.35-.57-.44-.62-.08Z"/><path d="M567.94,355.11c-2.71-14.65-6.81-29.08-10-43.63a199.56,199.56,0,0,1-3.19-22.17,177.86,177.86,0,0,0-3.77-21c-.06-.3-.52-.17-.45.12,1.56,7.51,3.2,15,3.83,22.7a160.43,160.43,0,0,0,3.08,20.45c1.53,7.2,3.29,14.34,4.95,21.5,1.71,7.35,3.18,14.82,5.21,22.09a.17.17,0,0,0,.33-.09Z"/><path class="cls-61" d="M527.7,119.45c1.15-.19,2.25.76,3.4.56,1.36-.23,1.93-1.85,2.19-3.21a35.79,35.79,0,0,0,.58-11,3.9,3.9,0,0,0-.57-1.84,4.29,4.29,0,0,0-2.46-1.33q-8.83-2.39-17.85-4c-2.75,3.08-3.62,7.64-1.34,11.08,1.94,2.92,5.28,4.51,8.47,6C522.86,117,525,118.2,527.7,119.45Z"/><path class="cls-63" d="M508.62,101.65a33.68,33.68,0,0,0-.86,8.37,6.6,6.6,0,0,0,.29,2c.57,1.65,2.21,2.66,3.79,3.43A37.2,37.2,0,0,0,529,119.16a1.91,1.91,0,0,0,1.06-.24,1.94,1.94,0,0,0,.65-1.09,21,21,0,0,0,.73-8.63,4.42,4.42,0,0,0-.78-2.27,4.79,4.79,0,0,0-1.69-1.17,87.54,87.54,0,0,0-15.9-6,6.68,6.68,0,0,0-2.34-.31,2.36,2.36,0,0,0-1.93,1.18,7,7,0,0,0-.36,1.64,1.49,1.49,0,0,1-1,1.24"/><path class="cls-19" d="M520.2,125.65a27.65,27.65,0,0,1-1.9-5.14,15.82,15.82,0,0,1,0-4,38.26,38.26,0,0,1,1.47-8.86c.18-.55.67-1.21,1.18-1a1,1,0,0,1,.42.83c.25,2.28-.74,4.63-.13,6.85.37-4,4.09-11.14,5.93-10.57a.31.31,0,0,1,.18.23,3.9,3.9,0,0,1-.69,2.92c1.09-1.27,3-3.83,4.09-2.82a4.61,4.61,0,0,1-.84,3.24c.19-.63,1.28-.3,1.41.35a3,3,0,0,1-.6,1.85,8.76,8.76,0,0,0-.49,6,24.68,24.68,0,0,0,.92,3.07c.27.74.63,2.07,1.49.89a3.13,3.13,0,0,0,.46-1.27,21.57,21.57,0,0,0,.62-3.47c0-.46-.56-1.75.22-1.91.31-.06.55.26.71.54a14.51,14.51,0,0,1,2,5.52,6.75,6.75,0,0,1-1.7,5.45c-1.65,1.64-4.49,2.39-4.93,4.66a5.94,5.94,0,0,0,.24,2.47,48.91,48.91,0,0,1,1.23,8.15,3.07,3.07,0,0,1-.11,1.32,3,3,0,0,1-.77,1c-2.18,2.05-5.65,3.42-8,.73a5.65,5.65,0,0,1-1.06-1.86c-1-2.7-.35-4.94-.15-7.59A17.87,17.87,0,0,0,520.2,125.65Z"/><path class="cls-63" d="M512.9,96.91a1.44,1.44,0,0,1,.29-1,1.42,1.42,0,0,1,1-.24l1.79,0a1.27,1.27,0,0,1,.58.09c.45.21.53.82.51,1.32a13.89,13.89,0,0,1-.55,3.51c-.11.39-3-.29-3.3-.58C512.54,99.29,512.89,97.82,512.9,96.91Z"/><path class="cls-39" d="M513.07,99.92c1.06,1.07,3,1.47,4.43,1.94,2.64.89,5.25,1.83,7.9,2.68.4.13.3-.48,0-.61a42.43,42.43,0,0,0-6.08-2.2c-2.1-.64-4.1-1.55-6.18-2.21-.24-.08-.21.29-.11.4Z"/><ellipse class="cls-64" cx="514.85" cy="109.29" rx="4" ry="4.5"/><ellipse class="cls-65" cx="513.1" cy="109.23" rx="4" ry="4.5"/><ellipse class="cls-66" cx="513.1" cy="109.23" rx="4" ry="4.5"/><path class="cls-19" d="M504.53,102.91a4,4,0,0,1-.73-1.59,1,1,0,0,1,.21-.92c.44-.41,1.08-.11,1.5.12a9.13,9.13,0,0,1,.84.53,4,4,0,0,1,.78.69A8.94,8.94,0,0,1,506,99.83a1.37,1.37,0,0,1-.09-.72.92.92,0,0,1,1.2-.63,3,3,0,0,1,1.38.9c-.4-.81-.95-1.69-.35-2.37a1.49,1.49,0,0,1,1.54-.34,3.43,3.43,0,0,1,1.37.92A10,10,0,0,1,513.8,103a.83.83,0,0,1-.13.74c-.31.33-.86,0-1.17-.33a13.8,13.8,0,0,1-1.55-2,8.12,8.12,0,0,1,1.17,2.66,1,1,0,0,1,0,.74.75.75,0,0,1-.82.3,1.81,1.81,0,0,1-.78-.5,7.5,7.5,0,0,1-1-1.16,7.43,7.43,0,0,1,.7,2.86.67.67,0,0,1-1,.78C507.27,106.46,505.68,104.42,504.53,102.91Z"/><path class="cls-19" d="M517.33,96.67a.64.64,0,0,0-.2-.38.86.86,0,0,0-.77-.06,6.25,6.25,0,0,1-2.94.19,2.64,2.64,0,0,1-2.07-1.9,1,1,0,0,1,0-.63c.18-.36.63-.47,1-.56a11.28,11.28,0,0,0,3.06-1.23,4.49,4.49,0,0,1,2.6-1,3.35,3.35,0,0,1,2.28,2,14,14,0,0,1,1.49,4.11,5,5,0,0,1-.08,2.83.83.83,0,0,1-.34.38,1.33,1.33,0,0,1-1,0c-.81-.17-2.13-.53-3.12-.86-.3-.1.07-.61.15-.9A4,4,0,0,0,517.33,96.67Z"/><path class="cls-33" d="M529.79,134a1,1,0,0,1,.94-.27,1.54,1.54,0,0,1,.65.64,9.72,9.72,0,0,1,.55,1,9.24,9.24,0,0,1,.84,3.22,3.89,3.89,0,0,1-.3,2.31,3.7,3.7,0,0,1-2.06,1.2,33,33,0,0,1-7.39,1.13c-1,.08-1.67.91-2.71,1a6.42,6.42,0,0,0-1.28.47c-.45-1.32-1.18-4-.91-5.41a3.14,3.14,0,0,1,2.67-2.69,10.3,10.3,0,0,0,1.24,0c1-.15,1.66-1.19,2.64-1.41s2.13.52,3.16.22a4.47,4.47,0,0,0,1.53-1.07C529.48,134.22,529.63,134.09,529.79,134Z"/><path class="cls-59" d="M547,130.38c.37-.11.89-.18,1.26-.29a6.88,6.88,0,0,1-.08.72,9.22,9.22,0,0,0,0,4.75,6.23,6.23,0,0,0,2.9,3.59,6.87,6.87,0,0,0,5,.43,8.4,8.4,0,0,0,3.44-1.69,6.68,6.68,0,0,0,2-3.72,16.49,16.49,0,0,0,.27-4.21c0-.35-.3-.88,0-1.08a2.47,2.47,0,0,1,1-.1c9.83.19,18.8,8.18,21.46,16.94,5.55,18.36,7.14,40.17,2.06,58.71l-2.85,10.41c-1,3.5-2.47,11.74-7.12,10.58-5.16-1.3-8.65-4.64-14.42-4.5-6.6.15-12.79-.95-19.28,1.11-4.6,1.46-8.68,4.38-13.24.62a11.59,11.59,0,0,1-3.83-9.25c.16-5.46,3.24-10.22,5.19-15.16,2-5.2,2.34-10.91,2.42-16.43.12-8.51-1.17-16.95-1.66-25.43a77.29,77.29,0,0,1,.14-12.73c.64-6.12,5.54-10.44,11.21-12.07Z"/><path class="cls-33" d="M506.3,120.63a3.64,3.64,0,0,1,1.17-1.63,1.37,1.37,0,0,1,1.83.16c.2.27.25.63.44.9.45.66,1.42.64,2.2.47a2.87,2.87,0,0,1,2.32.07,8.36,8.36,0,0,1,.91,1.05c1.23,1.23,3.89.58,4.52,2.2a2.94,2.94,0,0,1-.46,2.31c-.2.37-.85,1.49-1.26,1.56a1.46,1.46,0,0,1-.62-.09,22.53,22.53,0,0,1-4.51-2.1,14.77,14.77,0,0,0-2.43-1,10.31,10.31,0,0,0-1.91-.41,15.62,15.62,0,0,1-3.25-.4A11.64,11.64,0,0,1,506.3,120.63Z"/><path class="cls-59" d="M543.86,161.81c-.65,3.45-5.54,7.81-8.1,10a35.15,35.15,0,0,1-8.68,5.42c-1.08.48-2.17.91-3.28,1.29a58.19,58.19,0,0,1-12.12,2.68c-2.92.37-5.87.57-8.8.7a15.82,15.82,0,0,1-5.62-.44c-5.72-1.85-5.57-9.61-5.05-15.37.1-1.23.23-2.37.32-3.35a87.7,87.7,0,0,1,5.32-22.34c1.93-5.19,4.25-10.34,6.6-15.33,1.06-2.25,1.34-2.43,3.9-1.81a45.44,45.44,0,0,1,8.42,3.23,2.67,2.67,0,0,1,.83.53,1.93,1.93,0,0,1,.52,1.37c-.2,5.57-2.39,11.32-2.17,19.28a35.14,35.14,0,0,1,3.28-2.3,40.68,40.68,0,0,1,12.86-5.34l.94-.2a3.91,3.91,0,0,1,3.26.36,4,4,0,0,1,1,1.72c.47,1.21.94,2.42,1.4,3.63h0q2,5.26,4.07,10.52C543.5,157.92,544.23,159.88,543.86,161.81Z"/><path class="cls-59" d="M583.61,166.2a20.1,20.1,0,0,1,.66,6.22c-.22,2.2-1.7,3.57-3.06,5.24a130.6,130.6,0,0,1-9,9.93,24.43,24.43,0,0,1-6.43,4.75c-.72.39-1.45.76-2.19,1.12a81.07,81.07,0,0,1-10,4.15c-3.56,1.22-7.45,2.19-11,1a14.52,14.52,0,0,1-6.75-5.2c-.56-.7-1.08-1.43-1.57-2.16a70.14,70.14,0,0,1-7.17-14A124.73,124.73,0,0,1,521.64,158c-.67-3.18-1.26-6.38-1.82-9.59-.14-.77-.27-1.54-.41-2.31,0-.18-.1-.44-.18-.72a3.36,3.36,0,0,1-.18-1.53c.31-.85,3.42-1.39,4.32-1.76,2.73-1.12,5.55-2.62,8.47-2.14a.54.54,0,0,1,.25.09l0,0a.53.53,0,0,1,.16.28l1.11,3.15,5.31,2.06,13.49,5.22L577,160.35l3.93,1.52c1.86.71,2.32,2.4,2.71,4.24Z"/><path d="M540.31,438.61c-.16-2-.25-4-.24-6,0-1.51-.4-5,.43-6.34q3.38-.83,3.37,1.49a4.79,4.79,0,0,1,.1,1.51,10.13,10.13,0,0,1-1,3.65,28.63,28.63,0,0,1-3.13,4.87l.53.23a9.49,9.49,0,0,1,2.39-3.71,8.11,8.11,0,0,1,1.63-1.23,3.16,3.16,0,0,1,1.41-.51c1.8-.94,2.64.13,2.51,3.19-.6.88-2.4,1.61-3.35,2.05a20.6,20.6,0,0,1-4.72,1.44c-.47.09-.27.8.2.71,2.25-.43,12-3.42,8.85-7.27s-8.44,2.38-9.48,5.17c-.13.34.35.47.53.23,1.8-2.39,3.71-5,4.17-8.05.26-1.71.1-4.65-1.86-5.44-4.78-1.92-3,12.16-2.86,14,0,.36.59.37.56,0Z"/><path d="M605.24,440.87c-1.41-1.42-2.77-2.89-4-4.42-.9-1.08-1.77-2.17-2.59-3.31-.31-.4-.6-.82-.87-1.25q.49-3.47,2.21-2.33c3.85,1,4.2,7.92,4.37,11l.58-.08a9.81,9.81,0,0,1-.55-4.52,8.3,8.3,0,0,1,.54-2.14,3.25,3.25,0,0,1,.42-.93c.68-1.38,2.1-1.36,4.25.08.21,1.2-.8,3.27-1.28,4.3a20.71,20.71,0,0,1-2.66,4.14c-.3.37.22.9.52.53,1.46-1.8,7-10.32,2.18-11.31s-5,7.24-4,10c.11.29.6.27.58-.08-.16-2.94-.38-6.13-1.9-8.73-.9-1.54-2.64-3.45-4.64-3.19-5.74.75,5.36,11.55,6.48,12.67.25.25.65-.14.4-.4Z"/><path class="cls-39" d="M516.9,96.49a5.25,5.25,0,0,0-.21,2.07c-.05.76-.25,1.5-.29,2.26,0,.06,0,.17.11.11.59-.44.63-1.35.68-2a4.71,4.71,0,0,0-.11-2.39c0-.08-.13-.1-.18,0Z"/><path class="cls-39" d="M531.41,108.64c-.1,1.23.07,2.47,0,3.71a35.73,35.73,0,0,0-.48,3.81c0,.07.11.24.19.13a7.08,7.08,0,0,0,.85-3.5,11,11,0,0,0-.3-4.19c0-.17-.22-.12-.24,0Z"/><path class="cls-39" d="M516.91,99.72c2.44.68,4.91,1.22,7.36,1.79,2.25.53,5.5.68,7.4,2.08,2.42,1.76,2.09,7,1.93,9.48a22.47,22.47,0,0,1-.49,3.47c-.14.58-.3,1.15-.47,1.72-1.21.26-1.69-.11-1.44-1.12,0-.37-.68-.59-.67-.11,0,1,.48,4.15,2.23,2.54,1.11-1,1.21-3.95,1.4-5.33a24.45,24.45,0,0,0,.05-5.86c-.37-3.22-1.05-5.33-4.32-6.31a126.13,126.13,0,0,0-13-2.92c-.36-.06-.18.51.07.57Z"/><path d="M572.11,105.41s-2.66-.35-8.7,6.53a5.62,5.62,0,0,0,1.64.83s3.5-4.37,4.88-5.69C570.48,106.59,572.11,105.41,572.11,105.41Z"/><path d="M561.94,119.66l6.4-3.63,3.56-.69s-8.65,5.76-10.64,6.79A15.09,15.09,0,0,0,561.94,119.66Z"/><path d="M536.57,104.86c0,.53,0,1.06,0,1.6,0,1.23.08,2.46.21,3.69.69,7,3.92,14,9.9,16.34,4.93,1.58,12.3-.28,16.37-4.24.17-.16,1.76-1.54,2.15-2a5.66,5.66,0,0,0,1.47-2.65c.07-.37,0-.76.1-1.13v0a4.47,4.47,0,0,0,0-.72l-.78-4.12-.11-.09c-.15-.13-.46-.37-.9-.68C561.79,108.59,550.08,102.37,536.57,104.86Z"/><path d="M568.17,332.14c1.59,3.64,6.6,3.82,9.13,1.08.22-.25-.07-.67-.37-.48-2.78,1.66-6.23,2.37-8.11-1-.24-.43-.84-.05-.65.38Z"/><path d="M538.82,337c-.23,3.81,8.26,1.67,10,.92.29-.13.07-.55-.21-.49-1.19.23-9.08,2-9-.43,0-.52-.78-.52-.81,0Z"/><path d="M567.87,291.19c3-3.3,7.57-2.81,11.62-2.86a44.07,44.07,0,0,0,13.16-1.9.26.26,0,0,0-.14-.5c-2.93.53-5.8,1.21-8.77,1.48-2.56.24-5.11.2-7.68.27-3.2.08-6.54.5-8.53,3.25-.14.2.17.44.34.26Z"/><path d="M568.92,290.13c2.41,11.62,5.13,23.19,8.27,34.64.38,1.39.73,2.85,2,3.72,1.44,1,3.48.85,5.16.9,4.27.14,9.21.75,13.41-.17.27-.06.18-.42-.06-.45-4-.47-8.24,0-12.26-.11-2.25,0-5.49.44-6.86-1.85-1.23-2-1.54-5.11-2.14-7.39q-3.87-14.62-7-29.42c-.07-.3-.52-.17-.46.13Z"/><path d="M576.14,294.17a38.43,38.43,0,0,0,1.71,5.6,10.18,10.18,0,0,0,1.22,3.17c1.59,1.92,5.42.75,7.53.61s5.5.27,7.34-1c2.16-1.51.73-4.54,2.4-6.33.17-.18-.05-.5-.28-.36a3.25,3.25,0,0,0-1.37,2.6c-.29,1.82-.27,3.09-2.3,3.81-1.24.45-3.1.29-4.4.39l-3.72.28c-2.1.16-3.65.56-5.07-1.5a16.31,16.31,0,0,1-1.26-3.7,26.74,26.74,0,0,0-1.44-3.7c-.11-.21-.4-.06-.36.15Z"/><path d="M582.59,299.27a9,9,0,0,0,5.82-.77.39.39,0,0,0,.17-.43,2.05,2.05,0,0,0-2.69-1.22c-.94.43-1.56,1.92-.75,2.73a.25.25,0,0,0,.42-.17c0-.53-.19-1.07.21-1.52a1.22,1.22,0,0,1,2.08.38l.18-.43a8.75,8.75,0,0,1-5.26.76c-.43-.06-.62.57-.18.67Z"/><path class="cls-67" d="M522.11,144.71A60,60,0,0,0,530,142.3c.14-.06.06-.28-.07-.28a21.39,21.39,0,0,0-8.08,2.16c-.3.14-.08.62.22.53Z"/><path class="cls-67" d="M505.67,126.25a22.94,22.94,0,0,1,10,2.93c.2.1.41-.16.25-.32-2.49-2.47-6.91-3.24-10.27-3.15a.27.27,0,0,0,0,.54Z"/><path class="cls-67" d="M584.32,161.76A107,107,0,0,1,573,181c-4.41,5.83-9.4,12.35-16.47,14.93-.24.09,0,.61.24.54,7.18-2.11,12.47-9.16,16.79-14.92a86.06,86.06,0,0,0,11.21-19.43c.1-.25-.3-.67-.45-.35Z"/><path class="cls-67" d="M518.84,144.31c.11,6,1.6,12,3.2,17.81A137.9,137.9,0,0,0,527.46,179a58.26,58.26,0,0,0,7.44,12.89c2.67,3.45,6.54,6.7,11.2,5.69.17,0,.11-.38-.06-.37-6.38.6-10.28-4.62-13.34-9.45A62.8,62.8,0,0,1,526.19,174a140,140,0,0,1-7-29.62c0-.2-.35-.37-.35-.08Z"/><path class="cls-67" d="M532.29,140.51c3.77,9.64,11.27,17.54,17,26,.08.12.27.22.4.13,4.92-3.49,6.8-9.53,11-13.69.25-.24-.19-.79-.43-.55-2.4,2.38-4,5.29-5.87,8.09-1,1.48-2.36,3.94-4,4.76-1.24.64-1.28.12-2.06-1-.54-.78-1.09-1.55-1.64-2.32-5.09-7.07-10.17-13.85-14.17-21.62-.13-.25-.33,0-.25.18Z"/><path class="cls-67" d="M581.33,174.59c-.35,2.16.15,4.4.43,6.55.33,2.47.68,4.93,1.16,7.38,0,.14.18.1.17,0-.3-4.59-1.24-9.12-1.41-13.71,0-.16-.31-.49-.35-.19Z"/><path class="cls-67" d="M554.15,145c5.36-.89,10.34-5.82,11-11.27,0-.11-.11-.28-.18-.11-2,5.53-5.27,9.09-10.85,11-.13,0-.08.35.06.33Z"/><path class="cls-31" d="M520.23,125.41c-.39-1.18-.91-2.3-1.25-3.49s-.51-2.43-.82-3.63a.13.13,0,0,0-.26,0,13.3,13.3,0,0,0,2.13,7.16c.06.1.24,0,.2-.08Z"/><path class="cls-31" d="M521,114.13a3.06,3.06,0,0,0-.07,1.21,5,5,0,0,0,.17,1.22.11.11,0,0,0,.21,0,5.15,5.15,0,0,0,.1-1.3,2.85,2.85,0,0,0-.12-1.17c-.06-.14-.25-.08-.29,0Z"/><path class="cls-31" d="M527,106.51a12.92,12.92,0,0,0-2.29,8.43c0,.1.16.08.19,0,.44-1.36.56-2.83,1-4.22s1.07-2.69,1.45-4.08a.17.17,0,0,0-.3-.13Z"/><path class="cls-31" d="M530,106.83a11.79,11.79,0,0,0-2.93,7.92.12.12,0,0,0,.24,0c.36-1.26.65-2.54,1.11-3.77.51-1.39,1.33-2.59,1.92-3.93a.22.22,0,0,0-.34-.26Z"/><path class="cls-31" d="M506.85,101.58a14.66,14.66,0,0,0,1.39,1.34,5.84,5.84,0,0,0,1.45,1.27.12.12,0,0,0,.16-.17,6.17,6.17,0,0,0-1.22-1.61,3.73,3.73,0,0,0-1.52-1.16c-.18,0-.38.16-.26.33Z"/><path class="cls-31" d="M508.29,99.3c.5.46,1,.91,1.48,1.39a17.72,17.72,0,0,0,1.4,1.47.09.09,0,0,0,.15-.09,6.13,6.13,0,0,0-2.82-3,.17.17,0,0,0-.21.27Z"/><path class="cls-67" d="M515.85,147.2a15.47,15.47,0,0,0-3.78,2.61,20.39,20.39,0,0,0-3.1,3.13c-.11.14.08.53.26.38,1.1-.93,2.15-1.91,3.26-2.82a42.62,42.62,0,0,0,3.65-2.82c.16-.17-.06-.57-.29-.48Z"/><path class="cls-67" d="M549.55,166.58c.54,1.75,1.18,3.53,1.81,5.25.07.17.29.14.27-.05a15.16,15.16,0,0,0-1.78-5.39c-.15-.26-.38,0-.3.19Z"/><path class="cls-33" d="M492.34,91.78a39.44,39.44,0,0,0,4.62,2.8c.15.07.34-.13.19-.25a37.27,37.27,0,0,0-4.52-3c-.32-.2-.6.29-.29.5Z"/><path class="cls-33" d="M496.87,86.62a13.25,13.25,0,0,1,3.44,4.48c.1.18.34.05.31-.13a7.17,7.17,0,0,0-3.47-4.71c-.22-.14-.49.19-.28.36Z"/></g></g></svg>