<svg xmlns="http://www.w3.org/2000/svg" width="850" height="634" viewBox="0 0 850 634">
    <g fill="none">
        <path fill="#EBEBEB" d="M0 556.665H850V557.665H0zM564.587 568.242H730.507V569.242H564.587zM491.3 578.051H570.639V579.051H491.3zM732.207 584.018H764.83V585.018H732.207zM214.999 578.272H372.29999999999995V579.272H214.999zM166.039 578.272H199.86899999999997V579.272H166.039zM98.243 571.098H154.105V572.098H98.243zM402.9 480.845H74.647c-5.354-.01-9.69-4.353-9.69-9.707V9.707c0-5.354 4.336-9.698 9.69-9.707H402.9c5.361 0 9.707 4.346 9.707 9.707v461.431c0 2.574-1.023 5.043-2.843 6.864-1.82 1.82-4.29 2.843-6.864 2.843zM74.647.425c-5.12.01-9.265 4.162-9.265 9.282v461.431c0 5.12 4.145 9.273 9.265 9.282H402.9c5.122-.01 9.273-4.16 9.282-9.282V9.707c-.01-5.122-4.16-9.273-9.282-9.282H74.647zM770.627 480.845h-328.27c-5.357-.01-9.698-4.35-9.707-9.707V9.707C432.66 4.35 437 .009 442.357 0h328.27c5.348.019 9.673 4.36 9.673 9.707v461.431c0 5.348-4.325 9.688-9.673 9.707zM442.357.425c-5.122.01-9.273 4.16-9.282 9.282v461.431c.01 5.122 4.16 9.273 9.282 9.282h328.27c5.122-.01 9.273-4.16 9.282-9.282V9.707c-.01-5.122-4.16-9.273-9.282-9.282h-328.27z"/>
        <path fill="#F0F0F0" d="M664.819 541.008L151.351 541.008 120.734 192.712 634.202 192.712z"/>
        <path fill="#E0E0E0" d="M142.29 552.109L151.351 541.008 120.734 192.712 111.673 203.966z"/>
        <path fill="#FAFAFA" d="M158.1 527.782l-28.169-320.841c-.138-1.615.407-3.214 1.502-4.41 1.095-1.194 2.64-1.876 4.261-1.88h485.962c3.003 0 5.507 2.295 5.763 5.287l28.203 320.841c.143 1.616-.4 3.218-1.496 4.415-1.096 1.196-2.644 1.875-4.267 1.875H163.897c-3.016.02-5.54-2.282-5.797-5.287z"/>
        <path fill="#E0E0E0" d="M223.533 541.008L146.166 541.008 140.692 556.665 218.059 556.665z"/>
        <path fill="#F5F5F5" d="M223.533 541.008L732.207 541.008 726.733 556.665 218.059 556.665z"/>
        <path fill="#E0E0E0" d="M432.99 541.008L530.502 541.008 529.448 551.259 431.953 551.259zM580.754 169.847h123.199c10.2 67.592-37.009 123.199-104.601 123.199-22.39-.197-44.391-5.864-64.09-16.507l45.492-106.692z"/>
        <path fill="#EBEBEB" d="M580.754 169.847l64.923-94.367c15.504 11.523 28.69 25.874 38.862 42.296 9.9 15.878 16.503 33.587 19.414 52.071H580.754z"/>
        <path fill="#E6E6E6" d="M580.754 169.847L562.139 46.648c14.734.063 29.354 2.573 43.265 7.429 14.447 5.017 28.031 12.237 40.273 21.403l-64.923 94.367z"/>
        <path fill="#F0F0F0" d="M580.754 169.847l-45.492 106.692c-41.395-21.981-71.077-62.73-77.707-106.692-10.2-67.575 36.992-123.199 104.584-123.199l18.615 123.199z"/>
        <path fill="#EBEBEB" d="M428.655 389.708h109.293c1.444 9.363 1.627 18.877.544 28.288-1.032 9.071-3.368 17.946-6.936 26.35l-102.901-54.638z"/>
        <path fill="#E0E0E0" d="M428.655 389.708l2.737-107.627c26.765 4.882 51.356 17.95 70.38 37.4 19.482 19.669 32.3 44.557 36.176 70.244l-109.293-.017z"/>
        <path fill="#F0F0F0" d="M428.655 389.708l-97.036 37.4c-6.091-11.716-10.226-24.35-12.24-37.4C310.318 329.8 352.206 280.5 412.148 280.5c6.451.02 12.89.589 19.244 1.7l-2.737 107.508z"/>
        <path fill="#FFF" d="M428.655 389.708l102.901 54.638c-14.399 33.762-47.396 54.638-86.377 54.638-45.9 0-91.375-28.9-113.56-71.91l97.036-37.366z"/>
        <g fill="#F5F5F5" transform="translate(95.2 594.3)">
            <ellipse cx="329.8" cy="19.893" rx="329.613" ry="19.244"/>
        </g>
        <g>
            <path fill="#FFF" d="M283.903 281.931H130.767c-9.952-.19-18.176-7.82-19.108-17.731l-7.667-94.146c-.45-4.56 1.064-9.096 4.163-12.471 3.1-3.375 7.49-5.27 12.072-5.209h153.119c9.931.195 18.144 7.794 19.108 17.68l7.667 94.146c.477 4.568-1.024 9.122-4.124 12.51-3.1 3.39-7.502 5.29-12.094 5.221z" transform="translate(125.1 31.6)"/>
            <path fill="#407BFF" d="M283.903 282.679H130.767c-10.316-.178-18.855-8.072-19.839-18.343l-7.667-94.163c-.465-4.769 1.124-9.51 4.37-13.034 3.245-3.525 7.84-5.499 12.63-5.428H273.38c10.316.178 18.855 8.072 19.839 18.343l7.633 94.146c.465 4.769-1.124 9.51-4.37 13.034-3.245 3.525-7.84 5.499-12.63 5.428l.051.017zM120.227 153.172c-4.374-.054-8.564 1.756-11.523 4.978-2.96 3.222-4.407 7.55-3.981 11.904l7.667 94.146c.914 9.514 8.82 16.828 18.377 17h153.136c4.376.076 8.576-1.725 11.536-4.949 2.961-3.224 4.4-7.561 3.951-11.915l-7.667-94.163c-.922-9.51-8.824-16.82-18.377-17.001H120.227z" transform="translate(125.1 31.6)"/>
            <path fill="#E0E0E0" d="M242.338 254.442c-6.07 6.565-13.873 11.28-22.508 13.6l-2.533-7.242c18.853-5.1 31.62-22.729 29.92-43.622-1.094-12.248-6.742-23.64-15.827-31.926l4.879-5.321c22.1 20.451 24.837 54.077 6.069 74.511z" transform="translate(125.1 31.6)"/>
            <path fill="#263238" d="M236.269 179.948l-4.879 5.321c-8.95-8.402-20.738-13.125-33.014-13.226-11.685-.142-22.886 4.662-30.838 13.226l-5.763-5.321c9.295-9.973 22.357-15.575 35.989-15.436 14.316.138 28.058 5.647 38.505 15.436z" transform="translate(125.1 31.6)"/>
            <path fill="#407BFF" d="M219.83 268.076c-17.765 4.862-37.621-.34-51.986-13.6-22.1-20.4-24.837-54.06-6.069-74.494l5.763 5.321c-7.872 8.675-11.729 20.264-10.625 31.926 2.023 24.922 23.885 45.152 48.824 45.152 3.904.003 7.791-.512 11.56-1.53l2.533 7.225zM63.039.258H75.313V1.737H63.039zM23.174.258H51.122V1.737H23.174z" transform="translate(125.1 31.6)"/>
            <path fill="#FFF" d="M181.138 135.578H28.019c-9.896-.189-18.096-7.732-19.108-17.578L1.244 23.752c-.45-4.559 1.064-9.093 4.164-12.466 3.1-3.372 7.49-5.263 12.071-5.197h153.119c9.926.194 18.136 7.783 19.108 17.663L197.373 118c.425 4.545-1.101 9.056-4.198 12.409-3.097 3.353-7.473 5.232-12.037 5.169z" transform="translate(125.1 31.6)"/>
            <path fill="#407BFF" d="M181.138 136.309H28.019C17.715 136.133 9.181 128.257 8.18 118L.513 23.82c-.465-4.769 1.124-9.51 4.37-13.034 3.245-3.525 7.84-5.499 12.63-5.428h153.119c10.316.178 18.855 8.072 19.839 18.343l7.667 94.146c.465 4.769-1.124 9.51-4.37 13.034-3.245 3.525-7.84 5.499-12.63 5.428zM17.479 6.82c-4.383-.082-8.59 1.72-11.555 4.948C2.96 14.996 1.521 19.34 1.975 23.7l7.667 94.146c.922 9.51 8.824 16.82 18.377 17h153.119c4.376.08 8.577-1.716 11.54-4.937 2.965-3.22 4.407-7.556 3.964-11.91l-7.667-94.18c-.922-9.51-8.824-16.82-18.377-17H17.479z" transform="translate(125.1 31.6)"/>
            <path fill="#E0E0E0" d="M15.099 33.102L96.24 33.102 95.577 25.095 14.436 25.095z" transform="translate(125.1 31.6)"/>
            <path fill="#407BFF" d="M177.381 33.102L96.24 33.102 95.577 25.095 176.735 25.095z" transform="translate(125.1 31.6)"/>
            <path fill="#E0E0E0" d="M16.799 53.978L39.936 53.978 39.29 45.954 16.136 45.954z" transform="translate(125.1 31.6)"/>
            <path fill="#407BFF" d="M179.081 53.978L39.936 53.978 39.29 45.954 178.435 45.954z" transform="translate(125.1 31.6)"/>
            <path fill="#E0E0E0" d="M18.499 74.837L90.715 74.837 90.069 66.83 17.836 66.83z" transform="translate(125.1 31.6)"/>
            <path fill="#407BFF" d="M180.781 74.837L90.715 74.837 90.069 66.83 180.135 66.83z" transform="translate(125.1 31.6)"/>
            <path fill="#E0E0E0" d="M20.199 95.713L143.466 95.713 142.803 87.689 19.536 87.689z" transform="translate(125.1 31.6)"/>
            <path fill="#407BFF" d="M182.481 95.713L143.466 95.713 142.803 87.689 181.818 87.689z" transform="translate(125.1 31.6)"/>
            <path fill="#E0E0E0" d="M21.882 116.572L78.9 116.572 78.254 108.565 21.236 108.565z" transform="translate(125.1 31.6)"/>
            <path fill="#407BFF" d="M184.181 116.572L78.9 116.572 78.254 108.565 183.518 108.565z" transform="translate(125.1 31.6)"/>
            <path fill="#FFF" d="M390.476 135.578H237.357c-9.877-.214-18.047-7.75-19.057-17.578l-7.667-94.163c-.475-4.56 1.019-9.107 4.106-12.497 3.088-3.39 7.476-5.3 12.061-5.252h153.136c9.926.195 18.136 7.784 19.108 17.664L406.711 118c.42 4.543-1.109 9.051-4.204 12.403-3.096 3.352-7.469 5.233-12.031 5.175z" transform="translate(125.1 31.6)"/>
            <path fill="#407BFF" d="M390.476 136.309H237.357c-10.29-.22-18.803-8.071-19.856-18.309L209.8 23.82c-.465-4.769 1.124-9.51 4.37-13.034 3.245-3.525 7.84-5.499 12.63-5.428h153.136c10.316.178 18.855 8.072 19.839 18.343l7.667 94.146c.465 4.769-1.124 9.51-4.37 13.034-3.245 3.525-7.84 5.499-12.63 5.428h.034zM226.8 6.82c-4.38-.077-8.582 1.727-11.543 4.954-2.962 3.228-4.397 7.57-3.944 11.927l7.667 94.146c.922 9.51 8.824 16.82 18.377 17h153.119c4.334.032 8.482-1.764 11.424-4.947 2.95-3.227 4.406-7.546 4.012-11.9l-7.599-94.18c-.922-9.51-8.824-16.82-18.377-17H226.8z" transform="translate(125.1 31.6)"/>
            <path fill="#E0E0E0" d="M313.721 116.572L311.018 116.572 303.572 25.095 306.275 25.095z" transform="translate(125.1 31.6)"/>
            <path fill="#407BFF" d="M317.801 78.56L300.75 78.56 297.826 42.809 314.894 42.809z" transform="translate(125.1 31.6)"/>
            <path fill="#E0E0E0" d="M280.146 116.572L277.443 116.572 269.997 25.095 272.7 25.095z" transform="translate(125.1 31.6)"/>
            <path fill="#407BFF" d="M284.889 86.499L267.821 86.499 265.271 55.168 282.322 55.168z" transform="translate(125.1 31.6)"/>
            <path fill="#E0E0E0" d="M246.588 116.572L243.885 116.572 236.439 25.095 239.142 25.095z" transform="translate(125.1 31.6)"/>
            <path fill="#263238" d="M249.223 60.727L232.172 60.727 230.421 39.205 247.472 39.205z" transform="translate(125.1 31.6)"/>
            <path fill="#E0E0E0" d="M347.279 116.572L344.576 116.572 337.13 25.095 339.833 25.095z" transform="translate(125.1 31.6)"/>
            <path fill="#263238" d="M353.008 98.858L335.957 98.858 331.401 42.809 348.452 42.809z" transform="translate(125.1 31.6)"/>
            <path fill="#E0E0E0" d="M380.854 116.572L378.134 116.572 370.688 25.095 373.391 25.095z" transform="translate(125.1 31.6)"/>
            <path fill="#407BFF" d="M387.127 105.573L370.076 105.573 366.421 60.693 383.472 60.693z" transform="translate(125.1 31.6)"/>
            <path fill="#FFF" d="M226.613 427.094H73.477c-9.922-.201-18.129-7.787-19.108-17.663l-7.65-94.231c-.456-4.557 1.054-9.092 4.152-12.465 3.097-3.373 7.487-5.264 12.066-5.198h153.136c9.926.194 18.136 7.783 19.108 17.663l7.667 94.163c.466 4.568-1.041 9.118-4.142 12.505-3.101 3.387-7.501 5.288-12.093 5.226z" transform="translate(125.1 31.6)"/>
            <path fill="#407BFF" d="M226.613 427.825H73.477c-10.313-.185-18.847-8.076-19.839-18.343l-7.667-94.146c-.47-4.771 1.117-9.517 4.363-13.045 3.246-3.529 7.843-5.506 12.637-5.434h153.136c10.282.248 18.771 8.11 19.805 18.343l7.667 94.146c.465 4.769-1.124 9.51-4.37 13.034-3.245 3.525-7.84 5.499-12.63 5.428l.034.017zM62.937 298.336c-4.376-.076-8.576 1.725-11.536 4.949-2.961 3.224-4.4 7.561-3.951 11.915l7.65 94.163c.914 9.507 8.81 16.82 18.36 17h153.136c4.38.077 8.582-1.727 11.543-4.954 2.962-3.228 4.397-7.57 3.944-11.927l-7.65-94.146c-.914-9.514-8.82-16.828-18.377-17H62.937z" transform="translate(125.1 31.6)"/>
            <path fill="#407BFF" d="M83.66 360.097L116.657 398.228 154.516 339.85 177.908 370.025 183.62 361.202 221.887 407.068 74.939 407z" transform="translate(125.1 31.6)"/>
            <path fill="#E0E0E0" d="M193.837 362.46L178.503 395.304 129.577 317.631 106.542 366.965 99.147 355.235 74.956 407.068 221.87 406.983z" transform="translate(125.1 31.6)"/>
        </g>
        <g>
            <path fill="#407BFF" d="M175.596 81.787c4.097 7.684 7.616 15.3 10.931 23.188 3.32 7.971 6.158 16.135 8.5 24.446.595 2.125 1.105 4.284 1.598 6.477.382 1.509.61 3.052.68 4.607.058 1.54-.028 3.083-.255 4.607-.891 4.947-2.616 9.706-5.1 14.076-4.277 7.767-9.628 14.893-15.895 21.165-1.664 1.696-4.318 1.923-6.246.535-1.928-1.39-2.554-3.978-1.472-6.094l.119-.221c3.765-6.953 7.037-14.162 9.792-21.573 1.168-3.116 1.873-6.386 2.091-9.707.006-.536-.04-1.07-.136-1.598-.026-.174-.072-.346-.136-.51l-.323-.986c-.561-1.836-1.139-3.672-1.819-5.508-2.584-7.395-5.763-14.807-9.078-22.1-3.315-7.293-6.8-14.79-10.336-21.879v-.136c-2.432-4.737-.563-10.548 4.174-12.98 4.736-2.431 10.547-.563 12.979 4.174l-.068.017z" transform="translate(458.3 95.2)"/>
            <path fill="#7F3E3B" d="M170.275 173.842l-8.109 2.55 9.554 11.186c2.314-2.179 4.034-4.911 4.998-7.939.427-1.597-.183-3.291-1.53-4.25l-1.36-.969c-1.027-.743-2.344-.957-3.553-.578z" transform="translate(458.3 95.2)"/>
            <path fill="#7F3E3B" d="M150.98 183.294L161.214 191.403 171.72 187.578 162.166 176.392z" transform="translate(458.3 95.2)"/>
            <path fill="#263238" d="M116.045 24.922c-.204 1.003-.901 1.7-1.564 1.581s-1.02-1.054-.816-2.057c.204-1.003.901-1.7 1.564-1.581s1.071 1.054.816 2.057z" transform="translate(458.3 95.2)"/>
            <path fill="#630F0F" d="M115.229 26.656c-1.822 2.827-4.025 5.39-6.545 7.616 1.19 1.277 2.88 1.967 4.624 1.887l1.921-9.503z" transform="translate(458.3 95.2)"/>
            <path fill="#263238" d="M120.856 20.094c.157-.004.308-.065.425-.17.114-.112.179-.265.179-.425 0-.16-.065-.313-.179-.425-1.278-1.45-3.178-2.19-5.1-1.989-.159.025-.301.113-.394.244-.093.132-.129.295-.099.453.06.326.37.545.697.493 1.54-.126 3.045.509 4.029 1.7.126.097.285.14.442.119z" transform="translate(458.3 95.2)"/>
            <path fill="#7F3E3B" d="M143.976 43.231c-1.819 9.299-2.924 22.202 3.587 28.407 0 0-2.55 9.452-19.839 9.452-19.023 0-9.146-8.296-9.146-8.296 7.905-2.448 7.837-11.458 6.018-18.7l19.38-10.863z" transform="translate(458.3 95.2)"/>
            <path fill="#407BFF" d="M115.229 71.4s2.788-6.579 5.61-7.701c2.822-1.122 20.961-4.199 25.024-1.547 4.063 2.652 6.97 11.033 6.97 11.033L115.229 71.4zM134.303 506.6c-1.7 0-3.213-.238-3.74-.969-.28-.391-.28-.918 0-1.309.21-.362.561-.62.969-.714 2.108-.578 6.562 1.955 6.8 2.074.106.063.16.185.136.306-.018.126-.113.228-.238.255-1.296.231-2.61.35-3.927.357zm-2.023-2.482c-.192-.019-.386-.019-.578 0-.248.055-.463.208-.595.425-.204.374-.136.561 0 .663.595.833 3.808.85 6.171.51-1.553-.828-3.249-1.353-4.998-1.547v-.051z" transform="translate(458.3 95.2)"/>
            <path fill="#407BFF" d="M138.145 506.294h-.119c-1.547-.68-4.59-3.4-4.352-4.879 0-.34.289-.748 1.122-.833.614-.082 1.233.104 1.7.51 1.7 1.326 1.972 4.76 1.989 4.913-.003.106-.052.206-.136.272-.064.03-.136.036-.204.017zm-3.111-5.1h-.17c-.544 0-.578.272-.595.34-.136.867 1.921 3.026 3.502 3.961-.154-1.446-.747-2.81-1.7-3.91-.286-.284-.669-.448-1.071-.459l.034.068z" transform="translate(458.3 95.2)"/>
            <path fill="#7F3E3B" d="M152.136 505.988L139.42 505.988 138.145 476.527 150.861 476.527z" transform="translate(458.3 95.2)"/>
            <path fill="#263238" d="M139.488 504.526h13.906c.52.002.97.36 1.088.867l2.499 11.305c.131.552 0 1.134-.356 1.576-.355.442-.896.695-1.463.685-5.015 0-12.257-.374-18.564-.374-7.361 0-8.262.391-16.898.391-5.219 0-6.664-5.27-4.488-5.746 9.962-2.176 12.614-2.414 21.216-7.718.909-.606 1.968-.948 3.06-.986zM170.343 71.689c11.9 2.737 19.788 34.918 19.788 34.918l-19.907 14.96c-7.417-5.305-12.679-13.101-14.824-21.964-4.046-15.946 2.754-30.702 14.943-27.914z" transform="translate(458.3 95.2)"/>
            <path fill="#000" d="M160.126 94.078c6.477 6.409 10.659 16.524 11.169 26.673l-1.054.816c-7.405-5.31-12.655-13.105-14.79-21.964-.238-.952-.459-1.904-.629-2.839l5.304-2.686z" opacity=".2" transform="translate(458.3 95.2)"/>
            <path fill="#407BFF" d="M127.246 136.163H231.286V213.53000000000003H127.246z" transform="translate(458.3 95.2) rotate(-21.78 179.266 174.847)"/>
            <path fill="#FFF" d="M127.312 136.437H229.822V213.80400000000003H127.312z" opacity=".5" transform="translate(458.3 95.2) rotate(-21.78 178.567 175.12)"/>
            <g fill="#407BFF" opacity=".5">
                <path d="M1.18 31.674H10.887V38.559H1.18z" transform="translate(458.3 95.2) translate(124.8 128.5) rotate(-21.78 6.034 35.117)"/>
                <path d="M16.05 25.73H25.757V32.615H16.05z" transform="translate(458.3 95.2) translate(124.8 128.5) rotate(-21.78 20.903 29.172)"/>
                <path d="M30.919 19.785H40.626000000000005V26.67H30.919z" transform="translate(458.3 95.2) translate(124.8 128.5) rotate(-21.78 35.772 23.228)"/>
                <path d="M45.81 13.85H55.517V20.735H45.81z" transform="translate(458.3 95.2) translate(124.8 128.5) rotate(-21.78 50.664 17.293)"/>
                <path d="M60.697 7.906H70.404V14.791H60.697z" transform="translate(458.3 95.2) translate(124.8 128.5) rotate(-21.78 65.55 11.348)"/>
                <path d="M75.566 1.961H85.273V8.846H75.566z" transform="translate(458.3 95.2) translate(124.8 128.5) rotate(-21.78 80.42 5.404)"/>
                <path d="M5.385 42.21H15.092V49.095H5.385z" transform="translate(458.3 95.2) translate(124.8 128.5) rotate(-21.78 10.238 45.652)"/>
                <path d="M20.261 36.281H29.968V43.166H20.261z" transform="translate(458.3 95.2) translate(124.8 128.5) rotate(-21.78 25.114 39.723)"/>
                <path d="M35.147 30.336H44.854V37.221H35.147z" transform="translate(458.3 95.2) translate(124.8 128.5) rotate(-21.78 40 33.779)"/>
                <path d="M50.032 24.385H59.739V31.270000000000003H50.032z" transform="translate(458.3 95.2) translate(124.8 128.5) rotate(-21.78 54.886 27.828)"/>
                <path d="M64.902 18.441H74.60900000000001V25.326H64.902z" transform="translate(458.3 95.2) translate(124.8 128.5) rotate(-21.78 69.755 21.883)"/>
                <path d="M79.788 12.496H89.495V19.381H79.788z" transform="translate(458.3 95.2) translate(124.8 128.5) rotate(-21.78 84.642 15.939)"/>
                <path d="M9.596 52.778H19.303V59.663H9.596z" transform="translate(458.3 95.2) translate(124.8 128.5) rotate(-21.78 14.45 56.22)"/>
                <path d="M24.482 46.833H34.189V53.717999999999996H24.482z" transform="translate(458.3 95.2) translate(124.8 128.5) rotate(-21.78 29.336 50.276)"/>
                <path d="M39.352 40.889H49.059V47.774H39.352z" transform="translate(458.3 95.2) translate(124.8 128.5) rotate(-21.78 44.205 44.331)"/>
                <path d="M54.237 34.921H63.944V41.806H54.237z" transform="translate(458.3 95.2) translate(124.8 128.5) rotate(-21.78 59.09 38.363)"/>
                <path d="M69.13 29.009H78.83699999999999V35.894H69.13z" transform="translate(458.3 95.2) translate(124.8 128.5) rotate(-21.78 73.983 32.451)"/>
                <path d="M83.999 23.064H93.70599999999999V29.948999999999998H83.999z" transform="translate(458.3 95.2) translate(124.8 128.5) rotate(-21.78 88.853 26.507)"/>
                <path d="M13.818 63.313H23.525V70.19800000000001H13.818z" transform="translate(458.3 95.2) translate(124.8 128.5) rotate(-21.78 18.671 66.755)"/>
                <path d="M28.694 57.384H38.400999999999996V64.269H28.694z" transform="translate(458.3 95.2) translate(124.8 128.5) rotate(-21.78 33.547 60.827)"/>
                <path d="M43.58 51.44H53.287V58.324999999999996H43.58z" transform="translate(458.3 95.2) translate(124.8 128.5) rotate(-21.78 48.434 54.882)"/>
                <path d="M58.465 45.489H68.172V52.373999999999995H58.465z" transform="translate(458.3 95.2) translate(124.8 128.5) rotate(-21.78 63.319 48.931)"/>
                <path d="M73.335 39.544H83.042V46.428999999999995H73.335z" transform="translate(458.3 95.2) translate(124.8 128.5) rotate(-21.78 78.188 42.987)"/>
                <path d="M88.204 33.6H97.911V40.485H88.204z" transform="translate(458.3 95.2) translate(124.8 128.5) rotate(-21.78 93.058 37.042)"/>
                <path d="M18.029 73.864H27.736V80.74900000000001H18.029z" transform="translate(458.3 95.2) translate(124.8 128.5) rotate(-21.78 22.883 77.306)"/>
                <path d="M32.915 67.919H42.622V74.804H32.915z" transform="translate(458.3 95.2) translate(124.8 128.5) rotate(-21.78 37.769 71.362)"/>
                <path d="M47.785 61.975H57.492V68.86H47.785z" transform="translate(458.3 95.2) translate(124.8 128.5) rotate(-21.78 52.638 65.417)"/>
                <path d="M62.654 56.047H72.361V62.931999999999995H62.654z" transform="translate(458.3 95.2) translate(124.8 128.5) rotate(-21.78 67.508 59.49)"/>
                <path d="M77.563 50.112H87.27000000000001V56.997H77.563z" transform="translate(458.3 95.2) translate(124.8 128.5) rotate(-21.78 82.416 53.555)"/>
                <path d="M92.432 44.151H102.13900000000001V51.036H92.432z" transform="translate(458.3 95.2) translate(124.8 128.5) rotate(-21.78 97.286 47.593)"/>
                <path d="M22.251 84.416H31.958000000000002V91.301H22.251z" transform="translate(458.3 95.2) translate(124.8 128.5) rotate(-21.78 27.104 87.859)"/>
                <path d="M37.12 78.472H46.827V85.357H37.12z" transform="translate(458.3 95.2) translate(124.8 128.5) rotate(-21.78 41.974 81.914)"/>
                <path d="M51.996 72.543H61.703V79.42800000000001H51.996z" transform="translate(458.3 95.2) translate(124.8 128.5) rotate(-21.78 56.85 75.985)"/>
                <path d="M66.883 66.581H76.59V73.46600000000001H66.883z" transform="translate(458.3 95.2) translate(124.8 128.5) rotate(-21.78 71.736 70.024)"/>
                <path d="M81.768 60.631H91.475V67.516H81.768z" transform="translate(458.3 95.2) translate(124.8 128.5) rotate(-21.78 86.621 64.073)"/>
                <path d="M96.637 54.686H106.344V61.571H96.637z" transform="translate(458.3 95.2) translate(124.8 128.5) rotate(-21.78 101.49 58.129)"/>
            </g>
            <path fill="#FFF" d="M205.227 142.375c-.412-1.015-.17-2.178.61-2.945.782-.767 1.95-.987 2.957-.557 1.007.43 1.655 1.426 1.64 2.52-.014 1.096-.687 2.074-1.705 2.478-.663.268-1.405.26-2.062-.02-.657-.28-1.175-.812-1.44-1.476zM203 179.962c-.548-1.376.121-2.937 1.497-3.488 1.375-.55 2.937.117 3.49 1.491.553 1.375-.111 2.938-1.485 3.493-.663.268-1.405.26-2.062-.02-.657-.28-1.175-.812-1.44-1.476zM169 181.305c-.268-.663-.26-1.405.02-2.062.28-.657.812-1.175 1.476-1.44 1.015-.412 2.178-.17 2.945.61.767.782.987 1.95.557 2.957-.43 1.007-1.426 1.655-2.52 1.64-1.096-.014-2.074-.687-2.478-1.705zM147.682 214.302c-.412-1.015-.17-2.178.61-2.945.782-.767 1.95-.987 2.957-.557 1.007.43 1.655 1.426 1.64 2.52-.014 1.096-.687 2.074-1.705 2.478-.663.268-1.405.26-2.062-.02-.657-.28-1.175-.812-1.44-1.476z" transform="translate(458.3 95.2)"/>
            <path fill="#FFF" d="M150.198 214.302c-.195.004-.386-.056-.544-.17-.226-.14-.385-.365-.443-.624-.057-.26-.008-.53.137-.753l21.352-32.997c.174-.274.475-.44.799-.442l33.065-1.326 2.193-36.686c.089-.501.54-.856 1.047-.826.509.03.913.437.942.945l-2.227 37.604c-.035.514-.454.919-.969.935l-33.456 1.326-21.046 32.555c-.186.288-.507.462-.85.46z" transform="translate(458.3 95.2)"/>
            <path fill="#263238" d="M94.982 84.456c-2.601 13.736-4.233 41.973 3.4 97.869h68c-1.224-9.69-6.103-61.404 3.978-110.636-7.523-1.452-15.132-2.412-22.78-2.873-9.625-.56-19.275-.56-28.9 0-3.196.289-6.324.748-9.112 1.241-7.382 1.303-13.188 7.035-14.586 14.399z" transform="translate(458.3 95.2)"/>
            <path fill="#000" d="M105.692 105.621l-12.784 1.02c-.459 16.541.68 40.681 5.406 75.684h.612c7.667-25.211 17.833-61.251 6.766-76.704zM138.145 476.527L138.791 491.725 151.524 491.725 150.878 476.527z" opacity=".2" transform="translate(458.3 95.2)"/>
            <path fill="#7F3E3B" d="M150.028 29.614c-3.264 12.189-4.573 19.499-12.087 24.565-11.322 7.633-25.5-1.122-25.874-14.042-.391-11.645 5.015-29.631 18.105-32.096 5.864-1.128 11.895.86 15.94 5.254 4.043 4.394 5.525 10.568 3.916 16.319z" transform="translate(458.3 95.2)"/>
            <path fill="#263238" d="M121.4 29.682l-6.613 1.7 6.154-15.963c-1.626-3.91-1.824-8.267-.561-12.308.482-1.472 1.851-2.471 3.4-2.482 13.702-.272 28.033 7.429 35.241 13.243 1.391 1.121 1.733 3.101.799 4.624-1.753 2.638-3.807 5.062-6.12 7.225-.136 4.471-7.429 24.65-11.458 26.911-4.029 2.261-11.764 1.36-13.821-2.329-2.057-3.689-9.044-8.568-7.021-20.621z" transform="translate(458.3 95.2)"/>
            <path fill="#7F3E3B" d="M127.588 29.937c-.75 3.05-2.482 5.768-4.93 7.735-3.247 2.55-5.78.204-5.644-3.553.119-3.4 1.955-8.772 5.576-9.877 3.621-1.105 5.848 2.023 4.998 5.695z" transform="translate(458.3 95.2)"/>
            <path fill="#407BFF" d="M243.936 502.248c0-1.7.204-3.213.935-3.74.396-.284.93-.284 1.326 0 .356.205.609.55.697.952.595 2.108-1.904 6.579-2.023 6.8-.058.112-.182.174-.306.153-.12-.025-.213-.118-.238-.238-.244-1.295-.375-2.61-.391-3.927zm2.465-2.023c.027-.197.027-.398 0-.595-.047-.247-.203-.46-.425-.578-.374-.221-.561-.136-.663 0-.816.595-.816 3.808-.459 6.171.827-1.553 1.352-3.25 1.547-4.998z" transform="translate(458.3 95.2)"/>
            <path fill="#407BFF" d="M244.31 506.09c-.007-.04-.007-.08 0-.119.68-1.547 3.4-4.607 4.845-4.369.34 0 .765.289.85 1.105.077.613-.108 1.23-.51 1.7-1.309 1.615-4.743 1.989-4.879 2.006-.105.007-.206-.038-.272-.119-.036-.061-.048-.134-.034-.204zm5.1-3.128v-.187c0-.544-.272-.578-.34-.578-.867-.136-3.009 1.938-3.944 3.519 1.447-.15 2.813-.745 3.91-1.7.258-.292.408-.664.425-1.054h-.051z" transform="translate(458.3 95.2)"/>
            <path fill="#7F3E3B" d="M244.514 506.175L232.087 507.059 225.117 477.36 237.527 476.476z" transform="translate(458.3 95.2)"/>
            <path fill="#263238" d="M244.463 503.319l-13.838-1.224c-.522-.046-1.005.28-1.156.782l-3.502 11.033c-.176.552-.083 1.155.25 1.63.334.473.87.763 1.45.784 4.998.357 12.24.714 18.513 1.258 7.327.663 2.584.646 11.186 1.394 5.202.476 7.123-4.658 4.981-5.338-9.724-3.043-11.492-5.1-14.841-9.061-.811-.8-1.903-1.252-3.043-1.258z" transform="translate(458.3 95.2)"/>
            <path fill="#000" d="M225.117 477.36L228.721 492.677 241.131 491.793 237.544 476.476z" opacity=".2" transform="translate(458.3 95.2)"/>
            <path fill="#407BFF" d="M122.454 182.325s29.257 97.733 40.375 134.011c12.155 39.746 58.429 171.564 58.429 171.564l22.44-4.93s-31.705-113.254-44.846-168.657c-10.098-42.5-32.487-131.971-32.487-131.971l-43.911-.017z" transform="translate(458.3 95.2)"/>
            <path fill="#263238" d="M217.314 480.947c-.102 0 2.21 8.755 2.21 8.755l26.979-2.89-.119-8.024-29.07 2.159z" transform="translate(458.3 95.2)"/>
            <path fill="#000" d="M138.655 227.63c16.201 2.125 22.644 58.565 25.075 91.698-.306-1.054-.629-2.04-.918-2.992-6.052-19.805-17.527-57.936-26.707-88.536.825-.256 1.698-.314 2.55-.17z" opacity=".3" transform="translate(458.3 95.2)"/>
            <path fill="#407BFF" d="M98.314 182.325s9.809 95.2 14.042 133.943c4.386 40.307 20.91 172.516 20.91 172.516h21.556s-2.618-129.795-3.485-169.439c-.952-43.214-8.296-137.02-8.296-137.02H98.314z" transform="translate(458.3 95.2)"/>
            <path fill="#263238" d="M129.9 480.199c-.102 0 1.207 8.942 1.207 8.942h26.214l.714-7.99-28.135-.952zM6.259 271.881c11.268 17.785 34.815 23.078 52.61 11.827 17.796-11.251 23.112-34.793 11.878-52.6-11.234-17.806-34.77-23.144-52.588-11.927-8.582 5.397-14.66 13.99-16.894 23.879-2.233 9.889-.436 20.26 4.994 28.821zm59.5-37.4c9.414 15.012 4.889 34.812-10.112 44.245-15 9.433-34.806 4.933-44.257-10.055-9.452-14.989-4.977-34.8 9.999-44.271 15-9.46 34.829-4.979 44.302 10.013l.068.068z" transform="translate(458.3 95.2)"/>
            <path fill="#407BFF" d="M67.221 258.043c-3.593 15.849-19.353 25.785-35.202 22.193-15.849-3.59-25.786-19.35-22.197-35.199 3.59-15.85 19.347-25.789 35.197-22.201 7.614 1.723 14.23 6.401 18.394 13.004 4.164 6.603 5.534 14.59 3.808 22.203z" opacity=".2" transform="translate(458.3 95.2)"/>
            <path fill="#263238" d="M71.828 226.576l3.587 5.661c.542.864.284 2.004-.578 2.55-.864.542-2.004.284-2.55-.578l-3.57-5.678c-.26-.412-.344-.911-.236-1.386.108-.475.401-.888.814-1.147.411-.264.911-.352 1.388-.243.476.109.89.405 1.145.821z" transform="translate(458.3 95.2)"/>
            <path fill="#263238" d="M94.965 210.443c-4.137 2.822-8.228 5.706-12.274 8.653-4.063 2.958-8.075 5.967-11.9 9.163-.989.81-1.218 2.231-.535 3.312.683 1.08 2.064 1.483 3.221.938 4.556-2.125 9.01-4.454 13.43-6.8s8.772-4.845 13.09-7.361c3.683-2.142 7.344-4.324 10.982-6.545 1.04-.65 1.359-2.017.714-3.06L108.667 204c-.314-.497-.814-.849-1.389-.976-.574-.128-1.176-.021-1.671.296-3.57 2.38-7.123 4.726-10.642 7.123z" transform="translate(458.3 95.2)"/>
            <path fill="#407BFF" d="M113.92 89.216c-2.074 10.2-4.284 20.4-6.63 30.6l-7.038 30.345C97.957 159.97 96.002 170 94.2 180.2l-5.338 30.6c-.409 2.434-2.599 4.16-5.06 3.988-2.463-.171-4.393-2.184-4.46-4.651-.374-10.625-.204-21.131.391-31.705.588-10.637 1.723-21.236 3.4-31.756 1.7-10.404 3.519-20.689 5.525-30.957 2.006-10.268 4.131-20.502 6.494-30.6 1.136-5.201 6.274-8.497 11.475-7.361 5.201 1.136 8.497 6.274 7.361 11.475l-.068-.017z" transform="translate(458.3 95.2)"/>
            <path fill="#7F3E3B" d="M87.4 208.029c-.88-.907-2.172-1.282-3.4-.986l-2.754.646c-1.416.339-2.477 1.515-2.669 2.958l-.799 6.137c-.246 1.77.126 3.572 1.054 5.1l3.808 6.29c1 1.314 2.667 1.936 4.284 1.598l3.961-.85c1.184-.25 2.206-.99 2.813-2.037.606-1.048.74-2.303.366-3.454l-1.037-3.196c-.387-4.602-2.379-8.923-5.627-12.206z" transform="translate(458.3 95.2)"/>
            <path fill="#263238" d="M127.163 83.3c6.188 16.405-15.198 39.814-15.198 39.814l-27.081-8.959s2.074-22.389 11.475-35.02c11.594-15.572 26.095-8.313 30.804 4.165z" transform="translate(458.3 95.2)"/>
        </g>
    </g>
</svg>