<svg id="Layer_1" data-name="Layer 1" xmlns="http://www.w3.org/2000/svg" xmlns:xlink="http://www.w3.org/1999/xlink" viewBox="0 0 3000 2000"><defs><style>.cls-1{fill:#f6f9ff;}.cls-2{fill:#fc476a;}.cls-3{fill:#68a9fd;}.cls-4{fill:#1b3d9e;}.cls-5{fill:#fe8e9c;}.cls-6{fill:#fff;}.cls-7{fill:#f9c438;}.cls-8{fill:#eaf2fc;}.cls-9{clip-path:url(#clip-path);}.cls-10,.cls-12{fill:#d4dfff;}.cls-10{opacity:0.21;}.cls-11{fill:#6880e4;}.cls-13{fill:#8c9ef4;}.cls-14{fill:#d40221;}.cls-15{clip-path:url(#clip-path-2);}.cls-16{clip-path:url(#clip-path-3);}.cls-17{clip-path:url(#clip-path-4);}.cls-18,.cls-23{fill:#1c056d;}.cls-19{clip-path:url(#clip-path-5);}.cls-20{fill:#f6ab36;}.cls-21{clip-path:url(#clip-path-6);}.cls-22{clip-path:url(#clip-path-7);}.cls-23{opacity:0.24;}.cls-24{clip-path:url(#clip-path-8);}.cls-25{fill:#e57492;}.cls-26{clip-path:url(#clip-path-9);}.cls-27{clip-path:url(#clip-path-10);}.cls-28{clip-path:url(#clip-path-11);}.cls-29{clip-path:url(#clip-path-12);}.cls-30{clip-path:url(#clip-path-13);}.cls-31{clip-path:url(#clip-path-14);}</style><clipPath id="clip-path"><path class="cls-1" d="M371.19,1812.45H2621.91c38.66-100,80.78-203.13,92.25-309.7s-7.61-220.74-74.82-304.24c-61.47-76.37-154.64-118.42-235.23-174.26a770.06,770.06,0,0,1-204.76-210c-63.93-97.48-105.81-209.65-181.63-298.21-58.94-68.83-136.13-120.3-218.29-158.53-158.59-73.79-360.32-94.72-498.28,12.8-75.51,58.85-121.58,148.44-148.74,240.24s-37.57,187.58-55.58,281.61c-27.89,145.69-91.15,306.39-230.81,356.38-118.26,42.33-257.26-9.5-371.49,42.74-48.89,22.36-88.15,62.14-118.25,106.69C295.29,1517.84,317.71,1678,371.19,1812.45Z"/></clipPath><clipPath id="clip-path-2"><path class="cls-2" d="M2698.21,1384.86h-51.08a277.49,277.49,0,0,0-44.64-107.77l36.12-36.12a11.65,11.65,0,0,0,0-16.46l-56-56a11.64,11.64,0,0,0-16.47,0l-36.11,36.12A277.4,277.4,0,0,0,2422.29,1160v-51.08a11.64,11.64,0,0,0-11.64-11.64H2331.5a11.64,11.64,0,0,0-11.64,11.64V1160a277.28,277.28,0,0,0-107.77,44.64L2176,1168.54a11.63,11.63,0,0,0-16.46,0l-56,56a11.63,11.63,0,0,0,0,16.46l36.11,36.12A277.47,277.47,0,0,0,2095,1384.86h-51.08a11.64,11.64,0,0,0-11.64,11.64v79.15a11.64,11.64,0,0,0,11.64,11.64H2095a277.54,277.54,0,0,0,44.63,107.77l-36.11,36.11a11.64,11.64,0,0,0,0,16.47l56,56a11.65,11.65,0,0,0,16.46,0l36.12-36.12a277.28,277.28,0,0,0,107.77,44.64v51.08a11.64,11.64,0,0,0,11.64,11.64h79.15a11.64,11.64,0,0,0,11.64-11.64v-51.08a277.4,277.4,0,0,0,107.77-44.64l36.11,36.12a11.66,11.66,0,0,0,16.47,0l56-56a11.66,11.66,0,0,0,0-16.47l-36.12-36.11a277.55,277.55,0,0,0,44.64-107.77h51.08a11.64,11.64,0,0,0,11.64-11.64V1396.5A11.64,11.64,0,0,0,2698.21,1384.86Zm-327.14,238.69c-103.37,0-187.47-84.1-187.47-187.48s84.1-187.47,187.47-187.47,187.48,84.1,187.48,187.47S2474.45,1623.55,2371.07,1623.55Z"/></clipPath><clipPath id="clip-path-3"><rect class="cls-6" x="1537.16" y="590.42" width="641.57" height="1100.69" rx="24.85"/></clipPath><clipPath id="clip-path-4"><path class="cls-4" d="M1423.94,1455.78s4.41,285.39,94.54,356.67h220.78s36.89-267.71-64.71-339.79Z"/></clipPath><clipPath id="clip-path-5"><path class="cls-7" d="M1531.39,977.22S1369.2,1066,1318.66,1102.36c-91.21,65.61,11.12-194.51-5.18-205.63s-133-12.59-150.31,19-67.14,356,52.09,347.82,244-65.4,244-65.4S1561,1027.39,1531.39,977.22Z"/></clipPath><clipPath id="clip-path-6"><path class="cls-7" d="M1655.76,949.47s127.73,112,120,184.11-76.71,326.8-101.26,339.08-225,30.68-250.61-16.88-2.54-366.69,31.21-418.86,102.84-69,102.84-69Z"/></clipPath><clipPath id="clip-path-7"><path class="cls-4" d="M1577.92,694.68c-12.23,1.54-24.58,3.12-36.21,7.2s-22.66,10.94-29.6,21.14c-10.08,14.84-10.19,34.35-18.13,50.44-9.84,19.93-30.61,32.58-41.18,52.13-5.9,10.9-8.3,23.81-5.9,36,3.29,16.61,15.17,30.56,29.37,39.78s30.67,14.27,47,18.6a677.91,677.91,0,0,0,100,18.56c12.48-28.06,22.22-57.26,30.46-86.84,10.17-36.53,16.86-76.27,3.5-111.76-3.55-9.43-8.54-18.45-15.68-25.56C1626.12,698.91,1599.61,691.93,1577.92,694.68Z"/></clipPath><clipPath id="clip-path-8"><path class="cls-5" d="M1665.05,745.56c-8.86-16.67-49.08-41.61-85.7-42.74-20.65-.64-39.55,11.56-48.15,30.34-19.46,42.5-61.78,143.6-32.14,160.18,13.19,7.38,30.56,7.66,48.06,4.2-2.72,27.87-3.39,92.53-2.87,101.31.73,12.34,86.78-10,102.75-21.63s-26.89-116.36-26.89-116.36C1631.71,844.13,1677.37,768.75,1665.05,745.56Z"/></clipPath><clipPath id="clip-path-9"><path class="cls-4" d="M1588,769.35c5.28,11.5,15.6,20.09,21,31.56,9.37,20.06,1.69,43.41-3.69,64.89-7.8,31.14-9.87,66.25,7.4,93.31,11.17,17.51,29.45,29.68,49.05,36.55s40.59,8.84,61.36,9.33a453.93,453.93,0,0,0,134.91-17.27c-9.34-3.57-19.16-7.5-25.24-15.45-7.79-10.19-7.43-24.16-7.74-37-.51-21.32-3.92-42.78-12.33-62.38s-22.05-37.28-40.22-48.45c-13.55-8.34-29.75-13.28-40.11-25.37-11.57-13.51-13.09-32.58-17.14-49.9A153.79,153.79,0,0,0,1699,708.1c-5-8.8-11.35-17.48-20.56-21.72-8.71-4-18.82-3.52-28.25-1.82-32.11,5.79-60.84,24.78-65.61,59.63A45.5,45.5,0,0,0,1588,769.35Z"/></clipPath><clipPath id="clip-path-10"><path class="cls-4" d="M1276.74,802.55s-75,110.4-57.21,122.94,41.37,16.57,44.94,9.64,49.22-128.4,49.22-128.4Z"/></clipPath><clipPath id="clip-path-11"><path class="cls-3" d="M1377.09,802a16.47,16.47,0,0,0-6.61-18.68c-48.61-32.2-252.76-166.68-265-162.38-13.89,4.89-72.6,171.64-61.06,193.8,10.25,19.67,261.73,2.78,318.14-1.27A16.45,16.45,0,0,0,1377.09,802Z"/></clipPath><clipPath id="clip-path-12"><ellipse class="cls-4" cx="1075.9" cy="718.74" rx="102.81" ry="21.97" transform="translate(67.09 1528.95) rotate(-72.51)"/></clipPath><clipPath id="clip-path-13"><path class="cls-5" d="M1586.86,1397.9s-53.19,18.53-68.17,29.53c0,0-75.73,48.85-64.88,52.92,6,2.24,28-8.39,46.55-18.4-10.16,24.35-20.28,53.17-15.5,52.11,7.68-1.71,44.69-56.67,44.69-56.67s-24.82,63.2-20.87,63.31,28.76-20.3,35.47-57.39c0,0-7.5,52.09-2.37,53.27s21.7-51.31,21.7-51.31,44.8-17.45,45.82-26.37S1586.86,1397.9,1586.86,1397.9Z"/></clipPath><clipPath id="clip-path-14"><path class="cls-5" d="M1301.68,838.6s-45.27,15.14-43.21,19.68,35.28,1.27,35.28,1.27l-11.69,30.73s14.54,1,20.81,2.74c0,0,23.86-38,21.79-45.47S1301.68,838.6,1301.68,838.6Z"/></clipPath></defs><rect class="cls-6" width="3000" height="2000"/><path class="cls-1" d="M2234.29,475.32c-11.82,42.76-8.46,91.28-7,134.59,1.83,53.49,12.59,107.24,33.79,156.48,39,90.6,114.85,167.23,209.18,196.06,45.35,13.87,96.19,16.18,138.88-4.48,41.58-20.12,71.22-60.41,85.18-104.44,18-56.66,9.2-124.76-33.9-165.67-46.28-43.93-121.45-49.31-162.67-98-20.06-23.71-29.16-54.57-44.35-81.66a202.73,202.73,0,0,0-80.95-79.26c-30.5-16.25-78-26.57-108.39-4.56-11.71,8.47-19.32,21.54-24.55,35Q2236.53,467.18,2234.29,475.32Z"/><circle class="cls-8" cx="428.95" cy="492.27" r="24.24"/><circle class="cls-8" cx="538.81" cy="492.27" r="24.24"/><circle class="cls-8" cx="648.67" cy="492.27" r="24.24"/><circle class="cls-8" cx="758.53" cy="492.27" r="24.24"/><circle class="cls-8" cx="428.95" cy="579.47" r="24.24" transform="translate(-212.15 909.27) rotate(-80.71)"/><circle class="cls-8" cx="538.81" cy="579.47" r="24.24" transform="translate(-119.48 1018.5) rotate(-80.78)"/><circle class="cls-8" cx="648.67" cy="579.47" r="24.24" transform="translate(-27.9 1126.11) rotate(-80.71)"/><circle class="cls-8" cx="758.53" cy="579.47" r="24.24" transform="translate(64.23 1234.53) rotate(-80.71)"/><circle class="cls-8" cx="428.95" cy="666.67" r="24.24" transform="translate(-298.21 982.39) rotate(-80.71)"/><circle class="cls-8" cx="538.81" cy="666.67" r="24.24" transform="translate(-205.56 1091.73) rotate(-80.78)"/><circle class="cls-8" cx="648.67" cy="666.67" r="24.24" transform="translate(-113.95 1199.23) rotate(-80.71)"/><circle class="cls-8" cx="758.53" cy="666.67" r="24.24" transform="translate(-21.82 1307.65) rotate(-80.71)"/><circle class="cls-8" cx="428.95" cy="753.87" r="24.24" transform="translate(-259.13 225.79) rotate(-22.86)"/><circle class="cls-8" cx="538.81" cy="753.87" r="24.24" transform="translate(-247.48 263.58) rotate(-22.5)"/><circle class="cls-8" cx="648.67" cy="753.87" r="24.24" transform="translate(-241.88 311.13) rotate(-22.86)"/><circle class="cls-8" cx="758.53" cy="753.87" r="24.24" transform="translate(-233.25 353.8) rotate(-22.86)"/><circle class="cls-8" cx="428.95" cy="841.07" r="24.24" transform="translate(-293 232.64) rotate(-22.86)"/><circle class="cls-8" cx="538.81" cy="841.07" r="24.24" transform="translate(-280.85 270.22) rotate(-22.5)"/><circle class="cls-8" cx="648.67" cy="841.07" r="24.24" transform="translate(-275.75 317.98) rotate(-22.86)"/><circle class="cls-8" cx="758.53" cy="841.07" r="24.24" transform="translate(-267.12 360.65) rotate(-22.86)"/><circle class="cls-8" cx="428.95" cy="928.27" r="24.24"/><circle class="cls-8" cx="538.81" cy="928.27" r="24.24"/><circle class="cls-8" cx="648.67" cy="928.27" r="24.24"/><circle class="cls-8" cx="758.53" cy="928.27" r="24.24"/><circle class="cls-8" cx="428.95" cy="1015.47" r="24.24"/><circle class="cls-8" cx="538.81" cy="1015.47" r="24.24"/><circle class="cls-8" cx="648.67" cy="1015.47" r="24.24"/><circle class="cls-8" cx="758.53" cy="1015.47" r="24.24"/><path class="cls-1" d="M371.19,1812.45H2621.91c38.66-100,80.78-203.13,92.25-309.7s-7.61-220.74-74.82-304.24c-61.47-76.37-154.64-118.42-235.23-174.26a770.06,770.06,0,0,1-204.76-210c-63.93-97.48-105.81-209.65-181.63-298.21-58.94-68.83-136.13-120.3-218.29-158.53-158.59-73.79-360.32-94.72-498.28,12.8-75.51,58.85-121.58,148.44-148.74,240.24s-37.57,187.58-55.58,281.61c-27.89,145.69-91.15,306.39-230.81,356.38-118.26,42.33-257.26-9.5-371.49,42.74-48.89,22.36-88.15,62.14-118.25,106.69C295.29,1517.84,317.71,1678,371.19,1812.45Z"/><g class="cls-9"><path class="cls-10" d="M250.73,1414.78c28.07-51.86,83.65-85.07,141.53-96.28s118-2.67,174.83,13a712.75,712.75,0,0,1,296.43,166.36c71.54,67.11,133.74,152,226.87,182.82,75.83,25,159.58,8.86,233.72-20.81s142.54-72.26,216.41-102.6c185.29-76.1,396.55-70.57,589.94-18.38s371.85,148.3,544,250.72c0,2.41-5.74-1.66-5.74.76v72.82H237.54Z"/></g><path class="cls-8" d="M2205.05,1814.16h139.77c124.4,0,199.55-153.84,250-267.53-85.21,22.71-166.13,64.8-231.15,124.38a780.45,780.45,0,0,0,72.39-366.22c-66.37,74-118.25,162.14-150,256.32-.19-152.74-10.4-311.61-84.28-445.29-36.41,157.62-72.29,322.22-45,481.67C2168.89,1667.58,2180.47,1747.44,2205.05,1814.16Z"/><path class="cls-11" d="M759.71,1155.78c-7.15,1.9-219.28,177.24-219.28,177.24l28.69,191.3L1038,1454l-28.68-191.3S766.87,1153.88,759.71,1155.78Z"/><path class="cls-8" d="M967.27,1467.44l-342.18,51.3A13.25,13.25,0,0,1,610,1507.61l-42-279.92a13.25,13.25,0,0,1,11.14-15.07l342.18-51.3a13.25,13.25,0,0,1,15.07,11.13l42,279.92A13.26,13.26,0,0,1,967.27,1467.44Z"/><rect class="cls-6" x="609.31" y="1236.58" width="299.35" height="16.94" rx="2.73" transform="translate(-176.22 126.31) rotate(-8.53)"/><rect class="cls-6" x="613.7" y="1265.83" width="299.35" height="16.94" rx="2.73" transform="translate(-180.51 127.28) rotate(-8.53)"/><rect class="cls-6" x="618.08" y="1295.09" width="299.35" height="16.94" rx="2.73" transform="translate(-184.8 128.25) rotate(-8.53)"/><path class="cls-6" d="M918.73,1319.4,628.08,1363a2.73,2.73,0,0,1-3.1-2.3l-1.71-11.35a2.75,2.75,0,0,1,2.3-3.11l290.64-43.58a2.75,2.75,0,0,1,3.11,2.3l1.7,11.35A2.73,2.73,0,0,1,918.73,1319.4Z"/><path class="cls-6" d="M923.11,1348.65l-290.64,43.58a2.73,2.73,0,0,1-3.11-2.29l-1.7-11.36a2.72,2.72,0,0,1,2.29-3.1L920.6,1331.9a2.72,2.72,0,0,1,3.1,2.29l1.71,11.36A2.73,2.73,0,0,1,923.11,1348.65Z"/><rect class="cls-6" x="631.24" y="1382.85" width="299.35" height="16.94" rx="2.73" transform="translate(-197.67 131.17) rotate(-8.53)"/><path class="cls-12" d="M544.54,1360.41s229.94,103.89,250,97.89,218.87-168.19,218.87-168.19L1058.81,1593a11.08,11.08,0,0,1-9.32,12.61l-446.93,67A11.09,11.09,0,0,1,590,1663.3Z"/><rect class="cls-13" x="592.8" y="1507.2" width="108.63" height="34.56" rx="2.54" transform="translate(-218.9 112.81) rotate(-8.53)"/><rect class="cls-13" x="855.52" y="1463.84" width="159.96" height="13.21" rx="1.73" transform="translate(-207.69 154.97) rotate(-8.53)"/><rect class="cls-8" x="858.35" y="1482.76" width="159.96" height="13.21" rx="1.73" transform="translate(-210.47 155.6) rotate(-8.53)"/><rect class="cls-8" x="861.19" y="1501.69" width="159.96" height="13.21" rx="1.73" transform="translate(-213.24 156.23) rotate(-8.53)"/><rect class="cls-8" x="864.03" y="1520.62" width="159.96" height="13.21" rx="1.73" transform="matrix(0.99, -0.15, 0.15, 0.99, -216.02, 156.86)"/><path class="cls-8" d="M1546,1812.45c-.5-30.15-1-60.81-1.5-91-.84-50.87-1.75-102.23-13.84-151.64-13.77-56.25-41.52-107.93-69-158.9l-90.09-167.15c-28.06,91.34-56.34,188.25-33.23,281a1031.86,1031.86,0,0,0-133.13-130.26c13.59,103.25,66.53,200.82,145.68,268.5A405.26,405.26,0,0,0,1212,1616.08c68,98.58,173,167.88,289.39,196.37Z"/><path class="cls-14" d="M2716.29,1384.86h-51.07a277.49,277.49,0,0,0-44.64-107.77L2656.7,1241a11.65,11.65,0,0,0,0-16.46l-56-56a11.64,11.64,0,0,0-16.47,0l-36.11,36.12A277.4,277.4,0,0,0,2440.38,1160v-51.08a11.64,11.64,0,0,0-11.64-11.64h-79.15a11.65,11.65,0,0,0-11.65,11.64V1160a277.3,277.3,0,0,0-107.76,44.64l-36.12-36.12a11.63,11.63,0,0,0-16.46,0l-56,56a11.63,11.63,0,0,0,0,16.46l36.11,36.12a277.47,277.47,0,0,0-44.63,107.77H2062a11.64,11.64,0,0,0-11.64,11.64v79.15a11.64,11.64,0,0,0,11.64,11.64h51.08a277.54,277.54,0,0,0,44.63,107.77l-36.11,36.11a11.64,11.64,0,0,0,0,16.47l56,56a11.65,11.65,0,0,0,16.46,0l36.12-36.12a277.3,277.3,0,0,0,107.76,44.64v51.08a11.65,11.65,0,0,0,11.65,11.64h79.15a11.64,11.64,0,0,0,11.64-11.64v-51.08a277.4,277.4,0,0,0,107.77-44.64l36.11,36.12a11.66,11.66,0,0,0,16.47,0l56-56a11.66,11.66,0,0,0,0-16.47l-36.12-36.11a277.55,277.55,0,0,0,44.64-107.77h51.07a11.65,11.65,0,0,0,11.65-11.64V1396.5A11.65,11.65,0,0,0,2716.29,1384.86Zm-327.13,238.69c-103.37,0-187.47-84.1-187.47-187.48s84.1-187.47,187.47-187.47,187.48,84.1,187.48,187.47S2492.54,1623.55,2389.16,1623.55Z"/><path class="cls-2" d="M2698.21,1384.86h-51.08a277.49,277.49,0,0,0-44.64-107.77l36.12-36.12a11.65,11.65,0,0,0,0-16.46l-56-56a11.64,11.64,0,0,0-16.47,0l-36.11,36.12A277.4,277.4,0,0,0,2422.29,1160v-51.08a11.64,11.64,0,0,0-11.64-11.64H2331.5a11.64,11.64,0,0,0-11.64,11.64V1160a277.28,277.28,0,0,0-107.77,44.64L2176,1168.54a11.63,11.63,0,0,0-16.46,0l-56,56a11.63,11.63,0,0,0,0,16.46l36.11,36.12A277.47,277.47,0,0,0,2095,1384.86h-51.08a11.64,11.64,0,0,0-11.64,11.64v79.15a11.64,11.64,0,0,0,11.64,11.64H2095a277.54,277.54,0,0,0,44.63,107.77l-36.11,36.11a11.64,11.64,0,0,0,0,16.47l56,56a11.65,11.65,0,0,0,16.46,0l36.12-36.12a277.28,277.28,0,0,0,107.77,44.64v51.08a11.64,11.64,0,0,0,11.64,11.64h79.15a11.64,11.64,0,0,0,11.64-11.64v-51.08a277.4,277.4,0,0,0,107.77-44.64l36.11,36.12a11.66,11.66,0,0,0,16.47,0l56-56a11.66,11.66,0,0,0,0-16.47l-36.12-36.11a277.55,277.55,0,0,0,44.64-107.77h51.08a11.64,11.64,0,0,0,11.64-11.64V1396.5A11.64,11.64,0,0,0,2698.21,1384.86Zm-327.14,238.69c-103.37,0-187.47-84.1-187.47-187.48s84.1-187.47,187.47-187.47,187.48,84.1,187.48,187.47S2474.45,1623.55,2371.07,1623.55Z"/><g class="cls-15"><path class="cls-14" d="M2290.08,1115.82s3.8,673,0,673-249.33-1.91-249.33-1.91V1106.53Z"/></g><rect class="cls-11" x="1488.84" y="499.57" width="765.25" height="1312.88" rx="29.64"/><rect class="cls-6" x="1537.16" y="590.42" width="641.57" height="1100.69" rx="24.85"/><g class="cls-16"><path class="cls-12" d="M2279.39,1140.76s-79.59-129.62-272.72-15.77-669.27,406.85-669.27,406.85v175h958.86Z"/></g><circle class="cls-8" cx="1988.58" cy="653.44" r="18.09"/><circle class="cls-8" cx="2050.39" cy="653.44" r="18.09"/><circle class="cls-8" cx="2112.2" cy="653.44" r="18.09"/><circle class="cls-8" cx="1988.58" cy="719.66" r="18.09"/><circle class="cls-8" cx="2050.39" cy="719.66" r="18.09"/><circle class="cls-8" cx="2112.2" cy="719.66" r="18.09"/><circle class="cls-8" cx="1988.58" cy="785.87" r="18.09" transform="translate(-149.37 820.82) rotate(-22.5)"/><circle class="cls-8" cx="2050.39" cy="785.87" r="18.09" transform="translate(-144.66 844.47) rotate(-22.5)"/><circle class="cls-8" cx="2112.2" cy="785.87" r="18.09" transform="translate(862.07 2661) rotate(-76.72)"/><circle class="cls-8" cx="1988.58" cy="852.08" r="18.09"/><circle class="cls-8" cx="2050.39" cy="852.08" r="18.09"/><circle class="cls-8" cx="2112.2" cy="852.08" r="18.09"/><circle class="cls-8" cx="1988.58" cy="918.29" r="18.09"/><circle class="cls-8" cx="2050.39" cy="918.29" r="18.09"/><circle class="cls-8" cx="2112.2" cy="918.29" r="18.09"/><rect class="cls-4" x="1814.96" y="1717.98" width="187.58" height="58.36" rx="22.83"/><path class="cls-4" d="M1423.94,1455.78s4.41,285.39,94.54,356.67h220.78s36.89-267.71-64.71-339.79Z"/><g class="cls-17"><path class="cls-18" d="M1544.69,1828.47c0-4.29-27.89-273.52-39.69-284.25s-8.58,283.18,5.37,286.4S1544.69,1828.47,1544.69,1828.47Z"/></g><path class="cls-7" d="M1531.39,977.22S1369.2,1066,1318.66,1102.36c-91.21,65.61,11.12-194.51-5.18-205.63s-133-12.59-150.31,19-67.14,356,52.09,347.82,244-65.4,244-65.4S1561,1027.39,1531.39,977.22Z"/><g class="cls-19"><path class="cls-20" d="M1325.74,1097.41s-83.55,86.57-83.55,70.91,39.92-106.63,39.92-106.63,11.77,45.6,43.63,35.72"/><path class="cls-20" d="M1205.44,889.51s-18.26,44.41-6.57,56.1,71.54,24.11,81.06,19,29.26-75.1,29.26-75.1S1234.67,879.43,1205.44,889.51Z"/></g><path class="cls-7" d="M1655.76,949.47s127.73,112,120,184.11-76.71,326.8-101.26,339.08-225,30.68-250.61-16.88-2.54-366.69,31.21-418.86,102.84-69,102.84-69Z"/><g class="cls-21"><path class="cls-6" d="M1408,1229.16s137.21,64.14,345.73,40.37l-4.32,40s-280.91,20.84-353.29-46.84Z"/><path class="cls-6" d="M1400.54,1310.12s133.12,48.2,286.76,36.78l-8.74,31.08s-203.36,17.64-283.3-38.79Z"/></g><path class="cls-20" d="M1420.48,1214.08s7.71-81,31.32-142.29c0,0-64,60.13-73.94,157.37C1377.86,1229.16,1399.4,1221.28,1420.48,1214.08Z"/><path class="cls-6" d="M1544.09,989.38s-1.29,11.36,2.72,12.15S1599,999.58,1647,977.22l9.7,5.88s-66.12,35.09-103.23,30.65S1544.09,989.38,1544.09,989.38Z"/><path class="cls-4" d="M1577.92,694.68c-12.23,1.54-24.58,3.12-36.21,7.2s-22.66,10.94-29.6,21.14c-10.08,14.84-10.19,34.35-18.13,50.44-9.84,19.93-30.61,32.58-41.18,52.13-5.9,10.9-8.3,23.81-5.9,36,3.29,16.61,15.17,30.56,29.37,39.78s30.67,14.27,47,18.6a677.91,677.91,0,0,0,100,18.56c12.48-28.06,22.22-57.26,30.46-86.84,10.17-36.53,16.86-76.27,3.5-111.76-3.55-9.43-8.54-18.45-15.68-25.56C1626.12,698.91,1599.61,691.93,1577.92,694.68Z"/><g class="cls-22"><path class="cls-23" d="M1515.42,742.47s-70.51,122.89-26.58,156.82S1578,893,1578,893l6.64-155Z"/></g><path class="cls-5" d="M1665.05,745.56c-8.86-16.67-49.08-41.61-85.7-42.74-20.65-.64-39.55,11.56-48.15,30.34-19.46,42.5-61.78,143.6-32.14,160.18,13.19,7.38,30.56,7.66,48.06,4.2-2.72,27.87-3.39,92.53-2.87,101.31.73,12.34,86.78-10,102.75-21.63s-26.89-116.36-26.89-116.36C1631.71,844.13,1677.37,768.75,1665.05,745.56Z"/><g class="cls-24"><path class="cls-25" d="M1547.12,897.54s24.05-9.7,45-22.82c0,0-18.11,58.09-54.4,56.6l9.37-33.78"/><path class="cls-25" d="M1505.68,770.54c1.92-.44,16.85,2.63,44.08-19.76,0,0,10.1,14.49,43.92-6.15l5.27-28.11-69.83-9.22Z"/></g><path class="cls-25" d="M1558,774.23s-48,26.36-44.48,33.31,37.53-2.62,41-.88-6.91,9.94-11.59,9.63-37.25.52-37.25-8.22S1521,786.89,1558,774.23Z"/><path class="cls-6" d="M1513.56,834.44s22.24,12.35,48.61,0c0,0-15,20.54-31,19.49C1510,852.56,1513.56,834.44,1513.56,834.44Z"/><path class="cls-4" d="M1588,769.35c5.28,11.5,15.6,20.09,21,31.56,9.37,20.06,1.69,43.41-3.69,64.89-7.8,31.14-9.87,66.25,7.4,93.31,11.17,17.51,29.45,29.68,49.05,36.55s40.59,8.84,61.36,9.33a453.93,453.93,0,0,0,134.91-17.27c-9.34-3.57-19.16-7.5-25.24-15.45-7.79-10.19-7.43-24.16-7.74-37-.51-21.32-3.92-42.78-12.33-62.38s-22.05-37.28-40.22-48.45c-13.55-8.34-29.75-13.28-40.11-25.37-11.57-13.51-13.09-32.58-17.14-49.9A153.79,153.79,0,0,0,1699,708.1c-5-8.8-11.35-17.48-20.56-21.72-8.71-4-18.82-3.52-28.25-1.82-32.11,5.79-60.84,24.78-65.61,59.63A45.5,45.5,0,0,0,1588,769.35Z"/><g class="cls-26"><path class="cls-23" d="M1831.91,945.49s-145.45,70.39-227,22.42c0,0,65.4,81.28,178.44,62.6s115.85-34.83,115.85-34.83Z"/></g><path class="cls-4" d="M1563.29,740.53a6.24,6.24,0,0,1-2.57-.59c-2-1.12-2.32-4-1.73-6.27s1.75-4.45,1.63-6.78c-12.41,16.21-33.15,23.84-53.34,26.88-1,.15-2.26.23-2.94-.55a3.16,3.16,0,0,1-.57-1.23,68.74,68.74,0,0,1,13.2-62.15c7-8.28,15.83-14.79,25.22-20.15,26.26-15,58.8-21.24,87.18-10.83,9.15,3.36,18,8.68,23.17,17a18.83,18.83,0,0,1,3.21,10.15c-.09,5.66-3.69,10.7-7.94,14.44a56.07,56.07,0,0,1-18,10.09c-3.25,1.19-6.58,2.09-9.87,3.14a11.2,11.2,0,0,0-5.24,3.14c-4.06,4.51-7.79,8.91-12.76,12.5a60.57,60.57,0,0,1-17.29,8.7,57.44,57.44,0,0,1-19.13,2.67C1564.76,740.62,1564,740.58,1563.29,740.53Z"/><path class="cls-4" d="M1276.74,802.55s-75,110.4-57.21,122.94,41.37,16.57,44.94,9.64,49.22-128.4,49.22-128.4Z"/><g class="cls-27"><path class="cls-18" d="M1249.11,835.4s64.85,6.46,67.24,1,8.6-26.15,8.6-26.15-69-19.52-71.44-13.15S1249.11,835.4,1249.11,835.4Z"/></g><path class="cls-3" d="M1377.09,802a16.47,16.47,0,0,0-6.61-18.68c-48.61-32.2-252.76-166.68-265-162.38-13.89,4.89-72.6,171.64-61.06,193.8,10.25,19.67,261.73,2.78,318.14-1.27A16.45,16.45,0,0,0,1377.09,802Z"/><g class="cls-28"><path class="cls-4" d="M1322.81,737.06s14,47.85-25.79,101.43c0,0,94.31-8.81,97.63-19.34s10.82-20.23,6.1-27.44S1322.81,737.06,1322.81,737.06Z"/><path class="cls-23" d="M1042.94,762.39s66.26-13.94,127.21,20S1350.38,799,1350.38,799l-7.84,25.12s-243.79,28.82-279.49,20.13-33.2-60.9-20.11-81.81"/></g><ellipse class="cls-4" cx="1075.9" cy="718.74" rx="102.81" ry="21.97" transform="translate(67.09 1528.95) rotate(-72.51)"/><g class="cls-29"><path class="cls-6" d="M1107.83,714.46s-35.53-24.61-42.89-1.92-7,30.67,37.75,34.82Z"/><path class="cls-18" d="M1094.59,624.46s11.25,5,7.81,32.36c-3,23.62-32.69,144.51-66.6,157.07,0,0,6.7,14.62,16.73,13.26s42.39-44.85,48.92-72.75,30.46-105.68,29.4-118.45S1101.47,612.09,1094.59,624.46Z"/></g><path class="cls-20" d="M1689.15,1450.25s-57.13,29.46-64.33,26.9-35.83-16.89-47.47-31.14c0,0-4.59,32.16,24.08,38.53,0,0,51.82-1.85,73.12-11.88C1674.55,1472.66,1683.58,1469.28,1689.15,1450.25Z"/><path class="cls-5" d="M1586.86,1397.9s-53.19,18.53-68.17,29.53c0,0-75.73,48.85-64.88,52.92,6,2.24,28-8.39,46.55-18.4-10.16,24.35-20.28,53.17-15.5,52.11,7.68-1.71,44.69-56.67,44.69-56.67s-24.82,63.2-20.87,63.31,28.76-20.3,35.47-57.39c0,0-7.5,52.09-2.37,53.27s21.7-51.31,21.7-51.31,44.8-17.45,45.82-26.37S1586.86,1397.9,1586.86,1397.9Z"/><g class="cls-30"><path class="cls-25" d="M1522.1,1420.47c-.46,4.16,35.56,40.28,62.78,40.28s29.71-18.61,29.71-18.61l-41.1-53.88S1522.94,1413,1522.1,1420.47Z"/><path class="cls-25" d="M1453.81,1480.35s49-28.61,52.67-30.7-9.39,17.22-9.39,17.22-43.91,20.17-43.28,13.48"/></g><path class="cls-7" d="M1744.76,1049.82s151.84,198.2,140.88,250.6-241.32,181.6-260.82,176.73-73.85-41.53-68.62-79.27,171-153.52,171-153.52-88-57.28-84.22-103.6S1744.76,1049.82,1744.76,1049.82Z"/><path class="cls-20" d="M1562.17,1384.57s109.44-104.33,165-140.21c0,0-61.5-26.18-84.22-103.6,0,0,4.49,100.49,52.43,106.89C1695.4,1247.65,1561.58,1332.91,1562.17,1384.57Z"/><path class="cls-20" d="M1727.19,1045.91s-62.91,25.69-79.5,79.08C1647.69,1125,1638.22,1070.84,1727.19,1045.91Z"/><path class="cls-5" d="M1301.68,838.6s-45.27,15.14-43.21,19.68,35.28,1.27,35.28,1.27l-11.69,30.73s14.54,1,20.81,2.74c0,0,23.86-38,21.79-45.47S1301.68,838.6,1301.68,838.6Z"/><g class="cls-31"><path class="cls-25" d="M1294.24,897.21s13.67-40.18,11.65-39.84-15.53,2.48-15.53,2.48L1278.2,893Z"/><path class="cls-25" d="M1266,861s23-3.4,25.65-7.93-18-6-18-6-18,10.64-15.16,12.39S1266,861,1266,861Z"/></g><path class="cls-5" d="M1241.5,848.32a10.8,10.8,0,0,1,5.29-1.22c8,.11,35.84.76,40.31,4.53,5.23,4.4-42,11.26-47.09,10.24C1235.52,861,1234.17,852.26,1241.5,848.32Z"/><path class="cls-5" d="M1279.53,864.83c-4.47-3.76-32.34-4.41-40.3-4.52a10.92,10.92,0,0,0-5.3,1.21c-5.78,3.12-6.15,9.17-3.85,12-6.68,4.08-5.31,12.33-.93,13.21,5.06,1,47.55-6.84,42.32-11.24-2.41-2-6.85-2.15-16.07-2.77C1268.82,870.56,1282.47,867.31,1279.53,864.83Z"/><path class="cls-25" d="M1255.4,872.76s-17.49,3.58-25.32.8c0,0,22.38-1.92,31.83-3.89a155.75,155.75,0,0,0,17.62-4.84s2.14,1.17-3,3.1S1255.4,872.76,1255.4,872.76Z"/><path class="cls-2" d="M1042.57,590.15l-20.74-138.32A33.12,33.12,0,0,0,984.16,424l-289.1,43.34A33.14,33.14,0,0,0,667.21,505L688,643.32a33.12,33.12,0,0,0,37.67,27.84l155.9-23.37c20.1,29.53,102.83,79.15,96.91,66.49-4.33-9.28-14.21-54.08-19.34-78.12l55.63-8.34A33.14,33.14,0,0,0,1042.57,590.15Z"/><path class="cls-6" d="M693.48,506.29a3.26,3.26,0,0,1-.46-6.49l292.12-41.54a3.27,3.27,0,1,1,.91,6.47L693.94,506.26Z"/><path class="cls-6" d="M700.21,547.83a3.27,3.27,0,0,1-.46-6.5L991.87,499.8a3.26,3.26,0,0,1,.92,6.46L700.67,547.79A3.73,3.73,0,0,1,700.21,547.83Z"/><path class="cls-6" d="M706.94,589.36a3.27,3.27,0,0,1-.46-6.5L998.6,541.33a3.26,3.26,0,0,1,.92,6.46L707.4,589.33A3.55,3.55,0,0,1,706.94,589.36Z"/><path class="cls-6" d="M713.67,630.89a3.26,3.26,0,0,1-.46-6.49l292.12-41.54a3.27,3.27,0,0,1,.92,6.47L714.13,630.86A3.55,3.55,0,0,1,713.67,630.89Z"/><path class="cls-18" d="M2761.7,1816.17H295.86a3.73,3.73,0,1,1,0-7.45H2761.7a3.73,3.73,0,1,1,0,7.45Z"/><path class="cls-12" d="M1143.57,506.55a668.92,668.92,0,0,0,118.9-41.46c37.2-17,73.77-37.24,106.52-61.87,15.27-11.49,29.72-24.18,41.8-39A153,153,0,0,0,1427.26,340c3.52-6.59,8-15.43,5.68-23.09-3.75-12.59-22.26-15.2-28.93-3.7-3.75,6.47-4.47,15.54-4.63,22.86a83.06,83.06,0,0,0,3.36,24.62c23.73,82,128.22,75.8,194.67,66.33,44.81-6.39,88.83-17.1,133-26.79,42.5-9.33,85.31-17.55,128.48-23.1,85.33-11,173.27-12.09,257,10.09q15.1,4,29.93,9c6.84,2.29,9.77-8.51,3-10.79-76.51-25.62-158.11-30.8-238.15-24.79-40.68,3-81.12,8.85-121.23,16.23-40.78,7.5-81.09,17.08-121.62,25.8-41.28,8.89-83.07,16.79-125.36,18.55-34.54,1.45-72-1.83-100.78-22.8a76.28,76.28,0,0,1-27.24-37.93,73.87,73.87,0,0,1-3.82-23,58.36,58.36,0,0,1,.94-10.88c.48-2.53.83-6.83,2.88-8.66,2.57-2.29,7.49-.56,8,2.86.48,3.22-2,7.71-3.26,10.52a98.91,98.91,0,0,1-6.58,11.54c-9.79,15.24-22.41,28.47-36.14,40.2-29,24.74-62.94,44.27-96.8,61.39a650.11,650.11,0,0,1-111.09,43.82q-13.87,4.05-27.92,7.48c-7,1.72-4,12.51,3,10.79Z"/><path class="cls-12" d="M2188.55,407.15l22.21,8.84a5.61,5.61,0,0,0,6.88-3.91c.74-3.23-1-5.72-3.9-6.88l-22.21-8.84a5.56,5.56,0,0,0-4.31.56,5.69,5.69,0,0,0-2.57,3.34c-.74,3.23,1,5.72,3.9,6.89Z"/></svg>